<?xml version="1.0" encoding="utf-8"?>
<!-- Generator: Adobe Illustrator 24.2.3, SVG Export Plug-In . SVG Version: 6.00 Build 0)  -->
<svg version="1.1" xmlns="http://www.w3.org/2000/svg" xmlns:xlink="http://www.w3.org/1999/xlink" x="0px" y="0px"
	 viewBox="0 0 3710 3710" style="enable-background:new 0 0 3710 3710;" xml:space="preserve">
<style type="text/css">
	.st0{fill:#FFFFFF;}
	.st1{fill:url(#SVGID_1_);}
	.st2{fill:#BDD0FB;}
	.st3{fill:#91B3FA;}
	.st4{fill:url(#SVGID_2_);}
	.st5{fill:#FCFCFC;}
	.st6{fill:url(#SVGID_3_);}
	.st7{opacity:0.3;}
	.st8{fill:url(#SVGID_4_);}
	.st9{fill:url(#SVGID_5_);}
	.st10{fill:url(#SVGID_6_);}
	.st11{fill:url(#SVGID_7_);}
	.st12{fill:url(#SVGID_8_);}
	.st13{fill:url(#SVGID_9_);}
	.st14{fill:url(#SVGID_10_);}
	.st15{fill:url(#SVGID_11_);}
	.st16{fill:url(#SVGID_12_);}
	.st17{fill:url(#SVGID_13_);}
	.st18{fill:url(#SVGID_14_);}
	.st19{fill:url(#SVGID_15_);}
	.st20{fill:url(#SVGID_16_);}
	.st21{fill:url(#SVGID_17_);}
	.st22{fill:#EF7B14;}
	.st23{fill:url(#SVGID_18_);}
	.st24{fill:url(#SVGID_19_);}
	.st25{fill:url(#SVGID_20_);}
	.st26{fill:url(#SVGID_21_);}
	.st27{opacity:0.58;fill:#FFFFFF;}
	.st28{fill:url(#SVGID_22_);}
	.st29{fill:url(#SVGID_23_);}
	.st30{fill:url(#SVGID_24_);}
	.st31{fill:url(#SVGID_25_);}
	.st32{fill:url(#SVGID_26_);}
	.st33{fill:url(#SVGID_27_);}
	.st34{fill:url(#SVGID_28_);}
	.st35{fill:url(#SVGID_29_);}
	.st36{fill:url(#SVGID_30_);}
	.st37{fill:url(#SVGID_31_);}
	.st38{fill:url(#SVGID_32_);}
	.st39{fill:url(#SVGID_33_);}
	.st40{fill:url(#SVGID_34_);}
	.st41{fill:url(#SVGID_35_);}
	.st42{fill:url(#SVGID_36_);}
	.st43{fill:url(#SVGID_37_);}
	.st44{fill:url(#SVGID_38_);}
	.st45{fill:url(#SVGID_39_);}
	.st46{fill:url(#SVGID_40_);}
	.st47{fill:url(#SVGID_41_);}
	.st48{fill:url(#SVGID_42_);}
</style>
<g id="Background">
	<g>
		<g>
			<rect class="st0" width="3710" height="3710"/>
		</g>
	</g>
</g>
<g id="Illustration">
	<g>
		<linearGradient id="SVGID_1_" gradientUnits="userSpaceOnUse" x1="3492.7078" y1="3292.4119" x2="1410.7235" y2="1470.677">
			<stop  offset="0" style="stop-color:#DAE3FE"/>
			<stop  offset="1" style="stop-color:#E9EFFD"/>
		</linearGradient>
		<path class="st1" d="M3138.88,2346.3c-269.08,633.57-985.83,988.49-1607.41,892.75c-101.14-15.58-378.43-61.99-623.92-280.92
			C434.95,2536.68,333.88,1702.13,715.11,1114c277.47-428.05,774.86-670.7,1247.48-658.56c101.8,2.61,491.95,18.73,834.83,301.45
			c50.36,41.53,161.44,140.21,261.55,296.75C3294.03,1421.25,3314.24,1933.4,3138.88,2346.3z"/>
		<g>
			<path class="st2" d="M582.94,536.27c-2.59-11.04,12.94-18.38,22.45-10.67c96.6,78.33,328.7,312.9,270.86,722.83
				c-72.57,514.32,51.5,701.99,205.94,816.46c0,0-212.1-53.83-345.54-244.26C409.01,1353.08,629.06,732.63,582.94,536.27z"/>
			<path class="st0" d="M656.45,696.91c12.08,57.26,22.86,114.69,31.18,172.38c8.67,57.64,15.32,115.48,19.87,173.42
				c4.29,57.95,7.32,115.96,7.49,173.99c0.47,58.03-1.94,116.01-4.6,174.22c-2.28,58.19-4.96,116.79-0.7,175.82
				c4.19,58.9,16.59,118.32,41.19,174.02c6.15,13.88,12.62,27.72,19.96,41.09c7.06,13.5,14.82,26.72,22.85,39.83
				c16.21,26.14,34.46,51.4,54.8,75.38c40.82,47.87,90.05,90.33,144.28,126.27c5.71,3.78,13.89,2.85,18.27-2.08
				c4.3-4.84,3.34-11.74-2.1-15.57l-0.04-0.03c-12.9-9.06-25.67-18.24-37.92-27.88c-6.22-4.74-12.18-9.7-18.24-14.57
				c-5.84-5.06-11.92-9.92-17.57-15.13c-23.03-20.5-44.36-42.36-63.72-65.49c-38.93-46.03-70.1-97.32-93.71-150.5
				c-11.46-26.71-20.63-54.1-27.32-82.01c-6.67-27.91-10.86-56.31-13.18-84.94c-4.64-57.29-2.55-115.31-0.75-173.51
				c1.71-58.21,2.96-116.72,1.43-175.18c-0.68-29.23-1.96-58.44-3.85-87.62c-0.85-14.59-2.02-29.17-3.17-43.75
				c-1.31-14.57-2.71-29.13-4.24-43.67c-6.27-58.18-14.59-116.16-25.03-173.84c-10.75-57.63-23.27-115-38.33-171.86
				c-0.43-1.63-2.3-2.64-4.19-2.27C657.28,693.79,656.12,695.34,656.45,696.91z"/>
		</g>
		<g>
			<g>
				<path class="st3" d="M833.17,1767.33c-11.84,12.57-32.67,8.95-39.8-6.78c-39.32-86.8-128.28-342.25,18.65-636.54
					C936.1,875.49,979.76,728.94,994.97,661.04c3.22-14.36,22.89-16.26,28.83-2.8C1089.33,806.77,1262.36,1311.97,833.17,1767.33z"
					/>
				<path class="st0" d="M811.66,1758.17c-0.42,0.08-0.85,0.11-1.3,0.1c-3.72-0.06-6.69-3.12-6.64-6.84
					c0.06-4.22,8.28-426.1,165.19-779.45c1.51-3.4,5.49-4.93,8.9-3.43c3.4,1.51,4.94,5.5,3.43,8.9
					c-155.77,350.77-163.97,769.99-164.03,774.18C817.15,1754.92,814.77,1757.62,811.66,1758.17z"/>
			</g>
		</g>
		<g>
			<g>
				
					<linearGradient id="SVGID_2_" gradientUnits="userSpaceOnUse" x1="-159.251" y1="6336.7056" x2="2179.0293" y2="-1565.0457" gradientTransform="matrix(-1 0 0 1 3686.0842 0)">
					<stop  offset="0" style="stop-color:#4F52FF"/>
					<stop  offset="1" style="stop-color:#4042E2"/>
				</linearGradient>
				<path class="st4" d="M2512.36,1115.66c-37.56-65.98-66.47-154.71-7.44-221.13c106.63-119.95,319.88-146.61,373.19,39.99
					c22.05,77.19,6.48,137.18-19.37,181c-23.94,40.58,5.57,91.73,52.69,91.73h339.86v453.47c0,40.95-46,64.38-79.64,41.04
					c-228-158.25-346.89,28.41-347.14,112.42c-0.28,93.3,40.26,313.21,186.87,306.55c67-3.04,122.87-25.57,163.78-49.14
					c33.88-19.52,76.13,4.25,76.13,43.35v422.66h-351.73c-41.76,0-66.67,46.12-43.95,81.16c26.1,40.26,47.95,98.63,49.14,181.7
					c3.03,211.47-319.88,173.27-399.84,106.63c-57.12-47.6-59.47-200.23-15-294.62c16.43-34.87-10.59-74.87-49.15-74.87h-342.36
					v-462.52c0-33.72-36.62-54.45-65.61-37.23c-58.92,35.02-149.93,78.91-240.94,82.87c-153.27,6.67-173.27-166.6-179.93-299.88
					c-5.89-117.71,218.54-308.27,395.69-192.1c29.03,19.03,88.6,46.89,88.6,12.18v-433.67h363.32
					C2506.6,1207.26,2535.64,1156.55,2512.36,1115.66z"/>
				<path class="st5" d="M2700.72,2966.49c-17.9,0-36.44-1.18-55.39-3.57c-61.01-7.7-116.47-27.1-144.72-50.65
					c-61.64-51.37-60.75-209.37-16.78-302.67c6.61-14.02,5.53-29.73-2.95-43.1c-8.8-13.87-23.79-22.16-40.1-22.16h-342.36
					c-3.72,0-6.74-3.02-6.74-6.74v-462.52c0-13.35-6.9-25.24-18.47-31.82c-11.61-6.61-25.42-6.47-36.96,0.39
					c-60.63,36.03-152.19,79.81-244.09,83.81c-70.66,3.14-121.67-31.09-151.45-101.57c-25.26-59.78-32.13-137.03-35.51-204.71
					c-3.22-64.33,56.5-146.56,142-195.54c90.91-52.07,187.18-52.99,264.13-2.53c26.72,17.53,62.82,32.51,74.55,26.19
					c0.99-0.53,3.61-1.95,3.61-8.37v-433.67c0-3.72,3.02-6.74,6.74-6.74h363.32c19.53,0,37.02-10.04,46.8-26.86
					c9.89-17.01,9.95-37.45,0.15-54.66c-53.67-94.26-55.96-173.43-6.62-228.94c65.18-73.32,168.75-111.29,251.81-92.36
					c65.08,14.84,112.28,62.77,132.91,134.97c19.45,68.08,12.7,130.76-20.05,186.28c-9.95,16.87-10.08,37.11-0.35,54.14
					c9.81,17.17,27.47,27.42,47.24,27.42h339.86c3.72,0,6.74,3.02,6.74,6.74v453.47c0,21.59-11.39,40.43-30.46,50.42
					c-19.08,9.98-41.98,8.51-59.77-3.84c-113.14-78.53-192.16-66.18-238.54-42.01c-66.66,34.75-97.89,109.4-98.01,148.91
					c-0.22,72.21,22.99,202.19,87.8,264.31c26.22,25.13,57.09,37.02,92.03,35.48c55.44-2.52,109.52-18.75,160.72-48.25
					c18.2-10.49,39.83-10.52,57.88-0.09c17.76,10.26,28.36,28.69,28.36,49.29v422.66c0,3.72-3.02,6.74-6.74,6.74h-351.73
					c-17.05,0-32.07,8.91-40.18,23.82c-8.14,14.99-7.44,32.53,1.89,46.93c32.28,49.79,49.18,112.13,50.23,185.27
					c0.93,65.28-28.83,114.22-86.08,141.54C2791.46,2958.12,2748.37,2966.49,2700.72,2966.49z M2105.17,2530.86h335.62
					c20.95,0,40.2,10.62,51.49,28.42c10.84,17.09,12.25,38.05,3.76,56.07c-45.31,96.16-38.52,243.46,13.21,286.57
					c53.02,44.18,213.16,74.22,310.39,27.82c52.89-25.24,79.27-68.7,78.4-129.18c-1.01-70.57-17.18-130.5-48.05-178.13
					c-12.06-18.6-12.97-41.3-2.43-60.7c10.51-19.33,29.95-30.87,52.03-30.87h344.98v-415.92c0-15.73-8.08-29.79-21.62-37.61
					c-13.82-7.99-30.41-7.95-44.4,0.1c-53.09,30.58-109.22,47.42-166.84,50.03c-38.63,1.78-72.98-11.44-101.97-39.22
					c-67.87-65.05-92.18-199.55-91.95-274.08c0.13-44.06,32.88-123.1,105.26-160.83c49.67-25.9,133.79-39.47,252.47,42.89
					c13.86,9.62,30.99,10.72,45.83,2.97c14.54-7.61,23.23-21.99,23.23-38.47V1214h-333.12c-24.67,0-46.71-12.79-58.95-34.22
					c-12.16-21.29-11.99-46.59,0.45-67.68c30.8-52.22,37.09-111.34,18.7-175.72c-24.63-86.2-80.45-115.84-122.94-125.53
					c-78.5-17.92-176.68,18.35-238.73,88.17c-31.48,35.41-55.59,101.16,8.26,213.31l0,0c12.2,21.43,12.12,46.9-0.21,68.11
					c-12.22,21.02-34.07,33.56-58.46,33.56h-356.58v426.92c0,11.96-5.81,17.6-10.68,20.24c-25.75,13.91-85.81-25.11-88.36-26.77
					c-72.55-47.59-163.68-46.51-250.03,2.96c-80.02,45.84-138.16,124.58-135.23,183.16c3.33,66.5,10.02,142.29,34.47,200.14
					c27.74,65.65,72.98,96.19,138.44,93.35c89.09-3.87,178.49-46.69,237.79-81.93c15.76-9.36,34.64-9.55,50.52-0.52
					c15.83,9.01,25.28,25.28,25.28,43.54V2530.86z"/>
			</g>
			<g>
				
					<linearGradient id="SVGID_3_" gradientUnits="userSpaceOnUse" x1="1457.1447" y1="4728.5308" x2="3767.7351" y2="-3079.6479" gradientTransform="matrix(-1 0 0 1 3686.0842 0)">
					<stop  offset="0" style="stop-color:#4F52FF"/>
					<stop  offset="1" style="stop-color:#4042E2"/>
				</linearGradient>
				<path class="st6" d="M802.16,2052.55c-39.98,26.83-92.75,52.93-152.23,58.88c-131.7,13.17-184.38-131.7-190.97-256.82
					c-6.58-125.12,105.36-243.65,204.14-230.48c46.52,6.2,97.43,35.78,138.27,65.33c32.98,23.87,79.04,0.4,79.04-40.32v-449.39
					h454.64c37.89,0,63-39.13,47.17-73.55c-35.67-77.53-75.74-195.34-19.86-246.19c86.84-79.02,321.44-79.02,360.95,39.51
					c22.12,66.37-7.93,146.22-38.67,203.65c-18.53,34.62,6.48,76.4,45.74,76.4h388.03v416.19c0,44.4-50.21,71.98-86.42,46.29
					c-167.85-119.13-351.16,6.53-367.96,146.47c-19.76,164.63,85.61,302.91,197.56,289.75c56.85-6.69,122.18-38.85,172.73-68.88
					c37.12-22.06,84.1,4.43,84.1,47.62v459.69h-446.93c-51.14,0-85.34-53.34-63.18-99.43c26.42-54.92,134.67-122.34,128.17-174.37
					c-13.17-105.36-247.76-131.43-374.12-111.81c-96.44,14.97-48.5,165.83,6.31,286.73c21.01,46.34-12.45,98.88-63.33,98.88H880.41
					v-443.21C880.41,2053.25,835.58,2030.14,802.16,2052.55z"/>
				<path class="st5" d="M2118.42,2543.43h-446.93c-26.56,0-50.87-13.44-65.03-35.96c-13.98-22.24-15.56-49.58-4.23-73.13
					c11.35-23.6,36.95-49.2,61.7-73.95c34.06-34.06,69.28-69.28,65.86-96.66c-2.53-20.27-14.4-38.52-35.26-54.26
					c-47.54-35.86-189.06-73.78-331.14-51.73c-19.19,2.98-32.42,11.65-40.46,26.52c-21.99,40.68-4.05,127.39,51.88,250.76
					c10.87,23.97,8.88,51.44-5.32,73.48c-14.1,21.87-38.07,34.93-64.14,34.93H880.41c-3.72,0-6.74-3.02-6.74-6.74v-443.2
					c0-16.11-8.44-30.23-22.57-37.77c-14.5-7.73-31.39-6.82-45.18,2.44c-51.65,34.66-103.91,54.85-155.32,59.99
					c-42.48,4.25-79.63-7.03-110.48-33.5c-23.87-20.49-80.22-83.88-87.9-229.67c-3.53-67.04,27-138.89,79.66-187.5
					c40.68-37.55,88.85-55.77,132.1-50.01c40.15,5.35,87.7,27.74,141.33,66.55c13.41,9.7,30.19,11.02,44.89,3.51
					c14.68-7.5,23.45-21.84,23.45-38.36v-449.39c0-3.72,3.02-6.74,6.74-6.74h454.64c15.5,0,29.73-7.77,38.07-20.78
					c8.33-13,9.44-29.16,2.97-43.21c-40.04-87.02-75.71-201.73-18.27-253.99c55.04-50.09,169.15-70.8,259.77-47.13
					c58.12,15.17,97.93,46.96,112.11,89.49c23.06,69.2-8.54,151.83-39.12,208.96c-7.58,14.16-7.19,30.81,1.04,44.55
					c8.22,13.73,22.72,21.93,38.76,21.93h388.03c3.72,0,6.74,3.02,6.74,6.74v416.19c0,23.59-13.12,45.02-34.24,55.93
					c-20.66,10.67-44.15,9.13-62.82-4.13c-71.13-50.48-151.08-60.21-225.14-27.39c-71.81,31.81-123.71,98.22-132.23,169.17
					c-10.78,89.79,16.85,179.97,72.09,235.34c35,35.08,76.87,51.75,117.98,46.91c57.37-6.75,124.15-40.7,170.07-67.99
					c19.6-11.65,43.12-11.89,62.88-0.65c19.66,11.19,31.4,31.4,31.4,54.06v459.69C2125.17,2540.41,2122.15,2543.43,2118.42,2543.43z
					 M1448.83,2138.43c88.42,0,195.14,16.01,253.83,60.28c23.88,18.01,37.52,39.33,40.52,63.35c4.24,33.92-33.35,71.51-69.7,107.86
					c-23.95,23.96-48.73,48.73-59.08,70.27c-9.31,19.35-8,41.82,3.49,60.11c11.67,18.57,31.71,29.66,53.61,29.66h440.19V2077
					c0-17.75-9.19-33.58-24.59-42.34c-15.5-8.82-33.93-8.63-49.33,0.52c-47.04,27.95-115.66,62.75-175.38,69.78
					c-45.23,5.33-91.13-12.71-129.1-50.78c-58.09-58.23-87.19-152.67-75.93-246.47c9.07-75.58,64.08-146.19,140.15-179.89
					c78.58-34.81,163.25-24.61,238.4,28.73c14.5,10.28,32.75,11.46,48.83,3.15c16.62-8.59,26.94-25.43,26.94-43.95v-409.44h-381.29
					c-20.83,0-39.64-10.65-50.33-28.49c-10.69-17.85-11.2-39.47-1.37-57.84c29.33-54.79,59.77-133.68,38.22-198.33
					c-12.69-38.07-49.17-66.73-102.72-80.71c-86.67-22.62-195.28-3.27-247.29,44.06c-23.23,21.14-51.33,80.21,21.45,238.38
					c8.39,18.25,6.95,39.24-3.87,56.12c-10.83,16.91-29.31,27-49.42,27h-447.9v442.65c0,21.37-11.8,40.67-30.8,50.37
					c-19.02,9.71-41.6,7.96-58.93-4.59c-51.07-36.96-97.83-59.13-135.21-64.11c-39.27-5.25-83.45,11.73-121.17,46.55
					c-49.8,45.97-78.67,113.75-75.35,176.89c5.14,97.54,36.24,179.84,83.21,220.15c27.94,23.98,61.71,34.2,100.35,30.32
					c49.18-4.92,99.36-24.35,149.15-57.77l0,0c17.74-11.9,40.36-13.1,59.04-3.14c18.6,9.92,29.71,28.49,29.71,49.67v436.46h418.19
					c21.46,0,41.21-10.75,52.81-28.75c11.71-18.17,13.35-40.82,4.38-60.6c-58.56-129.17-75.88-217.57-51.46-262.74
					c10.03-18.57,26.94-29.81,50.25-33.43C1385.71,2140.63,1416.01,2138.43,1448.83,2138.43z"/>
			</g>
		</g>
		<g>
			<g>
				<g class="st7">
					<path class="st3" d="M2579.25,915.5c-4.19,0.78-8.37-1.71-9.61-5.88c-2.71-9.12-5.07-18.5-7.01-27.86
						c-0.94-4.56,1.99-9.02,6.54-9.96c0.05-0.01,0.11-0.02,0.16-0.03c4.5-0.84,8.86,2.07,9.79,6.57c1.84,8.9,4.08,17.8,6.66,26.47
						c1.33,4.46-1.21,9.15-5.67,10.48C2579.83,915.38,2579.54,915.45,2579.25,915.5z M2566.3,843.26c-0.32,0.06-0.66,0.1-0.99,0.13
						c-4.64,0.31-8.66-3.2-8.97-7.84c-0.64-9.54-0.88-19.19-0.71-28.7c0.08-4.65,3.9-8.34,8.57-8.27c4.65,0.08,8.35,3.92,8.27,8.57
						c-0.16,9.04,0.07,18.21,0.68,27.27C2573.44,838.72,2570.44,842.49,2566.3,843.26z M2569.57,769.97
						c-0.92,0.17-1.89,0.19-2.87,0.04c-4.59-0.73-7.73-5.05-7-9.64c1.49-9.42,3.42-18.89,5.72-28.15c1.12-4.52,5.69-7.26,10.21-6.15
						c4.51,1.12,7.27,5.69,6.15,10.21c-2.18,8.79-4.01,17.79-5.43,26.73C2575.77,766.62,2572.98,769.33,2569.57,769.97z
						 M2589.16,699.23c-1.52,0.28-3.14,0.15-4.69-0.47c-4.32-1.74-6.4-6.65-4.67-10.96c3.57-8.85,7.56-17.66,11.86-26.17
						c2.1-4.15,7.17-5.81,11.32-3.71c4.15,2.1,5.81,7.17,3.71,11.32c-4.09,8.08-7.88,16.44-11.27,24.86
						C2594.32,696.87,2591.89,698.72,2589.16,699.23z M2624.03,634.64c-2.14,0.4-4.43-0.02-6.35-1.36
						c-3.82-2.65-4.77-7.9-2.12-11.72c5.43-7.82,11.27-15.52,17.36-22.88c2.96-3.59,8.27-4.09,11.86-1.12
						c3.58,2.97,4.09,8.28,1.12,11.86c-5.79,6.99-11.34,14.31-16.5,21.74C2628.08,633.06,2626.13,634.25,2624.03,634.64z
						 M2672.31,579.37c-2.77,0.52-5.73-0.36-7.77-2.59c-3.14-3.43-2.9-8.76,0.53-11.9c7.03-6.44,14.43-12.65,21.99-18.47
						c3.69-2.84,8.98-2.15,11.82,1.54c2.84,3.68,2.15,8.97-1.54,11.81c-7.18,5.53-14.21,11.43-20.89,17.55
						C2675.24,578.41,2673.8,579.09,2672.31,579.37z M2972.06,502.93c-1.15,0.21-2.35,0.19-3.56-0.1
						c-8.79-2.17-17.79-3.98-26.75-5.38c-4.6-0.72-7.74-5.03-7.02-9.63c0.72-4.6,5.03-7.74,9.63-7.02
						c9.44,1.48,18.92,3.39,28.17,5.67c4.52,1.11,7.28,5.68,6.16,10.2C2977.88,499.97,2975.21,502.34,2972.06,502.93z
						 M2731.6,536.21c-3.44,0.64-7.05-0.91-8.87-4.12c-2.3-4.05-0.88-9.19,3.16-11.49c8.29-4.71,16.89-9.12,25.55-13.11
						c4.23-1.92,9.23-0.1,11.17,4.13c1.94,4.23,0.09,9.23-4.14,11.17c-8.23,3.78-16.39,7.97-24.26,12.44
						C2733.38,535.72,2732.5,536.04,2731.6,536.21z M2899.28,493.51c-0.55,0.1-1.11,0.15-1.69,0.15c-9.06-0.14-18.24,0.1-27.29,0.73
						c-4.64,0.32-8.66-3.18-8.99-7.82c-0.32-4.64,3.18-8.69,7.82-8.99c9.53-0.66,19.19-0.92,28.72-0.77
						c4.65,0.07,8.36,3.91,8.29,8.56C2906.09,489.43,2903.14,492.79,2899.28,493.51z M2799.05,507.37c-4.18,0.78-8.36-1.7-9.61-5.86
						c-1.34-4.46,1.2-9.15,5.65-10.49c9.13-2.73,18.49-5.11,27.84-7.06c0.06-0.01,0.12-0.03,0.18-0.04
						c4.49-0.84,8.85,2.06,9.79,6.56c0.95,4.56-1.97,9.02-6.53,9.97c-8.88,1.85-17.77,4.11-26.44,6.71
						C2799.64,507.25,2799.34,507.32,2799.05,507.37z"/>
					<path class="st3" d="M3027.98,522.22c-1.63,0.3-3.37,0.13-5-0.6c-3.96-1.78-8.02-3.51-12.08-5.14
						c-4.32-1.73-6.41-6.64-4.67-10.96c1.73-4.32,6.64-6.42,10.96-4.67c4.27,1.71,8.54,3.53,12.71,5.41
						c4.24,1.91,6.14,6.9,4.23,11.14C3032.95,520.01,3030.6,521.73,3027.98,522.22z"/>
				</g>
				<g class="st7">
					<path class="st3" d="M3202.45,710.71c-4,0.75-8.06-1.49-9.47-5.44c-1.46-4.09-3.04-8.22-4.68-12.27
						c-1.75-4.31,0.33-9.23,4.64-10.97c4.33-1.75,9.23,0.33,10.97,4.64c1.73,4.26,3.38,8.61,4.93,12.92
						c1.57,4.38-0.71,9.2-5.09,10.77C3203.32,710.51,3202.88,710.63,3202.45,710.71z"/>
					<path class="st3" d="M2954.24,1143.96c-3.81,0.71-7.65,1.36-11.51,1.95c-4.6,0.7-8.9-2.46-9.6-7.06
						c-0.7-4.6,2.48-8.92,7.06-9.6c8.91-1.36,17.75-3.07,26.37-5.13c4.53-1.07,9.07,1.72,10.15,6.24c1.08,4.53-1.72,9.07-6.24,10.15
						C2965.14,1141.78,2959.68,1142.94,2954.24,1143.96z M2898.41,1149.59c-0.46,0.09-0.94,0.14-1.43,0.14
						c-9.4,0.15-18.91-0.1-28.26-0.75c-4.64-0.32-8.15-4.34-7.83-8.98c0.32-4.64,4.35-8.16,8.98-7.83
						c8.88,0.61,17.92,0.84,26.85,0.71c4.65-0.07,8.48,3.64,8.55,8.29C2905.34,1145.34,2902.37,1148.84,2898.41,1149.59z
						 M3012.78,1127.27c-3.9,0.73-7.9-1.39-9.39-5.23c-1.69-4.34,0.46-9.22,4.8-10.91c8.3-3.22,16.56-6.85,24.58-10.78
						c4.18-2.04,9.23-0.32,11.27,3.86c2.05,4.18,0.32,9.23-3.86,11.27c-8.44,4.14-17.15,7.95-25.89,11.35
						C3013.79,1127.04,3013.28,1127.18,3012.78,1127.27z M2826.5,1142.75c-1.05,0.2-2.16,0.19-3.27-0.04
						c-9.19-1.92-18.41-4.26-27.41-6.94c-4.46-1.33-6.99-6.02-5.66-10.48c1.33-4.46,6.02-6.99,10.48-5.66
						c8.54,2.55,17.29,4.77,26.02,6.59c4.55,0.95,7.48,5.41,6.52,9.97C2832.48,1139.63,2829.75,1142.14,2826.5,1142.75z
						 M3076.73,1093.82c-3.2,0.6-6.6-0.7-8.54-3.58c-2.6-3.86-1.58-9.09,2.28-11.69c7.38-4.97,14.65-10.32,21.61-15.92
						c3.63-2.91,8.93-2.34,11.84,1.29c2.91,3.63,2.34,8.93-1.29,11.84c-7.33,5.89-14.98,11.53-22.75,16.76
						C3078.91,1093.19,3077.83,1093.62,3076.73,1093.82z M3131.8,1047.15c-2.56,0.48-5.31-0.23-7.34-2.16
						c-3.38-3.2-3.53-8.53-0.33-11.91c6.13-6.48,12.06-13.3,17.62-20.26c2.9-3.64,8.2-4.23,11.84-1.32
						c3.63,2.91,4.23,8.21,1.32,11.84c-5.85,7.32-12.09,14.5-18.55,21.32C3135.1,1046,3133.49,1046.83,3131.8,1047.15z
						 M3175.39,989.58c-1.95,0.36-4.03,0.05-5.86-1.05c-3.99-2.38-5.3-7.56-2.91-11.55c4.58-7.67,8.88-15.61,12.79-23.61
						c2.04-4.18,7.08-5.91,11.27-3.87c4.18,2.04,5.91,7.09,3.87,11.27c-4.12,8.42-8.65,16.78-13.46,24.85
						C3179.79,987.77,3177.68,989.15,3175.39,989.58z M3205.38,923.87c-1.35,0.25-2.78,0.18-4.17-0.28
						c-4.42-1.45-6.82-6.21-5.37-10.63c2.79-8.48,5.25-17.17,7.31-25.84c1.08-4.53,5.62-7.32,10.14-6.25
						c4.53,1.07,7.33,5.62,6.25,10.14c-2.17,9.13-4.76,18.28-7.69,27.21C3210.85,921.25,3208.3,923.33,3205.38,923.87z
						 M3220.22,853.16c-0.76,0.14-1.55,0.18-2.36,0.1c-4.63-0.44-8.03-4.56-7.58-9.19c0.85-8.86,1.33-17.88,1.43-26.8
						c0.05-4.65,3.88-8.38,8.52-8.33c4.65,0.05,8.38,3.87,8.33,8.52c-0.11,9.39-0.61,18.89-1.51,28.21
						C3226.69,849.51,3223.82,852.49,3220.22,853.16z M3219.16,780.97c-0.17,0.03-0.34,0.06-0.52,0.08c-4.62,0.58-8.83-2.7-9.4-7.32
						c-0.81-6.52-1.83-13.08-3.04-19.53c-0.44-2.33-0.9-4.66-1.38-6.97c-0.95-4.56,1.96-9.02,6.52-9.97
						c4.59-1.06,9.02,1.96,9.97,6.51c0.51,2.43,0.99,4.87,1.45,7.33c1.27,6.78,2.34,13.69,3.2,20.54
						C3226.52,776.09,3223.51,780.16,3219.16,780.97z"/>
					<path class="st3" d="M2757.67,1120.15c-1.65,0.31-3.4,0.13-5.04-0.62c-4.15-1.89-8.34-3.91-12.45-5.99
						c-4.15-2.1-5.81-7.17-3.71-11.32c2.1-4.15,7.17-5.81,11.32-3.71c3.91,1.98,7.88,3.89,11.82,5.69c4.23,1.93,6.1,6.92,4.17,11.16
						C2762.61,1117.96,2760.28,1119.66,2757.67,1120.15z"/>
				</g>
				<g>
					<path class="st3" d="M2750.89,1022.01c1.28,1.08,3.11,1.23,4.56,0.38l41.17-24.52c19.94,10.16,41.64,17.22,64.43,20.58
						l19.35,43.81c0.68,1.54,2.26,2.47,3.93,2.33l57.28-4.82c1.67-0.14,3.07-1.33,3.49-2.96l11.76-46.42
						c21.91-7.11,42.12-17.7,60.08-31.05l44.69,17.31c1.57,0.61,3.34,0.15,4.43-1.13l37.1-43.91c1.08-1.28,1.24-3.11,0.38-4.56
						L3079,905.88c10.16-19.94,17.22-41.64,20.58-64.43l43.81-19.35c1.54-0.68,2.47-2.26,2.33-3.93l-4.82-57.28
						c-0.14-1.67-1.33-3.07-2.96-3.49l-46.42-11.76c-7.11-21.91-17.69-42.12-31.05-60.08l17.31-44.69c0.61-1.57,0.15-3.34-1.13-4.43
						l-43.91-37.1c-1.28-1.09-3.11-1.23-4.56-0.38l-41.17,24.52c-19.94-10.17-41.64-17.22-64.43-20.58l-19.35-43.81
						c-0.68-1.54-2.26-2.47-3.93-2.33l-57.28,4.82c-1.67,0.14-3.07,1.33-3.49,2.96l-11.76,46.42
						c-21.91,7.11-42.12,17.69-60.09,31.05l-44.69-17.31c-1.57-0.61-3.35-0.15-4.43,1.13l-37.1,43.91
						c-1.08,1.28-1.23,3.11-0.38,4.56l24.52,41.17c-10.16,19.94-17.22,41.64-20.58,64.43l-43.81,19.35
						c-1.54,0.68-2.47,2.26-2.33,3.93l4.82,57.28c0.14,1.67,1.33,3.07,2.96,3.49l46.42,11.76c7.11,21.9,17.7,42.12,31.05,60.08
						l-17.3,44.69c-0.61,1.57-0.15,3.34,1.13,4.43L2750.89,1022.01z"/>
					<g>
						<path class="st2" d="M2902.4,867.49c-27.69,5.18-55.8-10.61-65.22-38.02c-10.36-30.13,5.73-63.07,35.85-73.43
							c14.6-5.02,30.27-4.05,44.14,2.72c13.87,6.77,24.27,18.54,29.29,33.13c10.36,30.13-5.73,63.07-35.85,73.43
							C2907.89,866.25,2905.14,866.97,2902.4,867.49z M2883.77,767.11c-2.14,0.4-4.26,0.96-6.35,1.68
							c-23.1,7.94-35.43,33.2-27.49,56.3c7.94,23.1,33.19,35.44,56.3,27.49c23.1-7.94,35.43-33.2,27.49-56.3
							c-3.85-11.19-11.82-20.21-22.46-25.41C2902.61,766.65,2893.05,765.38,2883.77,767.11z"/>
					</g>
					<path class="st2" d="M2918.9,949.3c-4.75,0.89-9.58,1.54-14.47,1.96l0,0c-1.54,0.13-3.08,0.23-4.62,0.31
						c-7.6,0.39-15.22,0.18-22.74-0.63c-0.1-0.01-0.21-0.02-0.31-0.03c-0.29-0.03-0.58-0.07-0.87-0.1c-0.57-0.06-1.13-0.14-1.7-0.21
						c-1.49-0.19-2.62-1.32-2.88-2.72c-0.06-0.34-0.07-0.7-0.03-1.06c0.24-1.85,1.93-3.14,3.77-2.91c9.5,1.23,19.19,1.44,28.81,0.63
						c47.79-4.01,87.74-32.53,108.54-72.13c11.57-22.03,17.21-47.48,14.98-74.06c-0.39-4.66-1.01-9.27-1.86-13.8
						c-5.71-30.52-21.61-57.92-45.65-78.23c-27.61-23.33-62.66-34.51-98.68-31.48c-74.39,6.26-129.77,71.84-123.52,146.19
						c0.39,4.58,1,9.13,1.84,13.63c3.64,19.47,11.51,37.92,23.09,54.01c0.3,0.42,0.49,0.88,0.58,1.35c0.23,1.24-0.25,2.57-1.34,3.35
						c-1.51,1.08-3.62,0.75-4.7-0.77c-12.16-16.89-20.42-36.27-24.24-56.71c-0.88-4.72-1.53-9.49-1.94-14.3
						c-6.56-78.07,51.63-146.91,129.67-153.47c37.82-3.18,74.6,8.56,103.59,33.05c25.24,21.32,41.93,50.09,47.92,82.13
						c0.89,4.76,1.54,9.6,1.96,14.49c3.18,37.82-8.56,74.61-33.05,103.59C2979.72,926.62,2950.95,943.31,2918.9,949.3z"/>
				</g>
			</g>
			<g>
				<g class="st7">
					<path class="st3" d="M2337.47,1186.55c-2.21,0.41-4.52-0.65-5.59-2.76c-2-3.94-3.91-7.99-5.68-12.04
						c-1.15-2.63,0.06-5.7,2.7-6.85c2.63-1.16,5.7,0.06,6.85,2.7c1.68,3.86,3.5,7.72,5.41,11.48c1.3,2.56,0.28,5.69-2.28,7
						C2338.42,1186.31,2337.94,1186.46,2337.47,1186.55z"/>
					<path class="st3" d="M2322.68,1149.36c-2.59,0.48-5.18-1.06-5.94-3.64c-2.15-7.3-3.95-14.79-5.35-22.26
						c-0.29-1.57-0.57-3.15-0.84-4.74c-0.47-2.84,1.62-5.44,4.29-5.99c2.84-0.47,5.51,1.45,5.98,4.28c0.25,1.52,0.51,3.03,0.8,4.53
						c1.33,7.13,3.05,14.27,5.1,21.23c0.81,2.76-0.76,5.65-3.52,6.46C2323.02,1149.29,2322.85,1149.33,2322.68,1149.36z
						 M2313.88,1096.06c-0.24,0.05-0.49,0.08-0.74,0.09c-2.87,0.12-5.3-2.11-5.42-4.98c-0.39-9.21-0.21-18.53,0.54-27.69
						c0.23-2.87,2.76-4.99,5.61-4.76c2.87,0.23,5,2.74,4.76,5.61c-0.71,8.74-0.88,17.63-0.51,26.41
						C2318.22,1093.34,2316.38,1095.59,2313.88,1096.06z M2318.26,1042.21c-0.65,0.12-1.33,0.12-2.02-0.02
						c-2.81-0.59-4.62-3.35-4.03-6.16c1.88-9.01,4.35-18.01,7.33-26.73c0.93-2.72,3.88-4.17,6.61-3.24
						c2.72,0.93,4.17,3.89,3.24,6.61c-2.85,8.32-5.2,16.89-6.99,25.48C2321.96,1040.29,2320.27,1041.84,2318.26,1042.21z
						 M2335.75,991.09c-1.06,0.2-2.19,0.07-3.23-0.44c-2.58-1.26-3.66-4.38-2.4-6.96c4.04-8.29,8.63-16.4,13.64-24.11
						c1.57-2.41,4.79-3.08,7.2-1.52c2.41,1.57,3.09,4.79,1.52,7.2c-4.78,7.35-9.16,15.09-13.01,22.99
						C2338.73,989.8,2337.32,990.8,2335.75,991.09z M2365.2,945.79c-1.48,0.28-3.07-0.09-4.31-1.13c-2.2-1.85-2.48-5.13-0.63-7.33
						c5.93-7.05,12.35-13.8,19.08-20.06c2.1-1.96,5.4-1.84,7.35,0.26c1.96,2.11,1.84,5.4-0.26,7.35
						c-6.42,5.98-12.55,12.42-18.2,19.14C2367.42,944.99,2366.34,945.58,2365.2,945.79z M2404.74,909.02
						c-1.92,0.36-3.96-0.38-5.18-2.07c-1.68-2.33-1.16-5.58,1.17-7.26c7.46-5.4,15.34-10.38,23.39-14.8
						c2.53-1.38,5.68-0.46,7.07,2.06c1.38,2.52,0.46,5.68-2.06,7.06c-7.69,4.22-15.19,8.97-22.3,14.11
						C2406.19,908.59,2405.47,908.88,2404.74,909.02z M2452.06,883.04c-2.4,0.45-4.85-0.84-5.79-3.19c-1.06-2.67,0.25-5.7,2.92-6.76
						c8.53-3.39,17.39-6.28,26.32-8.61c2.8-0.68,5.63,0.95,6.35,3.73c0.72,2.78-0.94,5.62-3.72,6.35
						c-8.53,2.21-16.97,4.98-25.11,8.21C2452.71,882.88,2452.38,882.97,2452.06,883.04z M2531.34,867.54
						c-0.29,0.06-0.6,0.09-0.91,0.09c-7.59,0.07-15.3,0.55-22.93,1.44c-1.16,0.13-2.29,0.27-3.42,0.42
						c-2.85,0.38-5.47-1.62-5.85-4.47c-0.39-2.85,1.62-5.56,4.47-5.85c1.21-0.16,2.41-0.31,3.62-0.45
						c7.97-0.93,16.06-1.44,24.02-1.51c2.87-0.03,5.22,2.28,5.25,5.15C2535.61,864.94,2533.78,867.09,2531.34,867.54z"/>
				</g>
				<g class="st7">
					<path class="st3" d="M2576.56,1302.27c-2.79,0.52-5.49-1.3-6.06-4.09c-0.56-2.82,1.26-5.56,4.08-6.12
						c8.48-1.7,16.93-3.93,25.12-6.63c2.72-0.87,5.67,0.58,6.57,3.31c0.9,2.73-0.58,5.67-3.31,6.57
						c-8.58,2.83-17.44,5.17-26.33,6.95C2576.61,1302.26,2576.58,1302.27,2576.56,1302.27z M2550.19,1305.92
						c-0.19,0.03-0.37,0.06-0.56,0.07c-9.03,0.71-18.2,0.87-27.24,0.49c-2.87-0.12-5.1-2.55-4.98-5.42c0.12-2.88,2.56-5.1,5.42-4.98
						c8.63,0.37,17.38,0.21,25.99-0.46c2.86-0.23,5.37,1.92,5.59,4.78C2554.62,1303.08,2552.77,1305.44,2550.19,1305.92z
						 M2627,1285.6c-2.27,0.42-4.62-0.71-5.66-2.89c-1.23-2.59-0.12-5.69,2.48-6.92c7.82-3.71,15.49-7.91,22.78-12.52
						c2.44-1.53,5.64-0.81,7.18,1.63c1.53,2.43,0.81,5.64-1.62,7.18c-7.64,4.83-15.68,9.24-23.88,13.12
						C2627.86,1285.38,2627.43,1285.52,2627,1285.6z M2497.08,1303.64c-0.58,0.11-1.19,0.12-1.81,0.02
						c-8.94-1.49-17.88-3.54-26.57-6.11c-2.76-0.81-4.33-3.71-3.52-6.47c0.82-2.75,3.71-4.32,6.46-3.51
						c8.28,2.45,16.8,4.4,25.33,5.82c2.83,0.47,4.75,3.15,4.28,5.99C2500.89,1301.6,2499.17,1303.25,2497.08,1303.64z
						 M2671.92,1257.24c-1.81,0.34-3.75-0.3-4.99-1.82c-1.82-2.23-1.49-5.51,0.74-7.32c6.69-5.46,13.11-11.38,19.09-17.62
						c1.99-2.08,5.29-2.14,7.36-0.15c2.07,1.99,2.14,5.29,0.15,7.36c-6.27,6.53-13.01,12.75-20.02,18.47
						C2673.55,1256.72,2672.75,1257.08,2671.92,1257.24z M2708.72,1218.92c-1.39,0.26-2.87-0.04-4.08-0.95
						c-2.3-1.73-2.76-4.99-1.04-7.29c5.2-6.92,10.02-14.22,14.34-21.68c1.44-2.49,4.62-3.34,7.11-1.9c2.49,1.44,3.34,4.62,1.9,7.1
						c-4.52,7.83-9.58,15.48-15.02,22.73C2711.11,1218.01,2709.95,1218.69,2708.72,1218.92z M2735.28,1172.89
						c-0.97,0.18-2.01,0.09-2.99-0.33c-2.65-1.12-3.88-4.18-2.75-6.83c3.39-7.96,6.32-16.2,8.71-24.49c0.8-2.75,3.68-4.35,6.44-3.56
						c2.76,0.8,4.35,3.68,3.56,6.44c-2.51,8.69-5.58,17.33-9.13,25.68C2738.41,1171.48,2736.94,1172.58,2735.28,1172.89z"/>
					<path class="st3" d="M2445.88,1288.5c-0.99,0.18-2.04,0.09-3.03-0.34c-4.08-1.77-8.13-3.68-12.04-5.66
						c-2.56-1.3-3.59-4.43-2.29-6.99c1.3-2.55,4.43-3.58,7-2.29c3.72,1.89,7.59,3.7,11.48,5.4c2.64,1.15,3.84,4.21,2.7,6.85
						C2448.98,1287.1,2447.52,1288.19,2445.88,1288.5z"/>
				</g>
				<g>
					<path class="st3" d="M2437.78,1221.63c0.86,0.73,2.08,0.83,3.05,0.25l27.55-16.41c13.34,6.8,27.86,11.52,43.11,13.77
						l12.95,29.31c0.45,1.03,1.51,1.66,2.63,1.56l38.33-3.22c1.12-0.09,2.06-0.89,2.33-1.98l7.87-31.06
						c14.66-4.76,28.19-11.84,40.21-20.77l29.9,11.58c1.05,0.41,2.24,0.1,2.96-0.76l24.82-29.38c0.73-0.86,0.83-2.08,0.25-3.05
						l-16.41-27.55c6.8-13.34,11.52-27.86,13.77-43.11l29.31-12.95c1.03-0.45,1.66-1.51,1.56-2.63l-3.22-38.33
						c-0.09-1.12-0.89-2.06-1.98-2.33l-31.06-7.87c-4.76-14.66-11.84-28.19-20.77-40.21l11.58-29.9c0.41-1.05,0.1-2.24-0.76-2.96
						l-29.38-24.82c-0.86-0.73-2.08-0.83-3.05-0.25l-27.55,16.41c-13.34-6.8-27.86-11.52-43.11-13.77l-12.95-29.31
						c-0.45-1.03-1.51-1.66-2.63-1.56l-38.33,3.22c-1.12,0.09-2.06,0.89-2.33,1.98l-7.87,31.06c-14.66,4.76-28.19,11.84-40.21,20.77
						l-29.9-11.58c-1.05-0.41-2.24-0.1-2.96,0.76l-24.82,29.38c-0.73,0.86-0.83,2.08-0.25,3.05l16.41,27.55
						c-6.8,13.34-11.52,27.86-13.77,43.11l-29.31,12.95c-1.03,0.45-1.65,1.51-1.56,2.63l3.22,38.33c0.09,1.12,0.89,2.06,1.98,2.33
						l31.06,7.87c4.76,14.66,11.84,28.19,20.77,40.21l-11.58,29.9c-0.41,1.05-0.1,2.24,0.76,2.96L2437.78,1221.63z"/>
					<g>
						<path class="st2" d="M2539.23,1118.93c-8.25,1.54-16.74,0.41-24.42-3.34c-9.45-4.61-16.53-12.63-19.95-22.57
							c-7.06-20.52,3.9-42.95,24.42-50.01c20.56-7.03,42.96,3.9,50.02,24.42c3.42,9.94,2.76,20.62-1.85,30.06
							c-4.61,9.45-12.63,16.53-22.57,19.95C2543.02,1118.08,2541.13,1118.57,2539.23,1118.93z M2526.78,1051.76
							c-1.38,0.26-2.75,0.62-4.11,1.08c-15.09,5.19-23.15,21.7-17.96,36.79c2.51,7.31,7.72,13.21,14.67,16.6
							c6.95,3.39,14.8,3.87,22.12,1.36l0,0c7.31-2.51,13.21-7.73,16.6-14.67c3.39-6.95,3.88-14.81,1.36-22.12
							C2554.74,1057.07,2540.65,1049.16,2526.78,1051.76z"/>
					</g>
					<path class="st2" d="M2550.64,1175.89c-3.24,0.61-6.53,1.05-9.88,1.33c-6.65,0.56-13.36,0.45-19.97-0.35
						c-0.3-0.04-0.59-0.08-0.89-0.11c-2.29-0.29-4.04-2.04-4.45-4.2c-0.1-0.52-0.12-1.07-0.04-1.63c0.37-2.85,2.98-4.85,5.83-4.49
						c6.16,0.8,12.44,0.93,18.65,0.41l0,0c0.34-0.03,0.68-0.06,1.02-0.09c14.69-1.38,28.49-6.37,40.42-14.39
						c6.48-4.35,12.41-9.61,17.63-15.68c0.04-0.05,0.08-0.1,0.13-0.15c0.13-0.15,0.26-0.3,0.39-0.45
						c15.1-17.88,22.34-40.56,20.38-63.88c-0.25-3.02-0.66-6-1.21-8.93c-3.7-19.76-13.99-37.5-29.55-50.65
						c-17.88-15.1-40.56-22.34-63.88-20.38c-23.3,1.97-44.48,12.89-59.58,30.76c-15.1,17.88-22.34,40.56-20.38,63.88
						c0.25,2.97,0.65,5.91,1.19,8.82c2.36,12.61,7.45,24.55,14.95,34.97c0.46,0.64,0.76,1.35,0.89,2.08
						c0.36,1.92-0.38,3.96-2.07,5.18c-2.34,1.67-5.58,1.15-7.26-1.19c-8.39-11.65-14.09-25.02-16.73-39.12
						c-0.61-3.26-1.06-6.55-1.34-9.87c-2.19-26.09,5.91-51.47,22.8-71.47c16.9-20,40.55-32.23,66.66-34.41
						c26.09-2.2,51.47,5.9,71.47,22.8c17.41,14.71,28.93,34.55,33.06,56.66c0.61,3.28,1.07,6.62,1.35,9.99
						C2634.47,1121.85,2599.44,1166.77,2550.64,1175.89z"/>
				</g>
			</g>
		</g>
		<g>
			<g>
				<g>
					<linearGradient id="SVGID_4_" gradientUnits="userSpaceOnUse" x1="1593.6854" y1="1929.9299" x2="1626.2507" y2="1918.6407">
						<stop  offset="0" style="stop-color:#FEBBBA"/>
						<stop  offset="1" style="stop-color:#FF928E"/>
					</linearGradient>
					<path class="st8" d="M1688.18,1871.75c0,0-15.66-41.23-33.96-37.46c-18.3,3.78-38.31,17.83-38.31,17.83l-29.39,39.75
						c0,0,82.51,32.5,111.52,13.88c0,0,84.27,14.56,190.7-2.9c-15.41-32.53-24.59-65.09-29.98-90.36
						C1804.86,1843,1746.8,1865.79,1688.18,1871.75z"/>
					<linearGradient id="SVGID_5_" gradientUnits="userSpaceOnUse" x1="1825.4745" y1="1990.5951" x2="2299.6807" y2="1473.6881">
						<stop  offset="0" style="stop-color:#09005D"/>
						<stop  offset="1" style="stop-color:#1A0F91"/>
					</linearGradient>
					<path class="st9" d="M2134.59,1572.68c0,0-120.66,151.97-275.83,239.8c5.39,25.28,14.57,57.84,29.98,90.36
						c80.49-13.21,173.65-44.73,252.63-114.77L2134.59,1572.68z"/>
				</g>
				<linearGradient id="SVGID_6_" gradientUnits="userSpaceOnUse" x1="2041.9457" y1="2189.1831" x2="2516.1514" y2="1672.2766">
					<stop  offset="0" style="stop-color:#09005D"/>
					<stop  offset="1" style="stop-color:#1A0F91"/>
				</linearGradient>
				<path class="st10" d="M2285.06,2246.26c-23.6-112.08-47.19-176.97-126.2-389.42c-24.86-66.86-47.44-134.5-36.53-204.99
					l12.26-79.17c0,0,153.55-51.96,323.75-2.19c0,0,232.21,100.88,74.49,599.08C2461.73,2249.11,2378.53,2271.78,2285.06,2246.26z"
					/>
				
					<linearGradient id="SVGID_7_" gradientUnits="userSpaceOnUse" x1="996.0051" y1="1629.8381" x2="947.5424" y2="1484.4496" gradientTransform="matrix(1 0 0 1 1290.1023 0)">
					<stop  offset="0" style="stop-color:#FEBBBA"/>
					<stop  offset="1" style="stop-color:#FF928E"/>
				</linearGradient>
				<path class="st11" d="M2160.72,1471.64l39.81,95.65c2.52,6.04,7.95,10.35,14.4,11.45c22.96,3.94,78.47,10.09,114.94-13.89
					c4.34-2.86,5.45-8.76,2.48-13.03l-73.56-105.61L2160.72,1471.64z"/>
				<g>
					<linearGradient id="SVGID_8_" gradientUnits="userSpaceOnUse" x1="2149.5332" y1="1381.3008" x2="2323.718" y2="1457.0334">
						<stop  offset="0" style="stop-color:#FEBBBA"/>
						<stop  offset="1" style="stop-color:#FF928E"/>
					</linearGradient>
					<path class="st12" d="M2201.9,1325.3c-1.67,1.57-70.57,136.87-70.57,136.87l78.09,37.7l84.35-118.53
						C2293.77,1381.33,2229.89,1298.94,2201.9,1325.3z"/>
					
						<linearGradient id="SVGID_9_" gradientUnits="userSpaceOnUse" x1="5027.6309" y1="5584.3315" x2="5235.7056" y2="5584.3315" gradientTransform="matrix(-0.6854 -0.7281 -0.7281 0.6854 9787.373 1318.7853)">
						<stop  offset="0" style="stop-color:#09005D"/>
						<stop  offset="1" style="stop-color:#1A0F91"/>
					</linearGradient>
					<path class="st13" d="M2258.29,1395.56l-38.95,64.92c-0.59,0.99-1.29,1.88-2.14,2.66c-4.64,4.32-20.5,16.87-32.76-0.22
						c-10.45-14.57-20.26-27.81-30.77-33.27c-6.14-3.19-13.69-0.64-16.8,5.53c-6.42,12.72-18.85,38.64-26.65,63.23
						c-1.96,6.16,1.22,12.78,7.21,15.2c15.81,6.41,47.06,17.99,74.8,21.82c4.56,0.63,9.07-1.29,11.78-5.01
						c11.93-16.35,45.56-62.02,57.04-73.46c10.66-10.62,30.34-6.62,39.21-4.07c3.37,0.97,6.95,0.5,9.95-1.3
						c9-5.42,24.7-18.91,10.33-41.76c-3.57-5.68-1.75-13.25,3.86-16.93c10.05-6.61,20.95-19.01,10.56-39.1
						c-10.51-20.33-29.29-22.16-42.07-20.6c-5.66,0.69-11.4-2.28-13.57-7.55c-0.97-2.34-2.87-4.34-6.43-5.06
						c-6.7-1.36-11.1-7.49-9.78-14.2c2.25-11.51,0.56-26.45-17.81-36.55c-33.69-18.53-63.21,11.66-70.71,37.14
						c-7.51,25.48,30.17,43.49,53.86,46.49c17.41,2.21,26.95,21.21,30.79,31.14C2260.61,1388.22,2260.27,1392.24,2258.29,1395.56z"
						/>
					<linearGradient id="SVGID_10_" gradientUnits="userSpaceOnUse" x1="2138.6787" y1="1406.2654" x2="2312.8635" y2="1481.9979">
						<stop  offset="0" style="stop-color:#FEBBBA"/>
						<stop  offset="1" style="stop-color:#FF928E"/>
					</linearGradient>
					<path class="st14" d="M2244.63,1476.4c0,0,16.76-39.43,35.94-37.82c19.18,1.61,34.27,20.71,10.5,42.19
						C2261.51,1507.49,2244.63,1476.4,2244.63,1476.4z"/>
				</g>
				<g>
					
						<linearGradient id="SVGID_11_" gradientUnits="userSpaceOnUse" x1="2273.4514" y1="3244.5291" x2="2489.9253" y2="3244.5291" gradientTransform="matrix(-1 0 0 1 4753.7588 0)">
						<stop  offset="0" style="stop-color:#4F52FF"/>
						<stop  offset="1" style="stop-color:#4042E2"/>
					</linearGradient>
					<path class="st15" d="M2269.95,3234.06c37.08,3.21,101.45,8.41,152.19,10.65c30.5,1.34,48.06-1.64,58.17-5.69
						c-0.02,1.14-0.05,2.22-0.09,3.22c-0.24,5.34-4.58,9.61-9.97,9.91c-95.88,5.35-172.13,1.85-199.27,0.2
						c-5.61-0.34-8.96-6.44-6.09-11.23C2266.32,3238.72,2268.06,3236.38,2269.95,3234.06z"/>
					<linearGradient id="SVGID_12_" gradientUnits="userSpaceOnUse" x1="3002.8101" y1="3041.9978" x2="2218.9783" y2="3265.4082">
						<stop  offset="0" style="stop-color:#09005D"/>
						<stop  offset="1" style="stop-color:#1A0F91"/>
					</linearGradient>
					<path class="st16" d="M2422.13,3244.7c-50.74-2.23-115.1-7.44-152.19-10.65c36.46-44.73,152.19-74.88,152.19-74.88h32.68
						c22.48,32.4,25.73,63.26,25.49,79.84C2470.19,3243.06,2452.63,3246.05,2422.13,3244.7z"/>
					
						<linearGradient id="SVGID_13_" gradientUnits="userSpaceOnUse" x1="2293.4368" y1="3142.8706" x2="2354.4138" y2="3142.8706" gradientTransform="matrix(-1 0 0 1 4753.7588 0)">
						<stop  offset="0" style="stop-color:#FEBBBA"/>
						<stop  offset="1" style="stop-color:#FF928E"/>
					</linearGradient>
					<path class="st17" d="M2460.32,3105.82l-3.06,60.53c-0.33,6.55-5.24,12.06-11.8,13c-6.53,0.93-15.28,1.05-24.55-2.03
						c-5.71-1.9-9.94-6.71-11-12.57l-10.57-58.92H2460.32z"/>
				</g>
				<g>
					<g>
						
							<linearGradient id="SVGID_14_" gradientUnits="userSpaceOnUse" x1="1841.8928" y1="3239.8606" x2="1924.8486" y2="3239.8606" gradientTransform="matrix(-1 0 0 1 4753.7588 0)">
							<stop  offset="0" style="stop-color:#4F52FF"/>
							<stop  offset="1" style="stop-color:#4042E2"/>
						</linearGradient>
						<path class="st18" d="M2884.85,3244.25c16.08-2.24,23.36-10.6,26.41-19.53c0.02,0.08,0.04,0.16,0.06,0.24
							c2.37,9.42-3.12,19.18-14.09,23.83c-13.26,5.61-27.75,6.57-39,6.11c-12.07-0.5-23.15-5.49-29.24-13.49l-0.09-0.12
							C2841.03,3247.29,2858.03,3247.99,2884.85,3244.25z"/>
						<linearGradient id="SVGID_15_" gradientUnits="userSpaceOnUse" x1="2565.8367" y1="2996.5894" x2="3054.311" y2="3314.666">
							<stop  offset="0" style="stop-color:#09005D"/>
							<stop  offset="1" style="stop-color:#1A0F91"/>
						</linearGradient>
						<path class="st19" d="M2809.03,3105.43h26.95c41.06-0.84,66.84,85.76,75.28,119.29c-3.05,8.93-10.33,17.29-26.41,19.53
							c-26.82,3.74-43.83,3.04-55.94-2.96c-22.18-29.19-33.18-71.94-38.46-96.89C2784.43,3116.03,2809.03,3105.43,2809.03,3105.43z"
							/>
					</g>
					
						<linearGradient id="SVGID_16_" gradientUnits="userSpaceOnUse" x1="1905.7869" y1="3092.0391" x2="1978.6595" y2="3092.0391" gradientTransform="matrix(-1 0 0 1 4753.7588 0)">
						<stop  offset="0" style="stop-color:#FEBBBA"/>
						<stop  offset="1" style="stop-color:#FF928E"/>
					</linearGradient>
					<path class="st20" d="M2832.52,3049.25l14.97,59.53c1.84,7.3-1.66,14.85-8.41,18.31c-8.37,4.3-20.16,8.81-31,7.51
						c-5.1-0.61-9.33-4.2-11.01-9l-21.97-62.63L2832.52,3049.25z"/>
				</g>
				
					<linearGradient id="SVGID_17_" gradientUnits="userSpaceOnUse" x1="-437.4911" y1="3199.0378" x2="674.4819" y2="1661.6819" gradientTransform="matrix(-1 0 0 1 2420.7585 0)">
					<stop  offset="0" style="stop-color:#09005D"/>
					<stop  offset="1" style="stop-color:#1A0F91"/>
				</linearGradient>
				<path class="st21" d="M2850.37,3066.46c-18.62,16.52-79.19,18.7-79.19,18.7c-218.18-523.66-309.15-667.82-309.15-667.82
					c31.5,197.65,6.79,705,6.79,705c-36,15.89-82.42,0-82.42,0c-2.92-323.59-48.48-671.29-107.24-893.77
					c147.47-3.31,227.61-35.46,253.21-55.71C2655.3,2371.03,2850.37,3066.46,2850.37,3066.46z"/>
				<g>
					<path class="st22" d="M2242.01,2374.9l27.13,168.77c4.73,29.43,31.99,49.84,61.72,46.22l406.12-49.54
						c19.87-2.42,34.93-19.01,35.33-38.93c0.87-43.61-0.84-121.22-19.15-191.93L2242.01,2374.9z"/>
					<path class="st0" d="M2342.23,2578.67c-0.58,0-1.08-0.43-1.15-1.02c-0.08-0.64,0.38-1.21,1.01-1.29l9.19-1.12
						c0.66-0.1,1.21,0.38,1.29,1.01c0.08,0.64-0.38,1.21-1.01,1.29l-9.19,1.12C2342.32,2578.67,2342.28,2578.67,2342.23,2578.67z
						 M2320.75,2578.14c-0.08,0-0.17-0.01-0.26-0.03c-3.06-0.69-6.09-1.67-9-2.89c-0.59-0.25-0.87-0.93-0.62-1.52
						c0.25-0.59,0.93-0.87,1.52-0.62c2.78,1.17,5.68,2.1,8.61,2.77c0.62,0.14,1.01,0.76,0.87,1.39
						C2321.76,2577.77,2321.28,2578.14,2320.75,2578.14z M2372.88,2574.93c-0.58,0-1.08-0.43-1.15-1.02
						c-0.08-0.64,0.38-1.21,1.01-1.29l9.2-1.12c0.61-0.08,1.21,0.38,1.29,1.01c0.08,0.63-0.38,1.21-1.01,1.29l-9.2,1.12
						C2372.97,2574.93,2372.93,2574.93,2372.88,2574.93z M2403.53,2571.2c-0.58,0-1.08-0.43-1.15-1.02
						c-0.08-0.64,0.38-1.21,1.01-1.29l9.2-1.12c0.66-0.09,1.21,0.37,1.29,1.01c0.08,0.64-0.38,1.21-1.01,1.29l-9.19,1.12
						C2403.62,2571.19,2403.58,2571.2,2403.53,2571.2z M2434.18,2567.46c-0.58,0-1.08-0.43-1.15-1.02
						c-0.08-0.63,0.38-1.21,1.01-1.29l9.19-1.12c0.66-0.11,1.21,0.38,1.29,1.01c0.08,0.64-0.38,1.21-1.01,1.29l-9.19,1.12
						C2434.27,2567.45,2434.23,2567.46,2434.18,2567.46z M2464.83,2563.72c-0.58,0-1.08-0.43-1.15-1.02
						c-0.08-0.64,0.38-1.21,1.01-1.29l9.19-1.12c0.66-0.07,1.21,0.38,1.29,1.01c0.08,0.64-0.38,1.21-1.01,1.29l-9.19,1.12
						C2464.92,2563.72,2464.88,2563.72,2464.83,2563.72z M2294.26,2563.15c-0.3,0-0.61-0.12-0.84-0.36
						c-2.18-2.27-4.17-4.75-5.92-7.36c-0.36-0.53-0.21-1.25,0.32-1.61c0.52-0.36,1.25-0.22,1.61,0.32c1.68,2.5,3.58,4.87,5.67,7.05
						c0.44,0.46,0.43,1.2-0.03,1.64C2294.84,2563.04,2294.55,2563.15,2294.26,2563.15z M2495.48,2559.98
						c-0.58,0-1.08-0.43-1.15-1.02c-0.08-0.64,0.38-1.21,1.01-1.29l9.2-1.12c0.66-0.09,1.21,0.38,1.29,1.01
						c0.08,0.64-0.38,1.21-1.01,1.29l-9.19,1.12C2495.57,2559.98,2495.52,2559.98,2495.48,2559.98z M2526.13,2556.24
						c-0.58,0-1.08-0.43-1.15-1.02c-0.08-0.64,0.38-1.21,1.01-1.29l9.19-1.12c0.61-0.1,1.21,0.38,1.29,1.01
						c0.08,0.63-0.38,1.21-1.01,1.29l-9.19,1.12C2526.22,2556.24,2526.17,2556.24,2526.13,2556.24z M2556.78,2552.5
						c-0.58,0-1.08-0.43-1.15-1.02c-0.08-0.64,0.38-1.21,1.01-1.29l9.19-1.12c0.65-0.07,1.21,0.38,1.29,1.01
						c0.08,0.64-0.38,1.21-1.01,1.29l-9.19,1.12C2556.87,2552.5,2556.83,2552.5,2556.78,2552.5z M2587.43,2548.76
						c-0.58,0-1.08-0.43-1.15-1.02c-0.08-0.63,0.38-1.21,1.01-1.29l9.19-1.12c0.65-0.09,1.21,0.38,1.29,1.01
						c0.08,0.64-0.38,1.21-1.01,1.29l-9.2,1.12C2587.52,2548.76,2587.48,2548.76,2587.43,2548.76z M2618.08,2545.03
						c-0.58,0-1.08-0.43-1.15-1.02c-0.08-0.64,0.38-1.21,1.01-1.29l9.19-1.12c0.65-0.1,1.21,0.38,1.29,1.01
						c0.08,0.64-0.38,1.21-1.01,1.29l-9.19,1.12C2618.17,2545.02,2618.13,2545.03,2618.08,2545.03z M2648.73,2541.29
						c-0.58,0-1.08-0.43-1.15-1.02c-0.08-0.64,0.38-1.21,1.01-1.29l9.19-1.12c0.65-0.07,1.21,0.38,1.29,1.01
						c0.08,0.64-0.38,1.21-1.01,1.29l-9.2,1.12C2648.82,2541.28,2648.78,2541.29,2648.73,2541.29z M2679.38,2537.55
						c-0.58,0-1.08-0.43-1.15-1.02c-0.08-0.64,0.38-1.21,1.01-1.29l9.19-1.12c0.65-0.09,1.21,0.38,1.29,1.01
						c0.08,0.63-0.38,1.21-1.01,1.29l-9.19,1.12C2679.47,2537.54,2679.43,2537.55,2679.38,2537.55z M2280.45,2536.04
						c-0.55,0-1.04-0.4-1.14-0.96l-1.48-9.16c-0.1-0.63,0.33-1.22,0.96-1.33c0.64-0.11,1.22,0.33,1.33,0.96l1.48,9.13
						c0.11,0.63-0.31,1.23-0.94,1.34C2280.58,2536.03,2280.52,2536.04,2280.45,2536.04z M2710.03,2533.81
						c-0.58,0-1.08-0.43-1.15-1.02c-0.08-0.64,0.38-1.21,1.01-1.29l9.19-1.12c0.65-0.1,1.21,0.38,1.29,1.01
						c0.08,0.64-0.38,1.21-1.01,1.29l-9.19,1.12C2710.12,2533.81,2710.07,2533.81,2710.03,2533.81z M2739.92,2527.15
						c-0.4,0-0.79-0.21-1-0.59c-0.32-0.55-0.13-1.26,0.43-1.58c2.6-1.48,5.01-3.29,7.18-5.35c0.47-0.44,1.2-0.42,1.64,0.04
						c0.44,0.46,0.42,1.2-0.04,1.64c-2.31,2.2-4.88,4.11-7.64,5.68C2740.31,2527.1,2740.12,2527.15,2739.92,2527.15z
						 M2275.54,2505.56c-0.56,0-1.05-0.41-1.14-0.97l-1.47-9.15c-0.1-0.63,0.33-1.22,0.96-1.33c0.66-0.12,1.22,0.33,1.33,0.96
						l1.47,9.15c0.1,0.63-0.33,1.22-0.96,1.33C2275.66,2505.55,2275.6,2505.56,2275.54,2505.56z M2758.05,2503.21
						c-0.09,0-0.18-0.01-0.28-0.04c-0.62-0.15-1-0.78-0.85-1.4c0.65-2.63,1-5.36,1.06-8.09l0.02-0.83c0.01-0.64,0.53-1.15,1.16-1.15
						c0,0,0.01,0,0.01,0c0.64,0.01,1.15,0.53,1.15,1.17l-0.02,0.85c-0.06,2.9-0.44,5.79-1.13,8.59
						C2759.05,2502.86,2758.57,2503.21,2758.05,2503.21z M2270.64,2475.07c-0.56,0-1.05-0.4-1.14-0.97l-1.47-9.15
						c-0.1-0.63,0.33-1.22,0.96-1.33c0.65-0.1,1.22,0.33,1.33,0.96l1.47,9.15c0.1,0.63-0.33,1.22-0.96,1.33
						C2270.76,2475.07,2270.7,2475.07,2270.64,2475.07z M2759.3,2472.42c-0.64,0-1.15-0.51-1.16-1.15
						c-0.02-2.99-0.05-6.08-0.11-9.25c-0.01-0.64,0.5-1.17,1.14-1.18c0.61-0.11,1.17,0.5,1.18,1.14c0.06,3.18,0.09,6.27,0.11,9.28
						C2760.46,2471.89,2759.94,2472.41,2759.3,2472.42C2759.3,2472.42,2759.3,2472.42,2759.3,2472.42z M2265.74,2444.58
						c-0.56,0-1.05-0.4-1.14-0.97l-1.47-9.15c-0.1-0.63,0.33-1.22,0.96-1.33c0.67-0.11,1.23,0.33,1.33,0.96l1.47,9.15
						c0.1,0.63-0.33,1.22-0.96,1.33C2265.86,2444.58,2265.79,2444.58,2265.74,2444.58z M2758.56,2441.54
						c-0.62,0-1.13-0.49-1.16-1.11c-0.13-3.04-0.27-6.12-0.44-9.24c-0.04-0.64,0.45-1.19,1.09-1.22c0.72-0.07,1.18,0.46,1.22,1.09
						c0.17,3.13,0.31,6.23,0.44,9.27c0.03,0.64-0.47,1.18-1.11,1.21C2758.59,2441.54,2758.57,2441.54,2758.56,2441.54z
						 M2260.84,2414.1c-0.56,0-1.05-0.41-1.14-0.97l-1.47-9.15c-0.1-0.63,0.33-1.22,0.96-1.33c0.65-0.09,1.22,0.33,1.33,0.96
						l1.47,9.15c0.1,0.63-0.33,1.22-0.96,1.33C2260.96,2414.09,2260.9,2414.1,2260.84,2414.1z M2756.67,2410.71
						c-0.6,0-1.11-0.46-1.16-1.07c-0.24-3.05-0.51-6.12-0.8-9.22c-0.06-0.64,0.41-1.2,1.05-1.26c0.68-0.07,1.2,0.41,1.26,1.05
						c0.29,3.1,0.55,6.19,0.8,9.24c0.05,0.64-0.42,1.2-1.06,1.25C2756.74,2410.71,2756.7,2410.71,2756.67,2410.71z M2255.93,2383.61
						c-0.56,0-1.05-0.41-1.14-0.97l-1.66-10.33l4.77-0.61c0.72-0.07,1.21,0.37,1.3,1c0.08,0.64-0.37,1.21-1,1.3l-2.4,0.31l1.28,7.96
						c0.1,0.63-0.33,1.22-0.96,1.33C2256.06,2383.61,2255.99,2383.61,2255.93,2383.61z M2753.54,2379.99
						c-0.58,0-1.08-0.43-1.15-1.01c-0.38-3.05-0.79-6.1-1.21-9.17c-0.09-0.63,0.35-1.22,0.99-1.3c0.6-0.14,1.22,0.35,1.3,0.99
						c0.43,3.08,0.83,6.15,1.21,9.2c0.08,0.64-0.37,1.21-1,1.29C2753.63,2379.99,2753.58,2379.99,2753.54,2379.99z M2279.49,2371.27
						c-0.58,0-1.07-0.43-1.15-1.01c-0.08-0.64,0.37-1.21,1-1.3l9.19-1.18c0.71-0.1,1.21,0.37,1.3,1c0.08,0.64-0.37,1.21-1,1.3
						l-9.19,1.18C2279.58,2371.26,2279.53,2371.27,2279.49,2371.27z M2310.11,2367.35c-0.58,0-1.07-0.43-1.15-1.01
						c-0.08-0.64,0.37-1.21,1-1.3l9.19-1.18c0.7-0.1,1.22,0.37,1.3,1c0.08,0.64-0.37,1.21-1,1.3l-9.19,1.18
						C2310.21,2367.35,2310.16,2367.35,2310.11,2367.35z M2340.74,2363.43c-0.58,0-1.07-0.43-1.15-1.01c-0.08-0.64,0.37-1.21,1-1.3
						l9.19-1.18c0.7-0.09,1.22,0.38,1.3,1c0.08,0.64-0.37,1.21-1,1.3l-9.19,1.18C2340.83,2363.42,2340.79,2363.43,2340.74,2363.43z
						 M2371.37,2359.51c-0.58,0-1.07-0.43-1.15-1.01c-0.08-0.64,0.37-1.21,1-1.3l9.19-1.18c0.74-0.08,1.21,0.37,1.3,1
						c0.08,0.64-0.37,1.21-1,1.3l-9.19,1.18C2371.46,2359.51,2371.41,2359.51,2371.37,2359.51z M2401.99,2355.59
						c-0.58,0-1.07-0.43-1.15-1.01c-0.08-0.64,0.37-1.21,1-1.3l9.19-1.18c0.73-0.07,1.21,0.37,1.3,1c0.08,0.64-0.37,1.21-1,1.3
						l-9.19,1.18C2402.09,2355.59,2402.04,2355.59,2401.99,2355.59z M2432.62,2351.67c-0.58,0-1.07-0.43-1.15-1.01
						c-0.08-0.64,0.37-1.21,1-1.3l9.19-1.18c0.72-0.06,1.21,0.37,1.3,1c0.08,0.64-0.37,1.21-1,1.3l-9.19,1.18
						C2432.72,2351.67,2432.67,2351.67,2432.62,2351.67z M2748.96,2349.45c-0.55,0-1.04-0.4-1.14-0.96
						c-0.54-3.03-1.1-6.06-1.69-9.09c-0.12-0.63,0.29-1.23,0.92-1.36c0.62-0.14,1.23,0.29,1.36,0.92c0.6,3.04,1.16,6.08,1.7,9.13
						c0.11,0.63-0.31,1.23-0.94,1.34C2749.09,2349.45,2749.02,2349.45,2748.96,2349.45z M2463.25,2347.75
						c-0.58,0-1.07-0.43-1.15-1.01c-0.08-0.64,0.37-1.21,1-1.3l9.19-1.18c0.72-0.1,1.21,0.37,1.3,1c0.08,0.64-0.37,1.21-1,1.3
						l-9.19,1.18C2463.34,2347.75,2463.29,2347.75,2463.25,2347.75z M2493.88,2343.83c-0.58,0-1.07-0.43-1.15-1.01
						c-0.08-0.64,0.37-1.21,1-1.3l9.19-1.18c0.71-0.09,1.21,0.37,1.3,1c0.08,0.64-0.37,1.21-1,1.3l-9.19,1.18
						C2493.97,2343.83,2493.92,2343.83,2493.88,2343.83z M2524.5,2339.91c-0.58,0-1.07-0.43-1.15-1.01c-0.08-0.64,0.37-1.21,1-1.3
						l9.19-1.18c0.71-0.08,1.22,0.37,1.3,1c0.08,0.64-0.37,1.21-1,1.3l-9.19,1.18C2524.6,2339.91,2524.55,2339.91,2524.5,2339.91z
						 M2555.13,2335.99c-0.58,0-1.07-0.43-1.15-1.01c-0.08-0.64,0.37-1.21,1-1.3l9.19-1.18c0.7-0.08,1.22,0.37,1.3,1
						c0.08,0.64-0.37,1.21-1,1.3l-9.19,1.18C2555.23,2335.99,2555.18,2335.99,2555.13,2335.99z M2585.76,2332.07
						c-0.58,0-1.07-0.43-1.15-1.01c-0.08-0.64,0.37-1.21,1-1.3l9.19-1.18c0.7-0.07,1.22,0.37,1.3,1c0.08,0.64-0.37,1.21-1,1.3
						l-9.19,1.18C2585.85,2332.07,2585.8,2332.07,2585.76,2332.07z M2616.38,2328.16c-0.58,0-1.07-0.43-1.15-1.01
						c-0.08-0.64,0.37-1.21,1-1.3l9.19-1.18c0.74-0.1,1.21,0.37,1.3,1c0.08,0.64-0.37,1.21-1,1.3l-9.19,1.18
						C2616.48,2328.15,2616.43,2328.16,2616.38,2328.16z M2647.01,2324.24c-0.58,0-1.07-0.43-1.15-1.01c-0.08-0.64,0.37-1.21,1-1.3
						l9.19-1.18c0.73-0.09,1.21,0.37,1.3,1c0.08,0.64-0.37,1.21-1,1.3l-9.19,1.18C2647.11,2324.23,2647.06,2324.24,2647.01,2324.24z
						 M2677.64,2320.32c-0.58,0-1.07-0.43-1.15-1.01c-0.08-0.64,0.37-1.21,1-1.3l9.19-1.18c0.73-0.09,1.21,0.38,1.3,1
						c0.08,0.64-0.37,1.21-1,1.3l-9.19,1.18C2677.73,2320.31,2677.68,2320.32,2677.64,2320.32z M2742.67,2319.22
						c-0.52,0-1-0.36-1.13-0.89c-0.48-2-0.98-4-1.49-6l-1.01,0.13c-0.66,0.1-1.21-0.37-1.3-1c-0.08-0.64,0.37-1.21,1-1.3l3.04-0.39
						l0.25,0.99c0.61,2.33,1.19,4.67,1.76,7.02c0.15,0.62-0.23,1.25-0.85,1.4C2742.85,2319.21,2742.76,2319.22,2742.67,2319.22z
						 M2708.27,2316.4c-0.58,0-1.07-0.43-1.15-1.01c-0.08-0.64,0.37-1.21,1-1.3l9.19-1.18c0.72-0.08,1.21,0.37,1.3,1
						c0.08,0.64-0.37,1.21-1,1.3l-9.19,1.18C2708.36,2316.39,2708.31,2316.4,2708.27,2316.4z"/>
					
						<linearGradient id="SVGID_18_" gradientUnits="userSpaceOnUse" x1="27.6047" y1="2902.5032" x2="24.5992" y2="2829.6211" gradientTransform="matrix(0.9919 -0.127 0.127 0.9919 1989.9969 -609.5969)">
						<stop  offset="0" style="stop-color:#E1473D"/>
						<stop  offset="1" style="stop-color:#E9605A"/>
					</linearGradient>
					<path class="st23" d="M2345.2,2236.66l-0.45-13.23c0.98-3.3,3.56-5.87,6.87-6.84c12.39-3.63,43.29-11.18,59.83-1.83l4.2,14.9
						L2345.2,2236.66z"/>
					
						<linearGradient id="SVGID_19_" gradientUnits="userSpaceOnUse" x1="23.8027" y1="2793.0857" x2="38.8283" y2="3001.9419" gradientTransform="matrix(0.9919 -0.127 0.127 0.9919 1989.9969 -609.5969)">
						<stop  offset="0" style="stop-color:#E1473D"/>
						<stop  offset="1" style="stop-color:#E9605A"/>
					</linearGradient>
					<path class="st24" d="M2383.09,2219.03c-2.82,1.08-5.74,1.45-8.75,1.11c-3.65-0.42-6.54-3.26-7.01-6.88l-5.24-40.93l20.83-2.67
						l5.23,40.89C2388.62,2214.2,2386.53,2217.71,2383.09,2219.03z"/>
					
						<linearGradient id="SVGID_20_" gradientUnits="userSpaceOnUse" x1="230.6301" y1="2894.1443" x2="227.6246" y2="2821.2629" gradientTransform="matrix(0.9919 -0.127 0.127 0.9919 1989.9969 -609.5969)">
						<stop  offset="0" style="stop-color:#E1473D"/>
						<stop  offset="1" style="stop-color:#E9605A"/>
					</linearGradient>
					<path class="st25" d="M2546.93,2210.85l-0.45-13.23c0.98-3.3,3.56-5.87,6.87-6.84c12.39-3.63,43.29-11.18,59.83-1.83l4.2,14.9
						L2546.93,2210.85z"/>
					
						<linearGradient id="SVGID_21_" gradientUnits="userSpaceOnUse" x1="226.2825" y1="2778.5344" x2="241.3079" y2="2987.3889" gradientTransform="matrix(0.9919 -0.127 0.127 0.9919 1989.9969 -609.5969)">
						<stop  offset="0" style="stop-color:#E1473D"/>
						<stop  offset="1" style="stop-color:#E9605A"/>
					</linearGradient>
					<path class="st26" d="M2584.81,2193.22c-2.82,1.08-5.74,1.45-8.75,1.11c-3.65-0.42-6.54-3.26-7.01-6.88l-5.79-45.24l20.83-2.67
						l5.78,45.21C2590.34,2188.39,2588.25,2191.9,2584.81,2193.22z"/>
					<path class="st22" d="M2361.26,2182.63l223.03-36.08c5.08-0.82,8.95-5.06,9.18-10.18c0.33-7.17,0.07-17.8-2.94-28.48
						c-3.42-12.14-15.24-19.97-27.84-18.66c-41.91,4.35-148.28,17.99-203.94,48.69c-5.89,3.25-9.81,9.13-10.55,15.79
						c-0.71,6.35-0.65,14.7,2.37,22.81C2352.19,2180.83,2356.7,2183.37,2361.26,2182.63z"/>
					<path class="st27" d="M2355.76,2173.59c-1.4,0-2.67-0.96-3.01-2.39c-0.08-0.37-2.06-9.05-0.85-17.81
						c0.97-7.09,5.68-13.29,12.3-16.18c12.1-5.3,35.33-14.65,54.98-17.72c1.69-0.24,3.27,0.89,3.53,2.57
						c0.26,1.69-0.89,3.27-2.57,3.53c-19.67,3.08-43.94,13.11-53.46,17.28c-4.66,2.04-7.97,6.39-8.65,11.37
						c-1.06,7.65,0.73,15.5,0.75,15.57c0.39,1.66-0.65,3.32-2.31,3.71C2356.23,2173.56,2356,2173.59,2355.76,2173.59z"/>
					<path class="st22" d="M2240.63,2244.86c72.24-10.18,384.85-53.53,477.18-54.19c7.95-0.06,15.07,4.85,17.75,12.3
						c8.48,23.6,26.51,78.65,32.39,134.74c0.8,7.63-3.96,14.77-11.29,17.15l-202.53,65.83l-73.73,9.44l-226.78-15.66
						c-7.99-0.55-14.58-6.42-16-14.27c-5.04-27.96-15.73-93.7-13.56-137.17C2224.51,2253.79,2231.43,2246.16,2240.63,2244.86z"/>
					<path class="st0" d="M2479.86,2413.18c-0.03,0-0.05,0-0.08,0l-9.24-0.64c-0.64-0.05-1.12-0.6-1.08-1.23
						c0.05-0.64,0.61-1.02,1.23-1.08l9.24,0.64c0.64,0.05,1.12,0.6,1.08,1.23C2480.98,2412.71,2480.47,2413.18,2479.86,2413.18z
						 M2488.3,2412.1c-0.58,0-1.07-0.43-1.15-1.01c-0.08-0.64,0.37-1.21,1-1.3l9.19-1.18c0.73-0.1,1.21,0.37,1.3,1
						c0.08,0.64-0.37,1.21-1,1.3l-9.19,1.18C2488.4,2412.1,2488.35,2412.1,2488.3,2412.1z M2449.06,2411.05c-0.03,0-0.05,0-0.08,0
						l-9.24-0.64c-0.64-0.05-1.12-0.6-1.08-1.23c0.05-0.64,0.6-1.03,1.23-1.08l9.24,0.64c0.64,0.05,1.12,0.6,1.08,1.23
						C2450.17,2410.59,2449.67,2411.05,2449.06,2411.05z M2418.26,2408.92c-0.03,0-0.05,0-0.08,0l-9.24-0.64
						c-0.64-0.04-1.12-0.6-1.08-1.23c0.04-0.64,0.67-1.03,1.23-1.08l9.24,0.64c0.64,0.04,1.12,0.6,1.08,1.23
						C2419.37,2408.46,2418.86,2408.92,2418.26,2408.92z M2518.93,2408.18c-0.58,0-1.07-0.43-1.15-1.01c-0.08-0.64,0.37-1.21,1-1.3
						l9.19-1.18c0.72-0.09,1.21,0.37,1.3,1c0.08,0.64-0.37,1.21-1,1.3l-9.19,1.18C2519.03,2408.18,2518.98,2408.18,2518.93,2408.18z
						 M2387.45,2406.8c-0.03,0-0.05,0-0.08,0l-9.24-0.64c-0.64-0.05-1.12-0.6-1.08-1.23c0.05-0.64,0.65-1.04,1.23-1.08l9.24,0.64
						c0.64,0.05,1.12,0.6,1.08,1.23C2388.57,2406.33,2388.06,2406.8,2387.45,2406.8z M2356.65,2404.67c-0.03,0-0.05,0-0.08,0
						l-9.24-0.64c-0.64-0.05-1.12-0.6-1.08-1.23c0.05-0.64,0.64-1.04,1.23-1.08l9.24,0.64c0.64,0.05,1.12,0.6,1.08,1.23
						C2357.76,2404.2,2357.26,2404.67,2356.65,2404.67z M2549.56,2404.26c-0.58,0-1.07-0.43-1.15-1.01c-0.08-0.63,0.37-1.21,1-1.29
						l0.6-0.08l8.02-2.63c0.61-0.19,1.26,0.14,1.46,0.74c0.2,0.61-0.14,1.26-0.74,1.46l-9.05,2.8
						C2549.66,2404.26,2549.61,2404.26,2549.56,2404.26z M2325.85,2402.54c-0.03,0-0.05,0-0.08,0l-9.24-0.64
						c-0.64-0.05-1.12-0.6-1.08-1.23c0.05-0.64,0.63-1.05,1.23-1.08l9.24,0.64c0.64,0.05,1.12,0.6,1.08,1.23
						C2326.96,2402.08,2326.45,2402.54,2325.85,2402.54z M2295.04,2400.41c-0.03,0-0.05,0-0.08,0l-9.24-0.64
						c-0.64-0.04-1.12-0.6-1.08-1.23c0.05-0.64,0.62-1.06,1.23-1.08l9.24,0.64c0.64,0.04,1.12,0.6,1.08,1.23
						C2296.15,2399.95,2295.65,2400.41,2295.04,2400.41z M2264.24,2398.29c-0.03,0-0.05,0-0.08,0l-9.86-0.68l-0.16-0.88
						c-0.12-0.63,0.27-1.37,0.9-1.48c0.34-0.08,0.67-0.01,0.92,0.16l8.36,0.58c0.64,0.04,1.12,0.6,1.08,1.23
						C2265.35,2397.82,2264.84,2398.29,2264.24,2398.29z M2578.95,2394.82c-0.49,0-0.94-0.31-1.1-0.8c-0.2-0.61,0.14-1.26,0.74-1.46
						l8.81-2.86c0.6-0.18,1.26,0.14,1.46,0.74c0.2,0.61-0.14,1.26-0.74,1.46l-8.81,2.86
						C2579.19,2394.8,2579.07,2394.82,2578.95,2394.82z M2608.32,2385.28c-0.49,0-0.94-0.31-1.1-0.8c-0.2-0.61,0.14-1.26,0.74-1.46
						l8.81-2.86c0.62-0.18,1.26,0.14,1.46,0.74c0.2,0.61-0.14,1.26-0.74,1.46l-8.81,2.86
						C2608.56,2385.26,2608.43,2385.28,2608.32,2385.28z M2251.61,2376.07c-0.56,0-1.05-0.4-1.14-0.98
						c-0.47-2.93-0.95-5.99-1.43-9.17c-0.1-0.63,0.34-1.22,0.97-1.32c0.66-0.06,1.22,0.34,1.32,0.97c0.48,3.17,0.95,6.23,1.42,9.16
						c0.1,0.63-0.33,1.22-0.96,1.32C2251.73,2376.06,2251.66,2376.07,2251.61,2376.07z M2637.68,2375.74c-0.49,0-0.94-0.31-1.1-0.8
						c-0.2-0.61,0.14-1.26,0.74-1.46l8.81-2.86c0.61-0.19,1.26,0.13,1.46,0.74c0.2,0.61-0.14,1.26-0.74,1.46l-8.81,2.86
						C2637.92,2375.72,2637.8,2375.74,2637.68,2375.74z M2667.04,2366.19c-0.49,0-0.94-0.31-1.1-0.8c-0.2-0.61,0.14-1.26,0.74-1.46
						l8.81-2.86c0.61-0.19,1.26,0.14,1.46,0.74c0.2,0.61-0.13,1.26-0.74,1.46l-8.81,2.86
						C2667.28,2366.17,2667.16,2366.19,2667.04,2366.19z M2696.41,2356.65c-0.49,0-0.94-0.31-1.1-0.8c-0.2-0.61,0.14-1.26,0.74-1.46
						l8.81-2.86c0.61-0.21,1.26,0.14,1.46,0.74c0.2,0.61-0.14,1.26-0.74,1.46l-8.81,2.86
						C2696.65,2356.63,2696.53,2356.65,2696.41,2356.65z M2725.77,2347.11c-0.49,0-0.94-0.31-1.1-0.8c-0.2-0.61,0.14-1.26,0.74-1.46
						l8.81-2.86c0.6-0.2,1.26,0.14,1.46,0.74c0.2,0.61-0.13,1.26-0.74,1.46l-8.81,2.86
						C2726.02,2347.09,2725.89,2347.11,2725.77,2347.11z M2247.15,2345.49c-0.57,0-1.07-0.42-1.15-1.01
						c-0.4-3.03-0.78-6.11-1.15-9.21c-0.08-0.64,0.38-1.21,1.01-1.29c0.64-0.07,1.21,0.38,1.29,1.01c0.37,3.09,0.76,6.16,1.15,9.18
						c0.08,0.64-0.37,1.22-1,1.3C2247.25,2345.49,2247.2,2345.49,2247.15,2345.49z M2749.22,2333.76c-0.58,0-1.08-0.43-1.15-1.02
						c-0.38-3.06-0.79-6.11-1.23-9.16c-0.09-0.64,0.35-1.22,0.98-1.31c0.64-0.13,1.22,0.35,1.31,0.98c0.44,3.06,0.86,6.13,1.24,9.21
						c0.08,0.64-0.37,1.21-1.01,1.29C2749.31,2333.76,2749.26,2333.76,2749.22,2333.76z M2243.74,2314.78
						c-0.59,0-1.1-0.45-1.15-1.06c-0.28-3.09-0.53-6.18-0.76-9.25c-0.05-0.64,0.43-1.19,1.07-1.24c0.72,0.06,1.19,0.43,1.24,1.07
						c0.23,3.06,0.48,6.14,0.76,9.22c0.06,0.64-0.41,1.2-1.05,1.25C2243.81,2314.78,2243.77,2314.78,2243.74,2314.78z
						 M2744.36,2303.27c-0.54,0-1.03-0.39-1.14-0.94c-0.6-3.05-1.21-6.07-1.84-9.06c-0.13-0.63,0.27-1.24,0.89-1.37
						c0.65-0.13,1.24,0.27,1.37,0.89c0.64,3,1.25,6.04,1.84,9.1c0.12,0.63-0.29,1.23-0.92,1.36
						C2744.5,2303.26,2744.43,2303.27,2744.36,2303.27z M2241.88,2283.95c-0.63,0-1.14-0.5-1.16-1.13
						c-0.06-2.51-0.09-4.97-0.09-7.39l0.01-1.91c0-0.64,0.52-1.15,1.16-1.15c0,0,0,0,0.01,0c0.64,0,1.16,0.53,1.15,1.17l-0.01,1.89
						c0,2.4,0.03,4.85,0.09,7.34c0.01,0.64-0.49,1.17-1.13,1.19C2241.9,2283.95,2241.89,2283.95,2241.88,2283.95z M2737.65,2273.12
						c-0.52,0-0.99-0.35-1.12-0.88c-0.76-3.04-1.53-6.03-2.31-8.96c-0.16-0.62,0.2-1.25,0.82-1.42c0.62-0.15,1.25,0.2,1.42,0.82
						c0.78,2.93,1.55,5.94,2.31,8.99c0.15,0.62-0.22,1.25-0.84,1.4C2737.84,2273.11,2737.74,2273.12,2737.65,2273.12z
						 M2253.31,2262.45c-0.57,0-1.07-0.42-1.15-1c-0.09-0.64,0.35-1.22,0.98-1.31l9.18-1.28c0.61-0.13,1.22,0.35,1.3,0.99
						c0.09,0.63-0.35,1.22-0.99,1.3l-9.18,1.28C2253.41,2262.45,2253.36,2262.45,2253.31,2262.45z M2283.9,2258.2
						c-0.57,0-1.07-0.42-1.15-1c-0.09-0.63,0.36-1.22,0.99-1.3l9.18-1.26c0.61-0.13,1.21,0.35,1.3,0.99
						c0.09,0.63-0.36,1.22-0.99,1.3l-9.18,1.26C2284.01,2258.2,2283.96,2258.2,2283.9,2258.2z M2314.51,2254.01
						c-0.57,0-1.07-0.42-1.15-1c-0.09-0.63,0.36-1.21,0.99-1.3l9.19-1.24c0.65-0.07,1.22,0.36,1.3,0.99
						c0.09,0.63-0.36,1.22-0.99,1.3l-9.18,1.24C2314.62,2254,2314.56,2254.01,2314.51,2254.01z M2345.12,2249.88
						c-0.57,0-1.07-0.42-1.15-1c-0.08-0.64,0.36-1.22,0.99-1.3l9.19-1.23c0.66-0.11,1.21,0.36,1.3,0.99
						c0.08,0.64-0.36,1.22-0.99,1.3l-9.19,1.23C2345.22,2249.88,2345.17,2249.88,2345.12,2249.88z M2375.74,2245.81
						c-0.57,0-1.07-0.42-1.15-1.01c-0.08-0.63,0.36-1.21,1-1.3l9.19-1.21c0.64-0.08,1.22,0.37,1.3,1c0.08,0.64-0.37,1.21-1,1.3
						l-9.19,1.21C2375.84,2245.81,2375.79,2245.81,2375.74,2245.81z M2729.46,2243.33c-0.5,0-0.96-0.33-1.11-0.83
						c-0.92-3.08-1.83-6.03-2.72-8.84c-0.19-0.61,0.14-1.26,0.75-1.45c0.63-0.21,1.26,0.15,1.45,0.75c0.89,2.82,1.8,5.78,2.73,8.88
						c0.18,0.61-0.16,1.26-0.78,1.44C2729.68,2243.31,2729.57,2243.33,2729.46,2243.33z M2406.37,2241.8
						c-0.58,0-1.07-0.42-1.15-1.01c-0.08-0.63,0.37-1.21,1-1.3l9.19-1.19c0.62-0.08,1.21,0.37,1.3,1c0.08,0.64-0.37,1.21-1,1.3
						l-9.19,1.19C2406.47,2241.8,2406.42,2241.8,2406.37,2241.8z M2437,2237.88c-0.58,0-1.07-0.43-1.15-1.01
						c-0.08-0.63,0.37-1.21,1-1.29l9.19-1.16c0.65-0.1,1.22,0.37,1.29,1c0.08,0.64-0.37,1.21-1,1.29l-9.19,1.16
						C2437.1,2237.87,2437.05,2237.88,2437,2237.88z M2467.64,2234.03c-0.58,0-1.08-0.43-1.15-1.02c-0.08-0.64,0.37-1.21,1.01-1.29
						l9.19-1.14c0.68-0.1,1.21,0.38,1.29,1.01c0.08,0.64-0.37,1.21-1.01,1.29l-9.19,1.14
						C2467.73,2234.02,2467.68,2234.03,2467.64,2234.03z M2498.28,2230.27c-0.58,0-1.08-0.43-1.15-1.02
						c-0.08-0.63,0.38-1.21,1.01-1.29l9.19-1.11c0.68-0.1,1.21,0.38,1.29,1.01c0.08,0.64-0.38,1.21-1.01,1.29l-9.2,1.11
						C2498.38,2230.27,2498.33,2230.27,2498.28,2230.27z M2528.95,2226.62c-0.58,0-1.08-0.43-1.15-1.02
						c-0.08-0.64,0.38-1.21,1.01-1.28l9.2-1.07c0.66-0.1,1.21,0.38,1.28,1.01c0.08,0.64-0.38,1.21-1.01,1.28l-9.2,1.07
						C2529.04,2226.62,2528.99,2226.62,2528.95,2226.62z M2559.63,2223.11c-0.58,0-1.08-0.44-1.15-1.03
						c-0.07-0.64,0.39-1.21,1.02-1.28l9.21-1.02c0.7-0.03,1.21,0.4,1.28,1.03c0.07,0.64-0.39,1.2-1.03,1.28l-9.2,1.02
						C2559.71,2223.11,2559.67,2223.11,2559.63,2223.11z M2590.32,2219.76c-0.59,0-1.09-0.44-1.15-1.04
						c-0.07-0.64,0.4-1.2,1.03-1.27l9.21-0.97c0.69-0.02,1.21,0.4,1.27,1.03c0.07,0.64-0.4,1.21-1.03,1.27l-9.21,0.97
						C2590.4,2219.75,2590.36,2219.76,2590.32,2219.76z M2621.04,2216.62c-0.59,0-1.09-0.45-1.15-1.05c-0.06-0.64,0.4-1.2,1.04-1.26
						l9.22-0.89c0.65-0.09,1.2,0.41,1.26,1.04c0.06,0.64-0.41,1.2-1.04,1.26l-9.22,0.89
						C2621.12,2216.62,2621.08,2216.62,2621.04,2216.62z M2719.92,2213.95c-0.48,0-0.93-0.3-1.09-0.77l-1.18-3.32
						c-1.35,0.01-2.75,0.03-4.21,0.06c-0.01,0-0.02,0-0.02,0c-0.63,0-1.15-0.5-1.16-1.14c-0.01-0.64,0.49-1.17,1.14-1.18
						c1.58-0.03,3.09-0.06,4.55-0.06c0.8,0,1.5,0.46,1.74,1.14l1.33,3.73c0.21,0.6-0.11,1.26-0.71,1.48
						C2720.18,2213.92,2720.05,2213.95,2719.92,2213.95z M2651.79,2213.77c-0.6,0-1.1-0.45-1.15-1.06c-0.06-0.64,0.41-1.2,1.05-1.25
						c3.16-0.27,6.24-0.53,9.24-0.78c0.64-0.04,1.19,0.42,1.25,1.06c0.05,0.64-0.42,1.2-1.06,1.25c-2.99,0.24-6.07,0.5-9.22,0.77
						C2651.86,2213.77,2651.82,2213.77,2651.79,2213.77z M2682.58,2211.39c-0.61,0-1.12-0.47-1.16-1.08
						c-0.04-0.64,0.44-1.19,1.08-1.23c3.21-0.21,6.3-0.41,9.26-0.57c0.69-0.1,1.19,0.45,1.22,1.09c0.04,0.64-0.45,1.19-1.09,1.22
						c-2.95,0.17-6.03,0.36-9.24,0.57C2682.63,2211.39,2682.6,2211.39,2682.58,2211.39z"/>
					<path class="st22" d="M2551.14,2452.54l-64.59,8.27c-8.46,1.08-16.4-4.3-18.47-12.54l-15.42-61.2
						c-2.46-9.75,4.2-19.45,14.22-20.74l77.6-9.93c9.81-1.26,18.59,6.14,18.97,15.98l2.41,62.86
						C2566.19,2443.92,2559.8,2451.43,2551.14,2452.54z"/>
					
						<linearGradient id="SVGID_22_" gradientUnits="userSpaceOnUse" x1="91.5888" y1="3060.4751" x2="176.7848" y2="3060.4751" gradientTransform="matrix(0.9919 -0.127 0.127 0.9919 1989.9969 -609.5969)">
						<stop  offset="0" style="stop-color:#FF928E"/>
						<stop  offset="1" style="stop-color:#FE7062"/>
					</linearGradient>
					<path class="st28" d="M2541.73,2442.12l-49.16,6.29c-6.44,0.82-12.48-3.27-14.06-9.54l-11.73-46.58
						c-1.87-7.42,3.2-14.81,10.82-15.78l59.06-7.56c7.47-0.96,14.15,4.67,14.44,12.16l1.84,47.85
						C2553.18,2435.57,2548.33,2441.28,2541.73,2442.12z"/>
				</g>
				<linearGradient id="SVGID_23_" gradientUnits="userSpaceOnUse" x1="2561.4456" y1="1982.0077" x2="2396.4287" y2="2299.3486">
					<stop  offset="0" style="stop-color:#FEBBBA"/>
					<stop  offset="1" style="stop-color:#FF928E"/>
				</linearGradient>
				<path class="st29" d="M2503.32,1946.81c15.24,62.95,15.64,124.54,13.32,146.97c-0.87,8.45-7.67,15.06-16.15,15.65
					c-9.63,0.67-22.74,1.56-34.45,2.23c-12.88,0.74-27.17-7.4-36.73-14.2c-4.88-3.47-11.19,1.93-8.47,7.27
					c4.69,9.19,12.85,16.42,20.94,22.57c4.87,3.7,21.05,10.27,19.92,17.56c-0.36,2.3-1.74,4.3-3.23,6.09
					c-8.99,10.79-22.6,16.55-36.03,20.68c-1.68,0.52-3.46,1.07-4.65,2.37c-0.33,8.69,26.38,18.33,33.27,20.62
					c10.33,3.43,21.28,4.88,32.13,3.74c26.88-2.83,51.7-21.38,66.18-43.75c38.7-59.8,58.71-132.02,66.02-187.25
					C2579.41,1931.36,2525.06,1940.48,2503.32,1946.81z"/>
				<g>
					<linearGradient id="SVGID_24_" gradientUnits="userSpaceOnUse" x1="2112.5193" y1="2253.9265" x2="2586.7236" y2="1737.0214">
						<stop  offset="0" style="stop-color:#09005D"/>
						<stop  offset="1" style="stop-color:#1A0F91"/>
					</linearGradient>
					<path class="st30" d="M2615.42,1973.04c28.71-216.9-138.44-383.68-138.44-383.68l-99.45,115.94
						c75.5,94.11,111.4,180.35,127.79,248.08C2527.06,1947.05,2579.41,1937.04,2615.42,1973.04z"/>
					<linearGradient id="SVGID_25_" gradientUnits="userSpaceOnUse" x1="2457.1382" y1="1750.9058" x2="2567.2615" y2="1317.1541">
						<stop  offset="0" style="stop-color:#09005D"/>
						<stop  offset="1" style="stop-color:#1A0F91"/>
					</linearGradient>
					<path class="st31" d="M2502.95,1952.32c-2.78,0-5.3-1.89-5.98-4.71c-20.21-83.5-62.81-166.16-126.6-245.68
						c-2.13-2.65-1.71-6.53,0.95-8.66c2.65-2.12,6.53-1.7,8.66,0.95c64.94,80.95,108.33,165.23,128.97,250.49
						c0.8,3.31-1.23,6.63-4.54,7.43C2503.91,1952.26,2503.43,1952.32,2502.95,1952.32z"/>
				</g>
			</g>
			<g>
				<g>
					
						<linearGradient id="SVGID_26_" gradientUnits="userSpaceOnUse" x1="-276.0462" y1="3187.5869" x2="-134.037" y2="3187.5869" gradientTransform="matrix(1 0 0 1 1290.1023 0)">
						<stop  offset="0" style="stop-color:#09005D"/>
						<stop  offset="1" style="stop-color:#1A0F91"/>
					</linearGradient>
					<path class="st32" d="M1156.06,3238.15c0.02-1.06-0.05-2.13-0.33-3.21c-15.99-63.41-95.38-102.91-95.38-102.91l-31.46,2.47
						c-18.09,55.89-15.76,90.17-12.86,105.43c0.08,0.43,0.21,0.84,0.32,1.25C1042.32,3243.5,1095.73,3245.02,1156.06,3238.15z"/>
					
						<linearGradient id="SVGID_27_" gradientUnits="userSpaceOnUse" x1="79.4665" y1="3020.0562" x2="-437.1673" y2="3425.7185" gradientTransform="matrix(1 0 0 1 1290.1023 0)">
						<stop  offset="0" style="stop-color:#4F52FF"/>
						<stop  offset="1" style="stop-color:#4042E2"/>
					</linearGradient>
					<path class="st33" d="M1016.37,3241.19c1.4,5.1,5.16,9.07,9.98,10.08c36.91,7.76,95.58,1.52,120.22-1.7
						c5.43-0.71,9.41-5.74,9.5-11.41C1095.73,3245.02,1042.32,3243.5,1016.37,3241.19z"/>
					
						<linearGradient id="SVGID_28_" gradientUnits="userSpaceOnUse" x1="-236.5548" y1="3025.9158" x2="-263.6809" y2="3262.6543" gradientTransform="matrix(1 0 0 1 1290.1023 0)">
						<stop  offset="0" style="stop-color:#FEBBBA"/>
						<stop  offset="1" style="stop-color:#FF928E"/>
					</linearGradient>
					<path class="st34" d="M1016.25,3087.65l13.32,64.14c0.98,4.7,4.59,8.22,8.96,8.63c5.35,0.5,12.98,0.8,20.64-0.33
						c6.87-1.01,11.66-7.99,10.44-15.49l-9.26-56.95H1016.25z"/>
					
						<linearGradient id="SVGID_29_" gradientUnits="userSpaceOnUse" x1="171.2437" y1="3136.7712" x2="-345.3909" y2="3542.4341" gradientTransform="matrix(1 0 0 1 1290.1023 0)">
						<stop  offset="0" style="stop-color:#4F52FF"/>
						<stop  offset="1" style="stop-color:#4042E2"/>
					</linearGradient>
					<path class="st35" d="M1292.3,3240.37c-34.74-0.97-52.71-5.06-62-8.86c-0.02,3.45,0,6.97,0.11,10.61c0.12,3.89,3,7,6.55,6.98
						l190.76-1.23c6.09-0.04,9.64-7.1,7.01-12.68C1409.71,3237.25,1346.01,3241.88,1292.3,3240.37z"/>
					
						<linearGradient id="SVGID_30_" gradientUnits="userSpaceOnUse" x1="-59.804" y1="3191.1963" x2="144.6163" y2="3191.1963" gradientTransform="matrix(1 0 0 1 1290.1023 0)">
						<stop  offset="0" style="stop-color:#09005D"/>
						<stop  offset="1" style="stop-color:#1A0F91"/>
					</linearGradient>
					<path class="st36" d="M1434.72,3235.19c-0.23-0.49-0.43-0.98-0.76-1.44c-16.85-23.54-59.75-70.41-144.54-90.74l-40.67-1.28
						c0,0-18.11,31.48-18.45,89.79c9.29,3.8,27.26,7.89,62,8.86C1346.01,3241.88,1409.71,3237.25,1434.72,3235.19z"/>
					
						<linearGradient id="SVGID_31_" gradientUnits="userSpaceOnUse" x1="89.2825" y1="2996.7639" x2="62.1559" y2="3233.5061" gradientTransform="matrix(0.998 -0.0629 0.0629 0.998 993.2088 65.7657)">
						<stop  offset="0" style="stop-color:#FEBBBA"/>
						<stop  offset="1" style="stop-color:#FF928E"/>
					</linearGradient>
					<path class="st37" d="M1239.4,3081.97c0.64,3,9.11,48.63,12.38,66.33c0.78,4.2,4.05,7.29,7.95,7.51
						c6.96,0.39,18.2,0.44,27.86-2.19c5.21-1.42,8.71-6.73,8.34-12.62l-4.55-72.19L1239.4,3081.97z"/>
					<linearGradient id="SVGID_32_" gradientUnits="userSpaceOnUse" x1="1285.5208" y1="2160.9644" x2="832.5795" y2="3594.5002">
						<stop  offset="0" style="stop-color:#09005D"/>
						<stop  offset="1" style="stop-color:#1A0F91"/>
					</linearGradient>
					<path class="st38" d="M1208.58,2239.33c0,0,55.95,384.47,96.33,841.98c0.75,8.52-6.04,15.94-14.41,17.7
						c-12.34,2.6-30.47,5.68-45.48,5.26c-8.01-0.22-14.71-6.17-16.06-14.07c-13.75-80.67-111.91-513.6-137.67-608.88
						c0,0-29.59,404.74-20.13,614.72c0.24,5.22-3.59,9.75-8.78,10.35c-7.88,0.91-20.48,1.6-36.51-0.1
						c-6.09-0.65-11-5.25-11.87-11.31c-9.8-68.27-66.19-474.64-63.79-767.38c0.14-16.51,19.37-152.14,19.37-152.14L1208.58,2239.33z
						"/>
				</g>
				<path class="st22" d="M961.17,2261.49c-5.75-2.04-9.76-7.26-10.39-13.33c-7.44-72.19-43.47-519.76,183.97-703.88
					c0,0,13.04-34.13,120.25,49.76c107.21,83.88,49.81,171.81,24.14,293.08c-31.06,146.75-85.56,266.71-61.44,357.02
					c1.66,6.23-1.61,12.78-7.67,15.01C1126.75,2289.84,1043.8,2290.85,961.17,2261.49z"/>
				<linearGradient id="SVGID_33_" gradientUnits="userSpaceOnUse" x1="1105.1306" y1="1578.342" x2="1293.9136" y2="1465.9713">
					<stop  offset="0" style="stop-color:#FEBBBA"/>
					<stop  offset="1" style="stop-color:#FF928E"/>
				</linearGradient>
				<path class="st39" d="M1223.47,1410.17c-0.07,6.37-90.89,135.36-90.89,135.36s16.3,32.1,94.12,58.17l67.18-138.12
					L1223.47,1410.17z"/>
				<g>
					<linearGradient id="SVGID_34_" gradientUnits="userSpaceOnUse" x1="1311.0677" y1="1502.5952" x2="1200.886" y2="1340.6957">
						<stop  offset="0" style="stop-color:#FEBBBA"/>
						<stop  offset="1" style="stop-color:#FF928E"/>
					</linearGradient>
					<path class="st40" d="M1294.97,1336.26c0,0,32.31,74.23,34.49,113.2c2.17,38.96,10.57,64.24-34.49,72.09
						c-45.05,7.85-83-14.6-103.56-53.41c0,0-32.21-59.8-24.99-84.29C1173.65,1359.35,1294.97,1336.26,1294.97,1336.26z"/>
					<linearGradient id="SVGID_35_" gradientUnits="userSpaceOnUse" x1="1106.8945" y1="1220.5349" x2="1262.6603" y2="1402.9731">
						<stop  offset="0" style="stop-color:#09005D"/>
						<stop  offset="1" style="stop-color:#1A0F91"/>
					</linearGradient>
					<path class="st41" d="M1206.8,1440.23l2.56-1.13c3.26-1.44,4.66-5.33,3.02-8.49c-6.35-12.27-18.74-40.4-2.74-46.96
						c20.62-8.46,102.29-25.11,119.91-54.09c16.94-27.85,1.93-63.81-20.62-74.03c-1.51-0.68-3.29-0.14-4.06,1.32l-1.88,3.56
						c-1.29,2.43-4.88,2.07-5.65-0.58l0,0c-0.73-2.54-4.11-3.03-5.51-0.79c-5.42,8.67-20.04,22.73-59.15,29.94
						c-55.58,10.26-92.32,32.75-93.24,71.15c-0.06,2.44-2.65,3.8-4.74,2.53c-4.1-2.5-10.67-3.67-19.45,3.71
						c-15.26,12.83-9.02,46.13,24.44,73.51c1.59,1.3,1.58,3.78-0.14,4.9c-6.07,3.95-15.11,13.34,8.32,25.87
						c24.24,12.96,42.33,11.89,49.3,10.74c1.73-0.29,2.85-1.96,2.47-3.68l-7.44-33.75c-0.42-1.91,1.03-3.72,2.99-3.72H1206.8z"/>
					<linearGradient id="SVGID_36_" gradientUnits="userSpaceOnUse" x1="1257.6084" y1="1538.9775" x2="1147.4849" y2="1377.1636">
						<stop  offset="0" style="stop-color:#FEBBBA"/>
						<stop  offset="1" style="stop-color:#FF928E"/>
					</linearGradient>
					<path class="st42" d="M1208.2,1447.35c0,0-12.33-47.42-33.59-34.12c-21.26,13.3,11.03,53.13,28.12,54.91L1208.2,1447.35z"/>
				</g>
				<g>
					<path class="st22" d="M1289.49,1632.96l6.26,168.17c17.79,6.12,34.72,10.88,50.84,14.44c10.09-32.47,32.29-72.32,50.48-101.95
						C1330.26,1690,1289.49,1632.96,1289.49,1632.96z"/>
					<linearGradient id="SVGID_37_" gradientUnits="userSpaceOnUse" x1="1744.0546" y1="1615.9733" x2="1347.7385" y2="1813.1185">
						<stop  offset="0" style="stop-color:#FEBBBA"/>
						<stop  offset="1" style="stop-color:#FF928E"/>
					</linearGradient>
					<path class="st43" d="M1623.06,1630.1c-91.65,98.95-165.83,104.78-225.99,83.51c-18.18,29.63-40.39,69.48-50.48,101.95
						c244.75,53.96,302.38-171.04,302.38-171.04L1623.06,1630.1z"/>
					<linearGradient id="SVGID_38_" gradientUnits="userSpaceOnUse" x1="1738.2527" y1="1566.5283" x2="1602.6919" y2="1708.1143">
						<stop  offset="0" style="stop-color:#FEBBBA"/>
						<stop  offset="1" style="stop-color:#FF928E"/>
					</linearGradient>
					<path class="st44" d="M1641.64,1619.59c0,0,10.56-11.34,30.1-7.77c19.54,3.56,36.93,10.35,49.11,0
						c12.17-10.35,16.45,3.54,16.45,3.54l-36.45,27.71L1641.64,1619.59z"/>
					<linearGradient id="SVGID_39_" gradientUnits="userSpaceOnUse" x1="1745.9384" y1="1613.6368" x2="1349.6238" y2="1810.7814">
						<stop  offset="0" style="stop-color:#FEBBBA"/>
						<stop  offset="1" style="stop-color:#FF928E"/>
					</linearGradient>
					<path class="st45" d="M1619.84,1638.97c0,0,7.23-30.25,29.03-26.1c21.8,4.15,71.29,31.06,84.04,26.1
						c12.75-4.96,29.06-16.82,37.43-12.63l-14.74,18.32c0,0,37.89-21.86,44.41-8.43l-63.05,35.48
						C1736.98,1671.72,1644.74,1662.48,1619.84,1638.97z"/>
				</g>
				<linearGradient id="SVGID_40_" gradientUnits="userSpaceOnUse" x1="1911.553" y1="1948.1381" x2="761.4111" y2="1740.1605">
					<stop  offset="0" style="stop-color:#FEBBBA"/>
					<stop  offset="1" style="stop-color:#FF928E"/>
				</linearGradient>
				<path class="st46" d="M1187.75,1853.06c0,0,172.31,144.31,358.37,81.34c11.54-3.91,24.16-3.06,34.93,2.63l53.49,28.25
					c22.45,11.86,50.26,4.07,63.28-17.72c7.43-12.43,13.77-26.63,15.03-40.23l-104.67-42.37l7.72-12.83c0,0-51.1-4.33-64.48,32.3
					c0,0-97.34,40.49-261.49-140.07C1289.94,1744.35,1215.45,1807.69,1187.75,1853.06z"/>
				<linearGradient id="SVGID_41_" gradientUnits="userSpaceOnUse" x1="1348.0304" y1="1443.7206" x2="845.0705" y2="2214.6328">
					<stop  offset="0" style="stop-color:#E1473D"/>
					<stop  offset="1" style="stop-color:#E9605A"/>
				</linearGradient>
				<path class="st47" d="M1178.48,1851.57c-0.57,0-1.14-0.16-1.65-0.51c-72.55-49.02-106.68-128.14-107.02-128.93
					c-0.63-1.5,0.07-3.23,1.56-3.87c1.5-0.64,3.23,0.06,3.87,1.56c0.33,0.78,33.83,78.33,104.89,126.35
					c1.35,0.91,1.71,2.74,0.79,4.1C1180.35,1851.11,1179.42,1851.57,1178.48,1851.57z"/>
				<linearGradient id="SVGID_42_" gradientUnits="userSpaceOnUse" x1="1341.0541" y1="1439.1687" x2="838.0923" y2="2210.0837">
					<stop  offset="0" style="stop-color:#E1473D"/>
					<stop  offset="1" style="stop-color:#E9605A"/>
				</linearGradient>
				<path class="st48" d="M1286.54,1741.91c-0.97,0-1.92-0.48-2.48-1.35c-0.22-0.34-22.38-34.84-64.6-110.43
					c-12.98-23.24-30.04-37.96-50.71-43.75c-34.22-9.56-67.21,8.79-67.53,8.97c-1.42,0.78-3.21,0.31-4.02-1.11
					c-0.8-1.42-0.31-3.21,1.11-4.02c1.42-0.81,35.35-19.79,71.98-9.53c22.26,6.21,40.54,21.87,54.32,46.56
					c42.11,75.4,64.19,109.78,64.41,110.12c0.88,1.37,0.49,3.19-0.88,4.07C1287.64,1741.76,1287.09,1741.91,1286.54,1741.91z"/>
			</g>
		</g>
	</g>
</g>
</svg>
