<?xml version="1.0" encoding="utf-8"?>
<!-- Generator: Adobe Illustrator 24.2.3, SVG Export Plug-In . SVG Version: 6.00 Build 0)  -->
<svg version="1.1" xmlns="http://www.w3.org/2000/svg" xmlns:xlink="http://www.w3.org/1999/xlink" x="0px" y="0px"
	 viewBox="0 0 3710 3710" style="enable-background:new 0 0 3710 3710;" xml:space="preserve">
<style type="text/css">
	.st0{fill:#FFFFFF;}
	.st1{fill:url(#SVGID_1_);}
	.st2{fill:url(#SVGID_2_);}
	.st3{opacity:0.21;fill:#91B3FA;}
	.st4{fill:url(#SVGID_3_);}
	.st5{fill:#7D97F4;}
	.st6{fill:url(#SVGID_4_);}
	.st7{fill:#91B3FA;}
	.st8{opacity:0.51;fill:#FFFFFF;}
	.st9{opacity:0.51;}
	.st10{opacity:0.7;fill:#FFFFFF;}
	.st11{fill:#EF7B14;}
	.st12{opacity:0.61;fill:#FFFFFF;}
	.st13{fill:url(#SVGID_5_);}
	.st14{fill:url(#SVGID_6_);}
	.st15{fill:url(#SVGID_7_);}
	.st16{fill:url(#SVGID_8_);}
	.st17{fill:url(#SVGID_9_);}
	.st18{fill:url(#SVGID_10_);}
	.st19{fill:url(#SVGID_11_);}
	.st20{fill:url(#SVGID_12_);}
	.st21{fill:url(#SVGID_13_);}
	.st22{fill:url(#SVGID_14_);}
	.st23{fill:url(#SVGID_15_);}
	.st24{fill:url(#SVGID_16_);}
	.st25{fill:url(#SVGID_17_);}
</style>
<g id="Background">
	<g>
		<g>
			<rect class="st0" width="3710" height="3710"/>
		</g>
	</g>
</g>
<g id="Illustration">
	<g>
		<linearGradient id="SVGID_1_" gradientUnits="userSpaceOnUse" x1="3445.854" y1="3280.4175" x2="1434.6722" y2="1520.6348">
			<stop  offset="0" style="stop-color:#DAE3FE"/>
			<stop  offset="1" style="stop-color:#E9EFFD"/>
		</linearGradient>
		<path class="st1" d="M3096.52,2370.4c-258.3,617.09-946.36,962.79-1543.04,869.54c-97.09-15.17-363.27-60.37-598.94-273.61
			c-453.68-410.5-550.7-1223.35-184.73-1796.19c266.36-416.92,743.84-653.26,1197.53-641.44c97.73,2.55,472.25,18.24,801.4,293.61
			c48.34,40.45,154.97,136.56,251.07,289.04C3245.47,1469.39,3264.86,1968.23,3096.52,2370.4z"/>
		<g>
			
				<linearGradient id="SVGID_2_" gradientUnits="userSpaceOnUse" x1="1569.6445" y1="654.7253" x2="-583.6176" y2="3995.998" gradientTransform="matrix(-1 0 0 1 2257.3284 0)">
				<stop  offset="0" style="stop-color:#4F52FF"/>
				<stop  offset="1" style="stop-color:#4042E2"/>
			</linearGradient>
			<path class="st2" d="M479.14,2255.25c44.1-188.24,188.32-336,371.91-381.19c126.22-31.07,247.32-14.4,349.68,35.95
				c33.95,16.7,74.29-2.2,83.7-39.59c90.48-359.6,408.93-625.26,787.91-625.26c449.39,0,813.68,373.52,813.68,834.29
				c0,12.23-0.24,28.94-0.45,44.97c1.59,34.46,16.26,49.09,38.17,52.76c176.07,18.79,314.44,167.61,322.12,351.17
				c8.82,210.77-158.49,385.39-364.24,385.39H978.47C652.67,2913.73,397.59,2603.35,479.14,2255.25z"/>
			<path class="st3" d="M626.54,2325.79c39.38-168.07,168.14-300.01,332.07-340.35c112.7-27.74,220.82-12.85,312.21,32.1
				c30.31,14.91,66.33-1.97,74.73-35.35c80.79-321.08,365.12-558.28,703.5-558.28c401.24,0,726.51,333.51,726.51,744.91
				c0,10.92-0.22,25.84-0.4,40.15c1.42,30.76,14.52,43.83,34.08,47.11c157.21,16.78,280.75,149.66,287.61,313.55
				c7.87,188.19-141.51,344.1-325.22,344.1H1072.37C781.48,2913.73,553.72,2636.6,626.54,2325.79z"/>
		</g>
		<g>
			
				<linearGradient id="SVGID_3_" gradientUnits="userSpaceOnUse" x1="-617.4517" y1="3100.1987" x2="-258.9354" y2="2024.6469" gradientTransform="matrix(-1 0 0 1 1155.7772 0)">
				<stop  offset="0" style="stop-color:#09005D"/>
				<stop  offset="1" style="stop-color:#1A0F91"/>
			</linearGradient>
			<path class="st4" d="M847.51,3139.22c0,15.42,12.63,28.04,28.07,28.04h1517.99c15.44,0,28.07-12.62,28.07-28.04l12.63-872.35
				c0-15.42-18.17-45.54-51.48-43.27l-1483.55-38.39c-19.37-0.5-38.1,6.95-51.82,20.63s-21.22,32.37-20.77,51.72L847.51,3139.22z"/>
			<path class="st5" d="M875.22,3112.31c0,14.61,11.95,26.56,26.56,26.56h1455.18c14.61,0,26.56-11.95,26.56-26.56l11.92-791.92
				c-1.4-47.66-43.19-64.78-68.51-63.77l-1421.84-38.15c-13.61-0.37-26.77,4.88-36.41,14.49c-9.64,9.61-14.94,22.77-14.6,36.38
				L875.22,3112.31z"/>
			<g>
				<path class="st0" d="M2367.8,2736.09c-0.02,0-0.04,0-0.04,0c-2.17-0.03-3.89-1.8-3.85-3.95l0.94-64.22
					c0.03-2.13,1.77-3.83,3.89-3.83c0.02,0,0.04,0,0.04,0c2.17,0.03,3.89,1.8,3.85,3.95l-0.94,64.22
					C2371.66,2734.39,2369.92,2736.09,2367.8,2736.09z"/>
				<path class="st0" d="M2370.11,2578.71c0,0-0.04,0-0.06,0c-2.15-0.03-3.87-1.8-3.83-3.95l3.61-245.98
					c-0.07-14.61-4.5-26.28-13.18-34.59c-16.2-15.52-41.93-14.73-43.01-14.68l-454.45-12.19c-2.15-0.05-3.84-1.85-3.79-3.99
					c0.06-2.15,1.71-3.98,4-3.78l454.18,12.19c2.83-0.17,30.22-0.64,48.46,16.84c10.26,9.83,15.5,23.38,15.58,40.25l-3.61,246.06
					C2373.97,2577,2372.23,2578.71,2370.11,2578.71z"/>
			</g>
			
				<linearGradient id="SVGID_4_" gradientUnits="userSpaceOnUse" x1="216.7059" y1="3035.9185" x2="-1379.6344" y2="3424.2173" gradientTransform="matrix(-1 0 0 1 1155.7772 0)">
				<stop  offset="0" style="stop-color:#09005D"/>
				<stop  offset="1" style="stop-color:#1A0F91"/>
			</linearGradient>
			<path class="st6" d="M730.02,3239.68h1778.34c3.11,0,5.65-2.54,5.65-5.65v-65.34c0-3.11-2.54-5.65-5.65-5.65H730.02
				c-3.11,0-5.65,2.54-5.65,5.65v65.34C724.36,3237.13,726.91,3239.68,730.02,3239.68z"/>
			<path class="st7" d="M1506.55,3100.24H946.27c-20.66,0-37.4-16.75-37.4-37.4v-731.34c0-21.22,17.63-38.19,38.84-37.38
				l560.28,21.44c20.09,0.77,35.97,17.28,35.97,37.38v709.9C1543.95,3083.49,1527.21,3100.24,1506.55,3100.24z"/>
			<g>
				<path class="st8" d="M1395.11,2630.33h-371.12c-2.95,0-5.33-2.39-5.33-5.33v-38.66c0-2.95,2.39-5.33,5.33-5.33h371.12
					c2.95,0,5.33,2.39,5.33,5.33V2625C1400.44,2627.94,1398.05,2630.33,1395.11,2630.33z"/>
				<path class="st8" d="M1395.86,2709.1h-371.12c-2.95,0-5.33-2.39-5.33-5.33v-38.66c0-2.95,2.39-5.33,5.33-5.33h371.12
					c2.95,0,5.33,2.39,5.33,5.33v38.66C1401.19,2706.71,1398.8,2709.1,1395.86,2709.1z"/>
				<path class="st8" d="M1398.09,2789.51h-371.12c-2.95,0-5.33-2.39-5.33-5.33v-38.66c0-2.95,2.39-5.33,5.33-5.33h371.12
					c2.95,0,5.33,2.39,5.33,5.33v38.66C1403.43,2787.12,1401.04,2789.51,1398.09,2789.51z"/>
				<path class="st8" d="M1398.85,2868.27h-371.12c-2.95,0-5.33-2.39-5.33-5.33v-38.66c0-2.95,2.39-5.33,5.33-5.33h371.12
					c2.95,0,5.33,2.39,5.33,5.33v38.66C1404.18,2865.89,1401.79,2868.27,1398.85,2868.27z"/>
			</g>
			<g>
				<path class="st8" d="M2209.02,2630.27h-538.23c-2.95,0-5.33-2.39-5.33-5.33v-38.66c0-2.95,2.39-5.33,5.33-5.33h538.23
					c2.95,0,5.33,2.39,5.33,5.33v38.66C2214.35,2627.89,2211.96,2630.27,2209.02,2630.27z"/>
				<path class="st8" d="M2210.71,2709.1h-538.23c-2.95,0-5.33-2.39-5.33-5.33v-38.66c0-2.95,2.39-5.33,5.33-5.33h538.23
					c2.95,0,5.33,2.39,5.33,5.33v38.66C2216.05,2706.71,2213.66,2709.1,2210.71,2709.1z"/>
				<path class="st8" d="M1987.06,2789.51h-314.59c-2.95,0-5.33-2.39-5.33-5.33v-38.66c0-2.95,2.39-5.33,5.33-5.33h314.59
					c2.95,0,5.33,2.39,5.33,5.33v38.66C1992.4,2787.12,1990.01,2789.51,1987.06,2789.51z"/>
				<g class="st9">
					<path class="st0" d="M1956.83,2397.13h-8.36c-4.15,0-7.52-3.37-7.52-7.52v-28.58c0-10.23-8.29-18.52-18.52-18.52h-51.81
						c-10.23,0-18.52,8.29-18.52,18.52v28.58c0,4.15-3.37,7.52-7.52,7.52h-8.36c-4.15,0-7.52-3.37-7.52-7.52v-28.58
						c0-23.15,18.77-41.92,41.92-41.92h51.81c23.15,0,41.92,18.77,41.92,41.92v28.58
						C1964.35,2393.76,1960.99,2397.13,1956.83,2397.13z"/>
					<path class="st0" d="M1967.2,2403.87h-141.34c-8.66,0-15.68,7.02-15.68,15.68v108.47c0,8.66,7.02,15.68,15.68,15.68h141.34
						c8.66,0,15.68-7.02,15.68-15.68v-108.47C1982.88,2410.9,1975.86,2403.87,1967.2,2403.87z M1916.75,2508.71
						c0.88,3.65-1.89,7.17-5.65,7.17h-29.14c-3.76,0-6.53-3.51-5.65-7.17l6.8-28.31c-8.03-4.8-13.28-13.77-12.74-23.92
						c0.69-13.15,11.35-23.91,24.49-24.73c15.23-0.95,27.87,11.12,27.87,26.15c0,9.56-5.13,17.93-12.78,22.5L1916.75,2508.71z"/>
				</g>
			</g>
		</g>
		<g>
			<g>
				<g>
					<path class="st7" d="M2368.25,1130.81c-0.55,0-1.11-0.13-1.63-0.42c-1.63-0.9-2.21-2.95-1.31-4.58
						c2.17-3.9,4.27-7.82,6.31-11.78c0.85-1.65,2.88-2.29,4.54-1.45c1.65,0.85,2.3,2.88,1.45,4.54c-2.07,4.01-4.21,8-6.4,11.95
						C2370.58,1130.19,2369.43,1130.81,2368.25,1130.81z"/>
					<path class="st7" d="M1974.42,1362.61c-1.99,0-3.97-0.01-5.96-0.04c-1.86-0.03-3.34-1.55-3.32-3.41
						c0.03-1.84,1.53-3.32,3.37-3.32h0.05c8.71,0.12,17.5-0.03,26.2-0.42c1.73-0.12,3.43,1.35,3.51,3.21
						c0.09,1.86-1.35,3.43-3.21,3.51C1988.21,1362.46,1981.27,1362.61,1974.42,1362.61z M1925.7,1359.99
						c-0.12,0-0.24-0.01-0.36-0.02c-8.79-0.95-17.66-2.17-26.34-3.63c-1.83-0.31-3.07-2.05-2.76-3.88c0.31-1.83,2.05-3.08,3.88-2.77
						c8.56,1.44,17.29,2.64,25.96,3.58c1.85,0.2,3.19,1.86,2.99,3.71C1928.85,1358.71,1927.39,1359.99,1925.7,1359.99z
						 M2037.6,1358.18c-1.65,0-3.09-1.22-3.33-2.9c-0.26-1.84,1.02-3.54,2.86-3.8c8.62-1.21,17.31-2.7,25.83-4.42
						c1.8-0.36,3.6,0.82,3.97,2.64c0.36,1.82-0.82,3.6-2.64,3.96c-8.65,1.74-17.47,3.25-26.22,4.48
						C2037.91,1358.17,2037.75,1358.18,2037.6,1358.18z M1857.64,1347.3c-0.29,0-0.58-0.04-0.87-0.12
						c-8.53-2.28-17.1-4.84-25.48-7.61c-1.77-0.58-2.72-2.49-2.14-4.25c0.58-1.76,2.48-2.72,4.25-2.14
						c8.25,2.73,16.69,5.25,25.1,7.5c1.8,0.48,2.86,2.32,2.38,4.12C1860.48,1346.31,1859.12,1347.3,1857.64,1347.3z
						 M2105.22,1343.27c-1.45,0-2.78-0.94-3.22-2.39c-0.54-1.78,0.47-3.66,2.25-4.2c8.34-2.53,16.7-5.33,24.84-8.33
						c1.74-0.64,3.68,0.25,4.32,2c0.64,1.75-0.25,3.68-2,4.32c-8.27,3.05-16.75,5.89-25.22,8.46
						C2105.87,1343.23,2105.54,1343.27,2105.22,1343.27z M1792.32,1324.34c-0.45,0-0.91-0.09-1.35-0.29
						c-8.09-3.57-16.17-7.42-24-11.44c-1.65-0.85-2.3-2.88-1.46-4.53c0.85-1.65,2.87-2.3,4.53-1.46
						c7.72,3.96,15.67,7.75,23.64,11.27c1.7,0.75,2.47,2.74,1.72,4.44C1794.85,1323.59,1793.61,1324.34,1792.32,1324.34z
						 M2169.74,1318.13c-1.25,0-2.46-0.7-3.04-1.91c-0.81-1.67-0.1-3.69,1.57-4.49c7.83-3.77,15.66-7.83,23.27-12.07
						c1.63-0.9,3.67-0.32,4.58,1.31c0.9,1.62,0.32,3.68-1.31,4.58c-7.72,4.3-15.67,8.42-23.62,12.25
						C2170.72,1318.03,2170.23,1318.13,2169.74,1318.13z M1731.34,1291.61c-0.62,0-1.25-0.17-1.81-0.53
						c-7.43-4.77-14.82-9.82-21.95-15.01c-1.5-1.09-1.83-3.2-0.74-4.7c1.1-1.5,3.2-1.83,4.7-0.74c7.02,5.11,14.29,10.08,21.62,14.78
						c1.56,1,2.02,3.09,1.02,4.65C1733.53,1291.06,1732.45,1291.61,1731.34,1291.61z M2229.61,1283.33c-1.07,0-2.12-0.51-2.77-1.45
						c-1.06-1.53-0.67-3.63,0.86-4.69c7.16-4.94,14.28-10.16,21.14-15.51c1.47-1.14,3.58-0.88,4.73,0.59
						c1.14,1.47,0.88,3.58-0.59,4.73c-6.97,5.43-14.18,10.72-21.45,15.74C2230.93,1283.14,2230.26,1283.33,2229.61,1283.33z
						 M1676.14,1249.86c-0.8,0-1.59-0.28-2.23-0.84c-6.59-5.83-13.11-11.95-19.39-18.2c-1.32-1.31-1.32-3.44-0.01-4.76
						c1.31-1.32,3.44-1.32,4.76-0.01c6.18,6.15,12.61,12.18,19.11,17.93c1.39,1.23,1.52,3.36,0.29,4.75
						C1678,1249.48,1677.07,1249.86,1676.14,1249.86z M2283.47,1239.76c-0.89,0-1.79-0.36-2.45-1.06c-1.28-1.35-1.21-3.48,0.14-4.76
						c6.34-5.98,12.57-12.21,18.53-18.52c1.28-1.35,3.41-1.41,4.76-0.14c1.35,1.28,1.41,3.41,0.14,4.76
						c-6.05,6.41-12.38,12.73-18.81,18.8C2285.13,1239.45,2284.29,1239.76,2283.47,1239.76z M1627.93,1200.16
						c-0.97,0-1.92-0.41-2.59-1.21c-5.64-6.77-11.16-13.81-16.42-20.92c-1.1-1.5-0.79-3.6,0.71-4.71c1.51-1.1,3.61-0.78,4.71,0.71
						c5.17,7.01,10.62,13.94,16.18,20.62c1.19,1.43,1,3.55-0.43,4.74C1629.46,1199.9,1628.69,1200.16,1627.93,1200.16z
						 M2330.06,1188.56c-0.72,0-1.45-0.23-2.06-0.71c-1.47-1.14-1.73-3.26-0.59-4.72c5.36-6.89,10.57-14,15.48-21.14
						c1.06-1.53,3.16-1.92,4.68-0.87c1.53,1.06,1.92,3.15,0.87,4.68c-4.99,7.25-10.27,14.47-15.72,21.46
						C2332.06,1188.11,2331.07,1188.56,2330.06,1188.56z M1587.82,1143.72c-1.14,0-2.26-0.58-2.89-1.63
						c-4.56-7.6-8.94-15.4-13.02-23.2c-0.86-1.65-0.22-3.68,1.43-4.54c1.64-0.86,3.68-0.22,4.54,1.43
						c4.01,7.68,8.32,15.36,12.82,22.85c0.96,1.59,0.44,3.66-1.15,4.62C1589.01,1143.56,1588.41,1143.72,1587.82,1143.72z
						 M1556.87,1081.78c-1.33,0-2.59-0.79-3.12-2.1c-3.33-8.2-6.45-16.59-9.27-24.93c-0.6-1.76,0.35-3.67,2.11-4.27
						c1.75-0.6,3.67,0.35,4.27,2.11c2.78,8.21,5.85,16.47,9.14,24.55c0.7,1.72-0.13,3.69-1.85,4.39
						C1557.72,1081.7,1557.29,1081.78,1556.87,1081.78z"/>
					<path class="st7" d="M1535.81,1015.62c-1.53,0-2.91-1.05-3.27-2.6c-1.03-4.41-2-8.82-2.9-13.25c-0.37-1.82,0.81-3.6,2.63-3.97
						c1.82-0.37,3.6,0.8,3.97,2.63c0.89,4.36,1.84,8.71,2.86,13.05c0.42,1.81-0.7,3.62-2.51,4.05
						C1536.32,1015.59,1536.06,1015.62,1535.81,1015.62z"/>
				</g>
				<g>
					<path class="st7" d="M1592.89,672.31c-0.61,0-1.23-0.17-1.79-0.52c-1.57-0.99-2.04-3.07-1.05-4.64
						c2.4-3.81,4.87-7.6,7.39-11.36c1.04-1.54,3.13-1.96,4.67-0.92c1.55,1.04,1.95,3.13,0.92,4.67c-2.49,3.71-4.92,7.44-7.29,11.2
						C1595.1,671.75,1594,672.31,1592.89,672.31z"/>
					<path class="st7" d="M2406.55,785.09c-1.46,0-2.8-0.95-3.23-2.42c-2.57-8.77-5.45-17.58-8.56-26.18
						c-0.63-1.75,0.27-3.68,2.02-4.31c1.74-0.64,3.68,0.27,4.31,2.02c3.16,8.73,6.08,17.67,8.7,26.58c0.52,1.79-0.5,3.66-2.29,4.18
						C2407.18,785.04,2406.86,785.09,2406.55,785.09z M2380.46,717.13c-1.26,0-2.46-0.7-3.04-1.91c-3.97-8.26-8.24-16.48-12.7-24.45
						c-0.91-1.62-0.33-3.67,1.3-4.58c1.62-0.9,3.68-0.33,4.58,1.3c4.52,8.08,8.86,16.43,12.89,24.82c0.81,1.68,0.1,3.69-1.57,4.49
						C2381.45,717.03,2380.95,717.13,2380.46,717.13z M2343.7,654.31c-1.06,0-2.11-0.5-2.76-1.44
						c-5.24-7.48-10.78-14.91-16.48-22.07c-1.16-1.46-0.92-3.57,0.54-4.73c1.46-1.16,3.57-0.92,4.73,0.54
						c5.79,7.28,11.42,14.81,16.73,22.41c1.07,1.52,0.7,3.62-0.83,4.69C2345.04,654.11,2344.36,654.31,2343.7,654.31z
						 M1627.24,624.92c-0.76,0-1.52-0.25-2.15-0.78c-1.43-1.19-1.63-3.31-0.44-4.74c5.91-7.11,12.13-14.17,18.51-20.96
						c1.27-1.36,3.4-1.42,4.76-0.15c1.35,1.28,1.42,3.41,0.15,4.76c-6.28,6.69-12.42,13.64-18.24,20.65
						C1629.17,624.51,1628.21,624.92,1627.24,624.92z M2297.3,598.21c-0.88,0-1.76-0.34-2.42-1.02
						c-6.34-6.54-12.99-12.99-19.77-19.16c-1.37-1.25-1.47-3.38-0.22-4.76c1.25-1.38,3.39-1.48,4.76-0.22
						c6.88,6.27,13.63,12.82,20.06,19.45c1.3,1.33,1.26,3.47-0.07,4.76C2298.99,597.9,2298.15,598.21,2297.3,598.21z
						 M1678.07,572.82c-0.94,0-1.87-0.39-2.53-1.15c-1.22-1.4-1.08-3.53,0.32-4.75c7.01-6.12,14.28-12.09,21.62-17.76
						c1.48-1.13,3.59-0.86,4.72,0.61c1.13,1.47,0.86,3.59-0.61,4.72c-7.23,5.58-14.4,11.46-21.3,17.49
						C1679.65,572.55,1678.86,572.82,1678.07,572.82z M2242.59,550.24c-0.7,0-1.4-0.22-2.01-0.66c-7.34-5.45-14.94-10.74-22.6-15.73
						c-1.56-1.01-2-3.1-0.98-4.66c1.01-1.56,3.09-2,4.66-0.98c7.77,5.06,15.49,10.43,22.94,15.97c1.49,1.11,1.8,3.22,0.69,4.71
						C2244.64,549.77,2243.62,550.24,2242.59,550.24z M1736.57,529.47c-1.12,0-2.22-0.56-2.86-1.59c-0.98-1.58-0.5-3.65,1.08-4.64
						c7.87-4.9,16.01-9.63,24.19-14.05c1.64-0.89,3.68-0.27,4.56,1.36c0.88,1.64,0.27,3.68-1.36,4.56
						c-8.06,4.35-16.08,9.01-23.84,13.83C1737.8,529.3,1737.18,529.47,1736.57,529.47z M2180.85,511.74c-0.52,0-1.05-0.12-1.54-0.37
						c-8.12-4.19-16.48-8.17-24.85-11.86c-1.7-0.75-2.48-2.73-1.73-4.44c0.74-1.7,2.73-2.48,4.44-1.73
						c8.5,3.73,16.99,7.78,25.23,12.03c1.65,0.85,2.3,2.88,1.45,4.53C2183.25,511.07,2182.07,511.74,2180.85,511.74z M1801.3,496.13
						c-1.32,0-2.57-0.78-3.11-2.07c-0.71-1.72,0.1-3.69,1.82-4.4c8.55-3.55,17.35-6.9,26.15-9.93c1.77-0.6,3.68,0.33,4.28,2.08
						c0.6,1.76-0.33,3.68-2.08,4.28c-8.67,2.99-17.33,6.28-25.76,9.78C1802.17,496.05,1801.73,496.13,1801.3,496.13z
						 M2113.68,483.74c-0.34,0-0.69-0.05-1.04-0.16c-8.69-2.82-17.59-5.4-26.45-7.68c-1.8-0.46-2.89-2.3-2.42-4.1
						c0.46-1.8,2.33-2.88,4.1-2.42c8.99,2.32,18.03,4.94,26.85,7.8c1.77,0.57,2.74,2.47,2.16,4.24
						C2116.43,482.84,2115.1,483.74,2113.68,483.74z M1870.56,473.74c-1.53,0-2.91-1.05-3.27-2.59c-0.42-1.81,0.7-3.62,2.51-4.05
						c9.05-2.13,18.28-4.01,27.41-5.57c1.87-0.3,3.57,0.92,3.89,2.75c0.32,1.83-0.92,3.57-2.75,3.89c-9,1.54-18.08,3.39-27,5.49
						C1871.08,473.71,1870.82,473.74,1870.56,473.74z M2042.87,466.95c-0.17,0-0.34-0.01-0.51-0.04
						c-9.04-1.39-18.24-2.51-27.35-3.34c-1.85-0.17-3.22-1.81-3.05-3.66c0.17-1.85,1.77-3.22,3.66-3.05
						c9.24,0.84,18.58,1.98,27.75,3.39c1.84,0.28,3.1,2,2.82,3.84C2045.94,465.76,2044.51,466.95,2042.87,466.95z M1942.53,462.82
						c-1.75,0-3.23-1.36-3.35-3.13c-0.13-1.86,1.27-3.47,3.12-3.59c9.24-0.65,18.64-1.02,27.94-1.1h0.03c1.85,0,3.35,1.49,3.37,3.34
						c0.02,1.86-1.48,3.38-3.34,3.4c-9.16,0.08-18.42,0.44-27.52,1.08C1942.69,462.82,1942.61,462.82,1942.53,462.82z"/>
					<path class="st7" d="M2419.35,842.41c-1.63,0-3.06-1.19-3.32-2.85c-0.68-4.4-1.43-8.78-2.26-13.17
						c-0.34-1.83,0.86-3.59,2.69-3.93c1.82-0.32,3.59,0.87,3.93,2.69c0.83,4.45,1.59,8.9,2.29,13.36c0.29,1.84-0.97,3.56-2.81,3.85
						C2419.7,842.39,2419.52,842.41,2419.35,842.41z"/>
				</g>
				<g>
					<path class="st7" d="M2320.19,898.74c0.18-2.3-1.12-4.46-3.24-5.38l-60.35-26.22c-4.66-30.37-14.2-60.22-28.74-88.31l33.3-56.7
						c1.17-1.99,0.95-4.5-0.55-6.25l-51.3-59.98c-1.5-1.75-3.95-2.36-6.09-1.52l-61.18,24.12c-25.5-18.71-53.51-32.76-82.79-42.07
						l-16.55-63.68c-0.58-2.23-2.51-3.85-4.81-4.03l-78.69-6.13c-2.3-0.18-4.46,1.12-5.38,3.24l-26.22,60.35
						c-30.37,4.66-60.22,14.2-88.31,28.74l-56.7-33.31c-1.99-1.17-4.5-0.95-6.25,0.55l-59.98,51.31c-1.75,1.5-2.36,3.95-1.52,6.09
						l24.12,61.17c-18.71,25.5-32.76,53.5-42.07,82.79l-63.69,16.55c-2.23,0.58-3.85,2.51-4.03,4.81l-6.13,78.69
						c-0.18,2.3,1.12,4.46,3.24,5.38l60.35,26.22c4.66,30.37,14.2,60.22,28.74,88.31l-33.31,56.7c-1.17,1.99-0.95,4.5,0.55,6.25
						l51.31,59.98c1.5,1.75,3.95,2.36,6.09,1.51l61.17-24.12c25.5,18.71,53.51,32.76,82.79,42.07l16.55,63.68
						c0.58,2.23,2.51,3.85,4.81,4.03l78.69,6.13c2.3,0.18,4.46-1.12,5.38-3.24l26.22-60.35c30.37-4.66,60.22-14.2,88.31-28.74
						l56.7,33.31c1.99,1.17,4.5,0.95,6.25-0.55l59.98-51.31c1.75-1.5,2.36-3.94,1.52-6.09l-24.12-61.17
						c18.71-25.5,32.75-53.51,42.07-82.79l63.68-16.55c2.23-0.58,3.85-2.51,4.03-4.81L2320.19,898.74z"/>
					<path class="st10" d="M1971.46,986.31c-15.41,0-30.41-4.74-43.24-13.82c-33.82-23.93-41.86-70.91-17.93-104.73
						c11.59-16.38,28.87-27.27,48.65-30.65c19.78-3.38,39.7,1.14,56.07,12.73c16.38,11.6,27.27,28.87,30.65,48.65
						c3.39,19.78-1.13,39.7-12.73,56.08c-11.59,16.38-28.87,27.27-48.65,30.65C1980.02,985.95,1975.72,986.31,1971.46,986.31z
						 M1971.76,846.11c-3.69,0-7.4,0.32-11.11,0.95c-17.12,2.93-32.08,12.35-42.11,26.53c-20.72,29.27-13.76,69.94,15.51,90.65
						c14.18,10.04,31.41,13.94,48.54,11.02c17.12-2.93,32.07-12.35,42.11-26.53c10.04-14.18,13.95-31.42,11.02-48.54
						c-2.93-17.12-12.36-32.08-26.54-42.11l0,0C1998.08,850.22,1985.1,846.11,1971.76,846.11z"/>
					<path class="st10" d="M1970.26,1106.68c-5.15,0-10.31-0.2-15.5-0.6c-52.06-4.05-99.43-28.14-133.37-67.83
						c-30.57-35.73-46.95-80.25-46.95-126.76c0-5.15,0.2-10.32,0.6-15.5c4.06-52.06,28.14-99.43,67.83-133.37
						c39.68-33.94,90.2-50.4,142.27-46.35c52.06,4.05,99.43,28.14,133.37,67.83c9.06,10.59,16.99,22.14,23.57,34.3l-8.88,4.8
						c-6.23-11.54-13.76-22.49-22.36-32.54c-32.19-37.63-77.11-60.48-126.48-64.32c-49.37-3.81-97.29,11.77-134.92,43.95
						c-37.63,32.19-60.47,77.11-64.32,126.48c-0.38,4.92-0.57,9.82-0.57,14.7c0,44.11,15.54,86.33,44.53,120.22
						c32.19,37.63,77.11,60.47,126.48,64.32c49.41,3.85,97.29-11.76,134.92-43.95c25.54-21.85,44.65-50.15,55.26-81.85l9.58,3.21
						c-11.19,33.43-31.34,63.28-58.28,86.32C2061.3,1090.29,2016.78,1106.68,1970.26,1106.68z"/>
				</g>
			</g>
			<g>
				<g>
					<path class="st7" d="M2747.98,1241.32c-0.58,0-1.17-0.15-1.71-0.47c-1.6-0.95-2.13-3.01-1.18-4.61
						c2.26-3.82,4.43-7.72,6.43-11.6c0.85-1.65,2.88-2.29,4.54-1.45c1.65,0.85,2.3,2.88,1.45,4.54c-2.06,3.99-4.29,8.01-6.62,11.94
						C2750.26,1240.74,2749.14,1241.32,2747.98,1241.32z"/>
					<path class="st7" d="M2530.7,1354c-0.09,0-0.18,0-0.27-0.01c-9.13-0.72-18.31-1.98-27.26-3.75c-1.82-0.36-3.01-2.13-2.65-3.96
						c0.36-1.82,2.14-3.01,3.96-2.65c8.71,1.72,17.62,2.95,26.49,3.65c1.85,0.15,3.24,1.77,3.09,3.62
						C2533.92,1352.66,2532.44,1354,2530.7,1354z M2574.73,1353.29c-1.69,0-3.15-1.27-3.34-2.99c-0.21-1.85,1.12-3.51,2.97-3.72
						c8.86-0.99,17.73-2.51,26.35-4.52c1.8-0.44,3.62,0.7,4.04,2.52c0.42,1.81-0.7,3.62-2.52,4.04c-8.88,2.07-18.01,3.63-27.13,4.66
						C2574.98,1353.28,2574.86,1353.29,2574.73,1353.29z M2461.62,1337.69c-0.42,0-0.85-0.08-1.27-0.25
						c-8.46-3.44-16.82-7.42-24.84-11.84c-1.63-0.9-2.22-2.95-1.32-4.57c0.9-1.63,2.94-2.22,4.57-1.32
						c7.79,4.29,15.91,8.16,24.13,11.5c1.72,0.7,2.55,2.67,1.85,4.39C2464.2,1336.9,2462.94,1337.69,2461.62,1337.69z
						 M2643.24,1334.67c-1.29,0-2.52-0.74-3.08-1.99c-0.76-1.7,0-3.69,1.7-4.45c8.12-3.63,16.1-7.78,23.73-12.33
						c1.59-0.96,3.66-0.43,4.62,1.16c0.95,1.6,0.43,3.66-1.16,4.62c-7.85,4.69-16.08,8.96-24.43,12.7
						C2644.16,1334.58,2643.69,1334.67,2643.24,1334.67z M2400.79,1301.16c-0.76,0-1.53-0.26-2.15-0.78
						c-7-5.84-13.75-12.18-20.06-18.84c-1.28-1.35-1.22-3.48,0.13-4.76c1.35-1.28,3.48-1.22,4.76,0.12
						c6.13,6.47,12.69,12.62,19.49,18.3c1.43,1.19,1.62,3.31,0.43,4.74C2402.71,1300.75,2401.76,1301.16,2400.79,1301.16z
						 M2702.81,1296.08c-0.92,0-1.85-0.38-2.51-1.12c-1.24-1.39-1.12-3.52,0.27-4.75l1.98-1.79c5.92-5.4,11.62-11.17,16.93-17.13
						c1.23-1.4,3.36-1.52,4.75-0.28c1.39,1.24,1.52,3.36,0.28,4.75c-5.46,6.14-11.32,12.08-17.42,17.64l-2.03,1.83
						C2704.41,1295.8,2703.61,1296.08,2702.81,1296.08z M2353.86,1247.92c-1.11,0-2.2-0.55-2.84-1.55
						c-4.93-7.7-9.46-15.78-13.46-24.02c-0.81-1.67-0.11-3.69,1.56-4.5c1.68-0.81,3.69-0.11,4.5,1.56c3.88,8,8.28,15.85,13.07,23.33
						c1,1.56,0.55,3.65-1.02,4.65C2355.1,1247.75,2354.48,1247.92,2353.86,1247.92z"/>
					<path class="st7" d="M2325.22,1182.83c-1.49,0-2.85-1-3.25-2.51c-1.16-4.38-2.21-8.85-3.11-13.29c-0.37-1.82,0.8-3.6,2.63-3.97
						c1.82-0.37,3.6,0.8,3.97,2.63c0.88,4.31,1.9,8.66,3.02,12.91c0.48,1.8-0.59,3.64-2.39,4.12
						C2325.8,1182.79,2325.51,1182.83,2325.22,1182.83z"/>
				</g>
				<g>
					<path class="st7" d="M2352.95,1000.12c-0.61,0-1.23-0.17-1.79-0.52c-1.57-0.99-2.04-3.07-1.05-4.64
						c2.42-3.84,4.98-7.65,7.61-11.34c1.08-1.51,3.19-1.86,4.69-0.78c1.52,1.08,1.86,3.18,0.78,4.69c-2.56,3.58-5.05,7.29-7.4,11.02
						C2355.16,999.57,2354.07,1000.12,2352.95,1000.12z"/>
					<path class="st7" d="M2761.91,1032.86c-1.31,0-2.55-0.77-3.1-2.05c-3.41-8.04-7.34-15.97-11.67-23.57
						c-0.92-1.61-0.35-3.67,1.26-4.59c1.61-0.92,3.67-0.36,4.59,1.26c4.46,7.82,8.5,15.99,12.02,24.27
						c0.73,1.71-0.07,3.69-1.79,4.42C2762.8,1032.78,2762.35,1032.86,2761.91,1032.86z M2725.17,973.47c-0.95,0-1.9-0.4-2.56-1.18
						c-1.72-2.02-3.48-4.01-5.28-5.99c-4.11-4.5-8.44-8.89-12.89-13.05c-1.36-1.27-1.43-3.4-0.16-4.76c1.27-1.36,3.4-1.43,4.76-0.16
						c4.57,4.28,9.03,8.79,13.26,13.43c1.85,2.03,3.67,4.08,5.43,6.16c1.2,1.42,1.03,3.54-0.38,4.75
						C2726.72,973.21,2725.95,973.47,2725.17,973.47z M2388.85,956.2c-0.89,0-1.78-0.35-2.44-1.04c-1.28-1.35-1.23-3.48,0.11-4.76
						c1.36-1.3,2.74-2.59,4.14-3.86c5.26-4.8,10.8-9.41,16.46-13.71c1.48-1.13,3.59-0.84,4.71,0.64c1.13,1.48,0.84,3.59-0.64,4.71
						c-5.5,4.18-10.88,8.66-15.99,13.32c-1.36,1.24-2.7,2.5-4.03,3.76C2390.52,955.89,2389.69,956.2,2388.85,956.2z M2672.47,927.65
						c-0.61,0-1.24-0.17-1.8-0.52c-7.39-4.67-15.13-8.96-23-12.74c-1.68-0.81-2.38-2.81-1.58-4.49c0.8-1.68,2.8-2.39,4.49-1.58
						c8.1,3.89,16.07,8.3,23.68,13.11c1.57,1,2.04,3.07,1.05,4.65C2674.68,927.1,2673.58,927.65,2672.47,927.65z M2445.98,916.02
						c-1.24,0-2.43-0.68-3.02-1.87c-0.83-1.67-0.15-3.69,1.52-4.51c8.04-4,16.43-7.57,24.91-10.63c1.76-0.62,3.68,0.28,4.31,2.03
						c0.63,1.75-0.28,3.68-2.03,4.31c-8.25,2.97-16.39,6.44-24.2,10.32C2446.99,915.91,2446.48,916.02,2445.98,916.02z
						 M2608.49,899.73c-0.29,0-0.58-0.04-0.87-0.11c-8.44-2.24-17.11-4.02-25.77-5.28c-1.84-0.27-3.12-1.98-2.85-3.81
						c0.27-1.84,1.96-3.16,3.81-2.85c8.91,1.3,17.83,3.12,26.53,5.43c1.79,0.48,2.87,2.32,2.39,4.12
						C2611.34,898.73,2609.98,899.73,2608.49,899.73z M2512.5,894.8c-1.63,0-3.06-1.18-3.32-2.84c-0.29-1.84,0.96-3.56,2.8-3.85
						c8.87-1.4,17.93-2.31,26.95-2.69c1.86-0.04,3.43,1.36,3.5,3.22c0.08,1.86-1.36,3.43-3.22,3.5c-8.76,0.37-17.56,1.25-26.18,2.61
						C2512.85,894.79,2512.67,894.8,2512.5,894.8z"/>
					<path class="st7" d="M2777.49,1087.5c-1.63,0-3.06-1.19-3.32-2.85c-0.68-4.35-1.49-8.74-2.42-13.04
						c-0.39-1.82,0.76-3.61,2.58-4c1.85-0.39,3.61,0.77,4,2.58c0.95,4.43,1.79,8.95,2.49,13.42c0.29,1.84-0.97,3.56-2.81,3.85
						C2777.84,1087.48,2777.66,1087.5,2777.49,1087.5z"/>
				</g>
				<g>
					<path class="st7" d="M2726.56,1114.8c0.09-1.18-0.57-2.29-1.66-2.76l-31-13.47c-2.39-15.6-7.29-30.94-14.76-45.36l17.11-29.13
						c0.6-1.02,0.49-2.31-0.28-3.21l-26.35-30.81c-0.77-0.9-2.03-1.21-3.13-0.78l-31.42,12.39c-13.1-9.61-27.48-16.83-42.53-21.61
						l-8.5-32.71c-0.3-1.15-1.29-1.98-2.47-2.07l-40.42-3.15c-1.18-0.09-2.29,0.58-2.76,1.66l-13.47,31
						c-15.6,2.39-30.94,7.3-45.36,14.76l-29.13-17.11c-1.02-0.6-2.31-0.49-3.21,0.28l-30.81,26.36c-0.9,0.77-1.21,2.03-0.78,3.13
						l12.39,31.42c-9.61,13.1-16.83,27.48-21.61,42.53l-32.71,8.5c-1.15,0.3-1.98,1.29-2.07,2.47l-3.15,40.42
						c-0.09,1.18,0.58,2.29,1.66,2.76l31,13.47c2.39,15.6,7.3,30.94,14.76,45.36l-17.11,29.13c-0.6,1.02-0.49,2.31,0.28,3.21
						l26.36,30.81c0.77,0.9,2.03,1.21,3.13,0.78l31.42-12.39c13.1,9.61,27.49,16.83,42.53,21.61l8.5,32.71
						c0.3,1.15,1.29,1.98,2.47,2.07l40.42,3.15c1.18,0.09,2.29-0.58,2.76-1.66l13.47-31c15.6-2.4,30.94-7.3,45.36-14.76l29.13,17.11
						c1.02,0.6,2.31,0.49,3.21-0.28l30.81-26.35c0.9-0.77,1.21-2.03,0.78-3.13l-12.39-31.42c9.61-13.1,16.83-27.48,21.61-42.53
						l32.71-8.5c1.15-0.3,1.98-1.29,2.07-2.47L2726.56,1114.8z"/>
					<path class="st10" d="M2547.42,1162.24c-8.42,0-16.62-2.59-23.63-7.55c-18.48-13.08-22.87-38.75-9.8-57.22
						c6.34-8.95,15.78-14.9,26.58-16.75c10.81-1.85,21.69,0.62,30.64,6.95c8.95,6.34,14.9,15.77,16.75,26.58
						c1.85,10.81-0.62,21.69-6.95,30.64c-6.34,8.95-15.77,14.9-26.58,16.75C2552.09,1162.04,2549.75,1162.24,2547.42,1162.24z
						 M2547.55,1090.24c-9.71,0-19.28,4.55-25.31,13.06c-9.86,13.93-6.55,33.29,7.38,43.14c6.75,4.78,14.97,6.64,23.1,5.24
						c8.15-1.39,15.27-5.88,20.04-12.62c4.78-6.75,6.64-14.96,5.24-23.1c-1.39-8.15-5.88-15.27-12.62-20.04l0,0
						C2559.97,1092.08,2553.73,1090.24,2547.55,1090.24z"/>
					<path class="st10" d="M2546.81,1224.07c-2.71,0-5.43-0.11-8.16-0.32c-27.4-2.13-52.32-14.81-70.19-35.69
						c-16.56-19.35-24.66-43.13-24.65-66.81c0-29.05,12.2-57.93,35.96-78.25c43.11-36.88,108.18-31.81,145.05,11.3
						c0.29,0.34,0.58,0.68,0.86,1.02c4,4.8,7.56,9.95,10.6,15.34c0.01,0.02,0.03,0.04,0.04,0.06c0.05,0.08,0.09,0.16,0.13,0.24
						c0.08,0.14,0.16,0.28,0.24,0.42c0.04,0.08,0.09,0.16,0.13,0.23c0.13,0.24,0.27,0.49,0.4,0.73l-8.88,4.8
						c-3.12-5.77-6.88-11.25-11.19-16.29l0,0c-23.55-27.52-59.84-37.84-92.82-29.73c-13.6,3.35-26.64,9.83-38,19.54
						c-21.42,18.33-32.42,44.37-32.43,70.57c0,21.35,7.31,42.8,22.23,60.25c33.25,38.87,91.94,43.45,130.82,10.19
						c12.78-10.93,22.34-25.1,27.65-40.96l9.58,3.21c-5.89,17.6-16.49,33.3-30.67,45.42
						C2594.72,1215.44,2571.29,1224.07,2546.81,1224.07z"/>
				</g>
			</g>
		</g>
		<g>
			<g>
				<path class="st11" d="M1891.24,1585.26c8.3-7.77,19.52-11.64,30.85-10.62c121.17,10.9,347.25-47.47,495.01-198.65
					c10.26-10.5,28.96-4.56,40.72,4.22c164.33,122.82,436.72,148.25,531.27,153.45c19.56,1.08,35.43,16.25,37.45,35.74
					c85.99,830.54-454.77,1131.5-566.92,1184.63c-12.26,5.81-26.69,4.96-38.21-2.21c-558.97-348.18-535.06-800.97-542.79-1136.47
					C1878.36,1603.98,1882.94,1593.04,1891.24,1585.26z"/>
				<path class="st12" d="M2444.5,2693.7c-2.5,0-4.99-0.7-7.17-2.09c-214.3-136.99-353.97-300.76-426.99-500.68
					c-65.22-178.55-68.41-360.36-71.23-520.76l-0.38-21.39c-0.07-3.57,1.28-6.93,3.77-9.48c2.52-2.56,5.9-3.98,9.51-3.98h0.01
					c132.71,0,331.91-58.6,478.01-189.51c4.48-4.02,11.12-4.5,16.16-1.17c160.53,106.51,389.51,137.53,511.72,146.54
					c6.5,0.48,11.63,5.55,12.21,12.06c28.41,324.07-39,598.1-200.34,814.49c-120.5,161.61-263.39,245.81-319.23,274.52l0,0
					C2448.64,2693.22,2446.57,2693.7,2444.5,2693.7z M2448.04,2687.41l1.24,2.42L2448.04,2687.41
					c55.5-28.53,197.54-112.23,317.36-272.93c160.52-215.29,227.57-488.07,199.28-810.76c-0.34-3.83-3.36-6.82-7.18-7.11
					c-122.74-9.05-352.77-40.23-514.33-147.43c-2.96-1.97-6.88-1.68-9.52,0.69c-147.17,131.87-347.89,190.9-481.53,190.9h0
					c-2.26,0-4.26,0.83-5.74,2.35c-1.47,1.49-2.25,3.47-2.21,5.56l0.38,21.39c2.81,159.98,5.99,341.31,70.9,519
					c72.6,198.75,211.56,361.63,424.81,497.95C2442.6,2688.52,2445.58,2688.67,2448.04,2687.41z"/>
			</g>
			<g>
				<path class="st12" d="M2639.89,1898.78h-25.28c-12.55,0-22.73-10.17-22.73-22.73v-86.4c0-30.93-25.07-56-56-56h-156.63
					c-30.93,0-56,25.07-56,56v86.4c0,12.55-10.17,22.73-22.73,22.73h-25.28c-12.55,0-22.73-10.17-22.73-22.73v-86.4
					c0-69.99,56.74-126.73,126.73-126.73h156.63c69.99,0,126.73,56.74,126.73,126.73v86.4
					C2662.61,1888.61,2652.44,1898.78,2639.89,1898.78z"/>
				<path class="st12" d="M2671.22,1919.17h-427.29c-26.18,0-47.41,21.23-47.41,47.41v327.93c0,26.18,21.23,47.41,47.41,47.41
					h427.29c26.18,0,47.41-21.23,47.41-47.41v-327.93C2718.63,1940.4,2697.4,1919.17,2671.22,1919.17z M2518.71,2236.12
					c2.65,11.05-5.72,21.67-17.08,21.67h-88.11c-11.36,0-19.73-10.62-17.08-21.67l20.56-85.58c-24.27-14.51-40.14-41.63-38.51-72.32
					c2.1-39.75,34.31-72.28,74.03-74.75c46.03-2.86,84.26,33.63,84.26,79.05c0,28.91-15.5,54.19-38.63,68.02L2518.71,2236.12z"/>
			</g>
		</g>
		<g>
			
				<linearGradient id="SVGID_5_" gradientUnits="userSpaceOnUse" x1="1693.7308" y1="1879.6465" x2="1819.1893" y2="2010.6809" gradientTransform="matrix(-1 0 0 1 2478.4575 0)">
				<stop  offset="0" style="stop-color:#09005D"/>
				<stop  offset="1" style="stop-color:#1A0F91"/>
			</linearGradient>
			<path class="st13" d="M819.7,1811.97c0,0,34.61,1.83,38.85,73.03c0,0-80.25,71.94-188.65,89.06
				c-8.14,1.29,11.38-55.55,14.31-63.25C698.17,1874.18,742.13,1850.59,819.7,1811.97z"/>
			<path class="st5" d="M1209.44,1728.26h-73.03c0,0-224.15-247.55-371.16-272.52c0,0-102.33,130.63,5.45,374.7
				c8.67,19.63,32.92,28.36,51.01,16.8c5.41-3.46,9.29-8.09,11.65-13.89l-8.67-208.4c0,0,191.2,167.22,224.43,199.49
				C1082.37,1856.71,1251.3,1837.04,1209.44,1728.26z"/>
			
				<linearGradient id="SVGID_6_" gradientUnits="userSpaceOnUse" x1="1860.1589" y1="2208.543" x2="2097.468" y2="2382.7148" gradientTransform="matrix(-1 0 0 1 2478.4575 0)">
				<stop  offset="0" style="stop-color:#09005D"/>
				<stop  offset="1" style="stop-color:#1A0F91"/>
			</linearGradient>
			<path class="st14" d="M503.4,2248c30.6-26.82,79.36-56.91,149.76-65.53l23.81,14.56c0,0-15.18,22.39-42.91,46.04
				c-25.49,14.8-64.84,34.85-97.47,39.2C504.86,2286.49,500.18,2267.32,503.4,2248z"/>
			<path class="st7" d="M684.21,1910.81c18.85,6.1,27.15,32.81,74.99,15.15c46.28-17.09,80.69-39.13,98.39-51.84
				c0.39,3.44,0.73,7.04,0.96,10.88c0,0-84.61,80.48-193.01,97.6c-8.14,1.29-14.59-6.84-11.65-14.54
				C659.14,1954.25,668.63,1933.3,684.21,1910.81z"/>
			<path class="st7" d="M480.35,2270.9c6.03-6.86,13.73-14.73,23.05-22.9c-3.22,19.33,1.45,38.5,33.18,34.27
				c32.63-4.35,71.99-24.4,97.47-39.2c-31.94,27.24-80.55,56.16-141.9,54.46C478.53,2297.15,471.34,2281.13,480.35,2270.9z"/>
			<path class="st5" d="M1206.77,1781.1l-341.99,3.7c0,0-195.3,161.58-230.73,407.97c0,0-5.88,18.12,29.42,21.22
				c0,0,118.08-77.12,195.07-213.47c94.4-167.18,281.43-91.93,281.43-91.93c89.85,19.83,161.37,12.45,213.7-68.09L1206.77,1781.1z"
				/>
			
				<linearGradient id="SVGID_7_" gradientUnits="userSpaceOnUse" x1="1476.7593" y1="1564.8405" x2="1315.6505" y2="1756.4292" gradientTransform="matrix(-1 0 0 1 2478.4575 0)">
				<stop  offset="0" style="stop-color:#FEBBBA"/>
				<stop  offset="1" style="stop-color:#FF928E"/>
			</linearGradient>
			<path class="st15" d="M1198.7,1505.6c0,0-36.82,184.51-217.2,257.5l-64.17-7.56l-15.14,24.14l150.51,4.8
				c0,0,128.66-50.96,196.82-189.81C1251.77,1590.08,1289.31,1512.57,1198.7,1505.6z"/>
			<path class="st11" d="M1178.97,1778.08c0,0,41.87-113.8,50.86-224.38c0,0-30.63-26.32-49.77-37.68
				c-6.2-3.68-8.54-11.46-5.41-17.95c14.07-29.16,99.19-143.64,105.57-145.24c34.66-8.65,176.79-76.23,276.89,60.7
				c42.96,58.76-8.52,239.65-203.42,426.99C1290.97,1850.73,1232.33,1832.66,1178.97,1778.08z"/>
			
				<linearGradient id="SVGID_8_" gradientUnits="userSpaceOnUse" x1="1288.8999" y1="1739.1638" x2="1610.9313" y2="1298.6074" gradientTransform="matrix(-1 0 0 1 2478.4575 0)">
				<stop  offset="0" style="stop-color:#FEBBBA"/>
				<stop  offset="1" style="stop-color:#FF928E"/>
			</linearGradient>
			<path class="st16" d="M1340.29,1578.63c0,0-116.32,137.73-265.03,157.86c0,0-38.43-35.04-67.01-22.53
				c-28.58,12.51-67.77,67.73-67.77,67.73h190.95c0,0,180.55-6.36,270.77-115.84C1394.93,1627.54,1373.19,1604.65,1340.29,1578.63z"
				/>
			
				<linearGradient id="SVGID_9_" gradientUnits="userSpaceOnUse" x1="1091.9044" y1="1374.0756" x2="1103.7662" y2="1267.3191" gradientTransform="matrix(-1 0 0 1 2478.4575 0)">
				<stop  offset="0" style="stop-color:#FEBBBA"/>
				<stop  offset="1" style="stop-color:#FF928E"/>
			</linearGradient>
			<path class="st17" d="M1408.14,1256.24l25.45,84.88c1.17,3.89-0.27,8.1-3.62,10.4c-12.25,8.39-44.28,25.08-88.21,8.86
				c-5.02-1.85-8.47-6.55-8.9-11.89l-6.03-73.95L1408.14,1256.24z"/>
			<g>
				
					<linearGradient id="SVGID_10_" gradientUnits="userSpaceOnUse" x1="1155.1716" y1="1280.9521" x2="1102.8887" y2="1108.5105" gradientTransform="matrix(-1 0 0 1 2478.4575 0)">
					<stop  offset="0" style="stop-color:#FEBBBA"/>
					<stop  offset="1" style="stop-color:#FF928E"/>
				</linearGradient>
				<path class="st18" d="M1259.12,1187.49c0,0,12.51,87.99,46.31,115.05c33.8,27.06,99.66,6.68,121.9-59.65l-44.32-113.42
					L1259.12,1187.49z"/>
				
					<linearGradient id="SVGID_11_" gradientUnits="userSpaceOnUse" x1="1107.9917" y1="964.3203" x2="1156.601" y2="1241.5731" gradientTransform="matrix(-1 0 0 1 2478.4575 0)">
					<stop  offset="0" style="stop-color:#09005D"/>
					<stop  offset="1" style="stop-color:#1A0F91"/>
				</linearGradient>
				<path class="st19" d="M1388,1202.87c-2.57,0.83-5.26-0.82-5.66-3.49c-1.22-8.12-4.27-24.2-10.43-35.15c0,0,3.23-11.54-29.18,5.9
					c-32.4,17.44-81.07,43.06-109.72,27.8c-27.93-14.87-56.23-89.72,17.6-75.86c2.81,0.53,5.39-1.71,5.18-4.56
					c-0.91-12.3,0.31-40.6,28.97-49.69c26.82-8.5,41.5,3.61,47.55,10.91c1.78,2.15,5.08,2.11,6.78-0.11
					c8.03-10.49,29.85-32.81,61.97-18.66c26.46,11.66,30.57,27.96,30.13,38.11c-0.14,3.29,3.2,5.52,6.19,4.14
					c8.1-3.73,21.14-5.67,33.62,9.97c17.26,21.63-7.4,40.38-14.8,45.3c-1.21,0.81-1.97,2.14-1.98,3.6
					c-0.07,11.25-1.82,60.3-26.41,87.98c-2.13,2.4-6.06,1.69-7.3-1.26l-18.93-45.11c-0.88-2.09-3.21-3.17-5.38-2.47L1388,1202.87z"
					/>
				
					<linearGradient id="SVGID_12_" gradientUnits="userSpaceOnUse" x1="1101.0172" y1="1297.3715" x2="1048.7341" y2="1124.9296" gradientTransform="matrix(-1 0 0 1 2478.4575 0)">
					<stop  offset="0" style="stop-color:#FEBBBA"/>
					<stop  offset="1" style="stop-color:#FF928E"/>
				</linearGradient>
				<path class="st20" d="M1387.6,1212.03c0,0,11.56-47.08,29.12-31.8c17.56,15.29-4.58,48.93-24.69,55.35L1387.6,1212.03z"/>
			</g>
			
				<linearGradient id="SVGID_13_" gradientUnits="userSpaceOnUse" x1="1528.3632" y1="1639.4886" x2="1773.4126" y2="1639.4886" gradientTransform="matrix(-1 0 0 1 2478.4575 0)">
				<stop  offset="0" style="stop-color:#09005D"/>
				<stop  offset="1" style="stop-color:#1A0F91"/>
			</linearGradient>
			<path class="st21" d="M950.09,1792.38l-85.73-285.92c-3.5-11.66-13.86-19.94-26.01-20.77l-115.75-7.92
				c-11.77-0.8-20.52,10.69-16.61,21.82l95.84,273.05c3.09,8.8,10.99,15.01,20.26,15.95l113.99,12.66L950.09,1792.38z"/>
			<path class="st7" d="M791.98,1603.37c6.4,12.92,17.46,20.49,24.69,16.91c7.23-3.58,7.91-16.96,1.51-29.88
				c-6.4-12.92-17.45-20.49-24.69-16.91C786.25,1577.07,785.58,1590.45,791.98,1603.37z"/>
			
				<linearGradient id="SVGID_14_" gradientUnits="userSpaceOnUse" x1="1558.1051" y1="1746.6063" x2="1362.162" y2="1800.3092" gradientTransform="matrix(-1 0 0 1 2478.4575 0)">
				<stop  offset="0" style="stop-color:#09005D"/>
				<stop  offset="1" style="stop-color:#1A0F91"/>
			</linearGradient>
			<path class="st22" d="M936.08,1801.24c0.19,0,0.37,0,0.56-0.02l242.88-12.28c6-0.3,10.63-5.41,10.32-11.42
				c-0.3-6.01-5.44-10.73-11.42-10.32l-242.88,12.28c-6,0.3-10.62,5.42-10.32,11.42C925.51,1796.72,930.32,1801.24,936.08,1801.24z"
				/>
			<linearGradient id="SVGID_15_" gradientUnits="userSpaceOnUse" x1="1283.0676" y1="821.8323" x2="1207.3228" y2="1988.3004">
				<stop  offset="0" style="stop-color:#E1473D"/>
				<stop  offset="1" style="stop-color:#E9605A"/>
			</linearGradient>
			<path class="st23" d="M1229.83,1555.38c-0.93,0-1.68-0.75-1.68-1.68c-0.17-51.27,19.56-119.13,19.76-119.81
				c0.26-0.89,1.19-1.4,2.09-1.14c0.89,0.26,1.4,1.2,1.14,2.09c-0.2,0.67-19.79,68.07-19.62,118.85
				C1231.52,1554.62,1230.76,1555.38,1229.83,1555.38L1229.83,1555.38z"/>
			<linearGradient id="SVGID_16_" gradientUnits="userSpaceOnUse" x1="1420.9672" y1="830.7864" x2="1345.2223" y2="1997.2546">
				<stop  offset="0" style="stop-color:#E1473D"/>
				<stop  offset="1" style="stop-color:#E9605A"/>
			</linearGradient>
			<path class="st24" d="M1340.29,1580.32c-0.36,0-0.73-0.12-1.04-0.36c-0.73-0.58-0.85-1.63-0.28-2.36
				c0.53-0.67,53.32-67.79,71.39-113.57c0.34-0.86,1.31-1.31,2.18-0.95c0.86,0.34,1.29,1.32,0.95,2.18
				c-18.25,46.25-71.35,113.75-71.88,114.42C1341.28,1580.1,1340.78,1580.32,1340.29,1580.32z"/>
			<linearGradient id="SVGID_17_" gradientUnits="userSpaceOnUse" x1="1523.5696" y1="837.449" x2="1447.8246" y2="2003.9169">
				<stop  offset="0" style="stop-color:#E1473D"/>
				<stop  offset="1" style="stop-color:#E9605A"/>
			</linearGradient>
			<path class="st25" d="M1415.12,1683.51l-9.6-13.58c-0.54-0.76-0.36-1.81,0.4-2.35c0.76-0.54,1.81-0.36,2.35,0.4l8.03,11.36
				c74.91-32.84,121.29-122.46,121.75-123.36c0.42-0.83,1.43-1.16,2.26-0.73c0.83,0.42,1.16,1.44,0.73,2.27
				c-0.47,0.92-47.89,92.59-124.67,125.47L1415.12,1683.51z"/>
		</g>
	</g>
</g>
</svg>
