<?xml version="1.0" encoding="utf-8"?>
<!-- Generator: Adobe Illustrator 24.2.3, SVG Export Plug-In . SVG Version: 6.00 Build 0)  -->
<svg version="1.1" xmlns="http://www.w3.org/2000/svg" xmlns:xlink="http://www.w3.org/1999/xlink" x="0px" y="0px"
	 viewBox="0 0 3710 3710" style="enable-background:new 0 0 3710 3710;" xml:space="preserve">
<style type="text/css">
	.st0{fill:#FFFFFF;}
	.st1{fill:url(#SVGID_1_);}
	.st2{fill:#BDD0FB;}
	.st3{fill:url(#SVGID_2_);}
	.st4{fill:#91B3FA;}
	.st5{opacity:0.5;fill:#FFFFFF;}
	.st6{fill:url(#SVGID_3_);}
	.st7{opacity:0.78;fill:#FFFFFF;}
	.st8{fill:#EF7B14;}
	.st9{opacity:0.6;}
	.st10{opacity:0.6;fill:#FFFFFF;}
	.st11{fill:url(#SVGID_4_);}
	.st12{fill:url(#SVGID_5_);}
	.st13{fill:#7D97F4;}
	.st14{fill:url(#SVGID_6_);}
	.st15{fill:url(#SVGID_7_);}
	.st16{fill:url(#SVGID_8_);}
	.st17{fill:url(#SVGID_9_);}
	.st18{fill:url(#SVGID_10_);}
	.st19{fill:url(#SVGID_11_);}
	.st20{fill:url(#SVGID_12_);}
	.st21{fill:url(#SVGID_13_);}
	.st22{fill:url(#SVGID_14_);}
	.st23{filter:url(#Adobe_OpacityMaskFilter);}
	.st24{filter:url(#Adobe_OpacityMaskFilter_1_);}
	.st25{mask:url(#SVGID_15_);fill:url(#SVGID_16_);}
	.st26{fill:url(#SVGID_17_);}
	.st27{fill:url(#SVGID_18_);}
	.st28{fill:url(#SVGID_19_);}
	.st29{fill:url(#SVGID_20_);}
	.st30{fill:url(#SVGID_21_);}
	.st31{fill:url(#SVGID_22_);}
	.st32{fill:url(#SVGID_23_);}
	.st33{fill:url(#SVGID_24_);}
	.st34{fill:url(#SVGID_25_);}
	.st35{fill:url(#SVGID_26_);}
	.st36{fill:url(#SVGID_27_);}
	.st37{fill:url(#SVGID_28_);}
	.st38{fill:url(#SVGID_29_);}
	.st39{fill:url(#SVGID_30_);}
	.st40{fill:url(#SVGID_31_);}
	.st41{fill:url(#SVGID_32_);}
</style>
<g id="Background">
	<g>
		<g>
			<rect class="st0" width="3710" height="3710"/>
		</g>
	</g>
</g>
<g id="Illustration">
	<g>
		<linearGradient id="SVGID_1_" gradientUnits="userSpaceOnUse" x1="3231.9402" y1="3481.468" x2="718.4438" y2="617.9866">
			<stop  offset="0" style="stop-color:#DAE3FE"/>
			<stop  offset="1" style="stop-color:#E9EFFD"/>
		</linearGradient>
		<path class="st1" d="M2887.11,2848.7c-506.22,534.2-1283.8,376.17-1398.73,350.77c-144.8-32-489.3-108.12-746.39-408.66
			c-393.59-460.14-353.85-1179.26-49.88-1664.09c88.45-141.07,386.1-560.31,945.06-651.46c32.67-5.33,616.35-90.91,1085.99,303.14
			c63.32,53.13,165.53,149.35,255.11,289.45C3256.15,1502.46,3387.66,2320.48,2887.11,2848.7z"/>
		<g>
			<g>
				<path class="st2" d="M2318.5,1431.14c-31.31,113.52-84,261.61-138.18,387.69l-19.5-3.43
					c68.07-151.67,143.25-362.55,176.46-615.04c33.48-254.62,25.57-572.32,166.76-698.58c117.51-105.08,528.27-51.62,662.76-30.73
					c16.81,2.61,23,23.59,10.27,34.87c-62.75,55.61-196.68,186.4-229.05,315.5c-42.67,170.15-200.4,281.84-343.38,314.74
					C2461.65,1169.04,2382.43,1199.38,2318.5,1431.14z"/>
				
					<linearGradient id="SVGID_2_" gradientUnits="userSpaceOnUse" x1="2481.9246" y1="616.9301" x2="2986.7786" y2="616.9301" gradientTransform="matrix(0.9849 0.1733 -0.1733 0.9849 78.0869 -171.1183)">
					<stop  offset="0" style="stop-color:#DAE3FE"/>
					<stop  offset="1" style="stop-color:#E9EFFD"/>
				</linearGradient>
				<path class="st3" d="M2980.5,548.09c-86.12,6.42-170.7,30.31-247.98,69.82c-38.69,19.64-74.96,44.34-107.59,73.29
					c-32.38,29.19-61.16,62.78-83.64,100.33l-8.36,14.11c-2.76,4.72-5.07,9.69-7.62,14.52c-2.42,4.87-5.06,9.76-7.3,14.63
					l-6.77,14.6c-9.07,19.45-18.04,38.93-26.81,58.51c-17.6,39.13-34.58,78.55-50.94,118.22c-32.77,79.33-63.08,159.66-88.45,241.81
					c-0.61,1.97,0.5,4.06,2.47,4.67c1.9,0.59,3.92-0.42,4.6-2.26l0.04-0.11c14.8-40.03,30.4-79.93,46.74-119.44
					c16.16-39.6,32.8-79,49.87-118.22l25.79-58.74l26.45-58.44c8.8-19.49,17.8-38.88,26.9-58.24l6.79-14.53
					c2.26-4.85,4.74-9.38,7.1-14.09c2.42-4.64,4.6-9.43,7.22-13.96l7.94-13.57c21.28-36.19,48.93-68.3,79.61-96.97
					c15.66-14.01,31.85-27.54,49.26-39.44l6.44-4.58l6.62-4.33c4.43-2.87,8.78-5.85,13.27-8.63c9.05-5.43,18.05-10.98,27.4-15.93
					c37.03-20.48,76.55-36.44,116.98-49.42c40.43-12.93,82.26-22.5,124.37-27.64l0.19-0.02c1.64-0.2,2.81-1.69,2.61-3.34
					C2983.5,549.12,2982.08,547.97,2980.5,548.09z"/>
			</g>
			<g>
				<path class="st4" d="M2547.8,1495.1c-21.92,137.11,14.48,190.95,35.44,241.2c3.72,8.92,9.05,21.5,14.9,36.57l-19.32,9.08
					c-5.47-21.89-12.17-43.41-20.48-63.69c-57.02-139.17-135.41-385.61-83.42-579.5c51.99-193.9,174.41-266.9,395.48-216.76
					c184.22,41.78,293.25,55.32,347.2,42.01c13.36-3.3,26.07,7.56,25.27,21.3c-4.25,73.11-30.78,248.94-185.35,310.09
					C2860.35,1373.39,2569.73,1357.99,2547.8,1495.1z"/>
				<path class="st5" d="M2894.18,1114.91c-15.33-5.11-30.83-8.92-46.53-12.24c-15.69-3.3-31.53-6.02-47.53-7.78
					c-31.95-3.65-64.5-4.28-96.86-0.04c-16.16,2.17-32.26,5.56-47.98,10.64c-15.67,5.17-30.93,12.05-45.08,20.98
					c-3.45,2.36-7.07,4.5-10.38,7.07c-3.27,2.6-6.74,5.09-9.83,7.79l-18.03,16.47l-16.88,17.74l-15.5,19.03
					c-19.74,26.17-34.7,56.02-44.11,87.32c-9.59,31.31-13.28,63.93-13.78,96.16l-0.18,12.11c-0.12,4.04,0.3,8.05,0.43,12.07
					c0.45,8.04,0.66,16.09,1.32,24.1l2.58,23.94c0.69,8,2.42,15.85,3.65,23.75c5.07,31.63,12.89,62.64,21.48,93.31
					c0.48,1.71,2.26,2.71,3.97,2.23c1.63-0.46,2.62-2.1,2.29-3.73l-0.02-0.1c-6.35-31.03-12.98-61.99-16.39-93.34
					c-2.2-15.62-3.07-31.32-4.37-46.96c-0.42-7.83-0.38-15.67-0.6-23.5c-0.01-3.91-0.31-7.83-0.08-11.73l0.52-11.7
					c1.29-31.18,6.12-62.1,15.41-91.52c9.31-29.43,23.84-56.94,42.37-81.48l14.68-17.83l16.05-16.69l17.22-15.56
					c2.89-2.52,5.87-4.68,8.8-7.05c2.93-2.33,6.19-4.24,9.26-6.4c12.66-8.11,26.51-14.49,40.95-19.37
					c14.41-4.98,29.43-8.52,44.69-10.9c30.55-4.81,61.95-5.31,93.24-3.42c15.64,1.07,31.31,2.5,46.91,4.69
					c15.56,2.22,31.19,4.95,46.45,8.36l0.1,0.02c1.8,0.4,3.59-0.73,4-2.54C2896.76,1117.13,2895.78,1115.45,2894.18,1114.91z"/>
			</g>
		</g>
		<g>
			<linearGradient id="SVGID_3_" gradientUnits="userSpaceOnUse" x1="1547.0253" y1="3065.0447" x2="1410.5895" y2="-973.5223">
				<stop  offset="0" style="stop-color:#09005D"/>
				<stop  offset="1" style="stop-color:#1A0F91"/>
			</linearGradient>
			<path class="st6" d="M587.14,937.38c0-96.34,78.1-174.44,174.44-174.44h1483.45c81.84,0,149.32,64.14,153.49,145.87
				l109.5,2150.72c3.26,63.96-47.09,117.91-111.13,119.08l-1700.22,30.9c-60.17,1.09-109.53-47.38-109.53-107.56V937.38z"/>
			<g>
				<path class="st4" d="M708.67,796.04c-0.18-30.82,26.93-54.68,57.47-50.54c202.58,27.47,899.19,112.44,1475.15,68.22
					c26.27-2.02,49.06,17.88,50.46,44.19l114.82,2160.31c1.57,29.62-21.04,54.95-50.66,56.7
					c-242.23,14.33-1239.83,69.75-1595.66,32.48c-21.66-2.27-38.1-20.5-38.22-42.28L708.67,796.04z"/>
				<path class="st2" d="M732.53,850.18c-0.17-29.66,25.91-52.62,55.31-48.63c194.95,26.44,865.33,108.2,1419.6,65.65
					c25.28-1.94,47.21,17.21,48.56,42.53l110.49,2078.96c1.52,28.51-20.25,52.88-48.75,54.57
					c-233.11,13.8-1193.15,67.12-1535.58,31.26c-20.84-2.18-36.66-19.73-36.78-40.68L732.53,850.18z"/>
				<path class="st7" d="M913,1010.47l20.71,445.71c0.69,14.82,12.66,26.61,27.5,27.03c82.55,2.33,339.76,8.6,485,1.03
					c16.43-0.86,29.43-14.15,29.97-30.59c2.77-83.59,8.83-326.87-10.22-428.57c-3.08-16.43-17.2-28.47-33.9-29.05l-487.9-17.06
					C926.56,978.34,912.19,992.88,913,1010.47z"/>
				
					<ellipse transform="matrix(0.2757 -0.9612 0.9612 0.2757 -259.8298 1994.8118)" class="st8" cx="1193.75" cy="1169.82" rx="95.81" ry="95.81"/>
				<path class="st8" d="M1048.22,1451.12h305.25c18.71,0,29.93-20.66,19.85-36.43c-25.93-40.57-80.18-100.17-174.13-97.48
					c-90.55,2.59-144.22,56.43-171.2,95.04C1016.54,1428.64,1028.22,1451.12,1048.22,1451.12z"/>
				<g class="st9">
					<path class="st0" d="M2146.61,1049.26c2.44,0,4.38-2,4.31-4.44l-0.61-21.03c-0.07-2.44-2.13-4.47-4.57-4.52l-560.9-10
						c-2.44-0.04-3.77,1.8-2.96,4.11l11.16,31.69c0.81,2.3,3.47,4.19,5.91,4.19H2146.61z"/>
				</g>
				<g class="st9">
					<path class="st0" d="M1584.83,1092.38c-2.44-0.04-3.77,1.8-2.96,4.11l11.16,31.69c0.81,2.3,3.47,4.19,5.91,4.19h547.67
						c2.44,0,4.38-2,4.31-4.44l-0.61-21.03c-0.07-2.44-2.13-4.47-4.57-4.52L1584.83,1092.38z"/>
				</g>
				<g class="st9">
					<path class="st0" d="M1584.83,1176.67c-2.44-0.04-3.77,1.8-2.96,4.11l11.16,31.69c0.81,2.3,3.47,4.19,5.91,4.19h547.67
						c2.44,0,4.38-2,4.31-4.44l-0.61-21.03c-0.07-2.44-2.13-4.47-4.57-4.52L1584.83,1176.67z"/>
				</g>
				<g class="st9">
					<path class="st0" d="M2198.57,1623.18c2.44,0,4.31-1.99,4.15-4.43l-1.39-21.05c-0.16-2.44-2.29-4.44-4.73-4.46l-1279.3-10.08
						c-2.44-0.02-3.19,1.53-1.67,3.44l26.37,33.11c1.52,1.91,4.76,3.47,7.2,3.47H2198.57z"/>
				</g>
				<g class="st9">
					<path class="st0" d="M917.3,1666.25c-2.44-0.02-3.19,1.53-1.67,3.44l26.37,33.11c1.52,1.91,4.76,3.47,7.2,3.47h1249.38
						c2.44,0,4.31-1.99,4.15-4.43l-1.39-21.05c-0.16-2.44-2.29-4.44-4.73-4.46L917.3,1666.25z"/>
				</g>
				<g>
					<path class="st0" d="M1086.34,2232.98c-0.1,0-0.19,0-0.29,0l-105.79-1.01c-15.11-0.15-27.59-10.55-29.02-24.19l-9.3-88.76
						c-0.55-5.21,1.07-10.36,4.56-14.51c3.9-4.64,9.8-7.55,16.19-7.99l0,0c8.91-0.61,21.46-1.68,34.75-2.81
						c27.98-2.38,62.8-5.35,82.39-5.59c14.22-0.07,26.27,8.34,29.62,20.72c5.51,20.37,5.03,58.94,3.98,100.03
						C1113.09,2222.22,1100.96,2232.98,1086.34,2232.98z M963.24,2104.63c-4.2,0.29-8.04,2.15-10.52,5.11
						c-2.05,2.44-3.01,5.43-2.69,8.43l9.3,88.76c1,9.54,10.04,16.81,21.02,16.91l105.79,1.02c0.07,0,0.14,0,0.21,0
						c10.25,0,18.74-7.22,18.97-16.19c1.03-40.46,1.53-78.38-3.7-97.71c-2.34-8.66-11.35-14.68-21.68-14.72
						c-19.3,0.24-53.96,3.19-81.81,5.56C984.8,2102.95,972.22,2104.02,963.24,2104.63L963.24,2104.63z"/>
					<path class="st10" d="M974.62,2113.79c22.22-1.52,70.52-6.42,93.43-6.71c9.71-0.12,18.22,5.74,20.5,14.16
						c4.42,16.35,3.84,48.93,3.07,79.01c-0.23,9.01-8.5,16.2-18.6,16.1l-84.54-0.81c-10.4-0.1-19.03-7.19-19.99-16.42l-7.43-70.93
						C960.28,2120.85,966.38,2114.36,974.62,2113.79z"/>
					<g class="st9">
						<path class="st0" d="M1179.25,2174.04c3.06,11.61,13.61,19.67,25.62,19.57l978.78-8.35c11.07-0.09,19.93-9.23,19.69-20.3
							c-0.24-10.76-9-19.38-19.77-19.43l-978.81-4.46C1187.49,2141,1174.85,2157.34,1179.25,2174.04z"/>
					</g>
					<path class="st8" d="M979.12,2127.71L979.12,2127.71c7.85-4.61,17.96-1.86,22.4,6.09l20.87,37.4c2.09,3.74,7.55,3.51,9.31-0.4
						l51.75-115.22c2.58-5.75,11.14-3.8,11.05,2.5c-0.53,35.24-9.88,102.23-66.19,158.31c0,0-31.03-12.06-56.02-66.94
						C968.67,2141.53,971.61,2132.12,979.12,2127.71z"/>
					<path class="st0" d="M1086.34,2459.71c-0.1,0-0.19,0-0.29,0l-105.79-1.02c-15.11-0.15-27.59-10.55-29.02-24.19l-9.3-88.76
						c-0.55-5.21,1.07-10.36,4.56-14.5c3.9-4.64,9.8-7.55,16.19-7.99l0,0c8.91-0.61,21.46-1.68,34.75-2.81
						c27.98-2.38,62.8-5.35,82.39-5.59c0.14,0,0.29,0,0.43,0c13.91,0,25.88,8.47,29.2,20.72c5.51,20.38,5.03,58.94,3.98,100.03
						C1113.09,2448.95,1100.96,2459.71,1086.34,2459.71z M963.24,2331.36c-4.2,0.29-8.04,2.15-10.52,5.11
						c-2.05,2.44-3.01,5.43-2.69,8.43l9.3,88.76c1,9.54,10.04,16.81,21.02,16.91l105.79,1.02c0.07,0,0.14,0,0.21,0
						c10.25,0,18.74-7.22,18.97-16.19c1.03-40.46,1.53-78.38-3.7-97.71c-2.34-8.65-11.48-14.88-21.68-14.71
						c-19.3,0.24-53.96,3.19-81.8,5.56C984.8,2329.68,972.22,2330.75,963.24,2331.36L963.24,2331.36z"/>
					<path class="st10" d="M974.62,2340.52c22.22-1.52,70.52-6.42,93.43-6.71c9.71-0.12,18.22,5.74,20.5,14.16
						c4.42,16.35,3.84,48.93,3.07,79.01c-0.23,9.01-8.5,16.2-18.6,16.1l-84.54-0.81c-10.4-0.1-19.03-7.19-19.99-16.42l-7.43-70.93
						C960.28,2347.58,966.38,2341.08,974.62,2340.52z"/>
					<g class="st9">
						<path class="st0" d="M1179.25,2400.77c3.06,11.61,13.61,19.67,25.62,19.57l978.78-8.35c11.07-0.09,19.93-9.23,19.69-20.3
							c-0.24-10.76-9-19.38-19.77-19.43l-978.81-4.46C1187.49,2367.73,1174.85,2384.07,1179.25,2400.77z"/>
					</g>
					<path class="st8" d="M979.12,2354.44L979.12,2354.44c7.85-4.61,17.96-1.86,22.4,6.09l20.87,37.4c2.09,3.74,7.55,3.51,9.31-0.4
						l51.75-115.22c2.58-5.75,11.14-3.8,11.05,2.5c-0.53,35.24-9.88,102.23-66.19,158.31c0,0-31.03-12.06-56.02-66.94
						C968.67,2368.25,971.61,2358.85,979.12,2354.44z"/>
					<path class="st0" d="M1086.34,2686.43c-0.1,0-0.19,0-0.29,0l-105.79-1.01c-15.11-0.14-27.59-10.54-29.02-24.18l-9.3-88.76
						c-0.55-5.21,1.07-10.36,4.56-14.51c3.9-4.64,9.8-7.55,16.18-7.99l0,0c8.91-0.61,21.46-1.68,34.75-2.81
						c27.98-2.38,62.8-5.35,82.39-5.59c0.14,0,0.29,0,0.43,0c13.91,0,25.88,8.47,29.2,20.72c5.51,20.38,5.03,58.94,3.98,100.03
						C1113.09,2675.68,1100.96,2686.43,1086.34,2686.43z M963.24,2558.09c-4.2,0.29-8.04,2.15-10.52,5.11
						c-2.05,2.44-3.01,5.43-2.69,8.43l9.3,88.76c1,9.54,10.04,16.81,21.02,16.91l105.79,1.02c0.07,0,0.14,0,0.21,0
						c10.25,0,18.74-7.22,18.97-16.19c1.03-40.46,1.53-78.38-3.7-97.71c-2.34-8.65-11.48-14.91-21.68-14.72
						c-19.3,0.24-53.96,3.19-81.8,5.56C984.8,2556.4,972.22,2557.47,963.24,2558.09L963.24,2558.09z"/>
					<path class="st10" d="M974.62,2567.25c22.22-1.52,70.52-6.42,93.43-6.71c9.71-0.12,18.22,5.74,20.5,14.16
						c4.42,16.35,3.84,48.93,3.07,79.01c-0.23,9.01-8.5,16.2-18.6,16.1l-84.54-0.81c-10.4-0.1-19.03-7.19-19.99-16.42l-7.43-70.93
						C960.28,2574.31,966.38,2567.81,974.62,2567.25z"/>
					<g class="st9">
						<path class="st0" d="M1179.25,2627.5c3.06,11.61,13.61,19.67,25.62,19.57l978.78-8.35c11.07-0.09,19.93-9.22,19.69-20.3
							c-0.24-10.76-9-19.38-19.77-19.43l-978.81-4.46C1187.49,2594.46,1174.85,2610.79,1179.25,2627.5z"/>
					</g>
					<path class="st8" d="M979.12,2581.17L979.12,2581.17c7.85-4.61,17.96-1.86,22.4,6.09l20.87,37.4c2.09,3.74,7.55,3.51,9.31-0.4
						l51.75-115.22c2.58-5.75,11.14-3.8,11.05,2.5c-0.53,35.24-9.88,102.23-66.19,158.31c0,0-31.03-12.06-56.02-66.94
						C968.67,2594.98,971.61,2585.58,979.12,2581.17z"/>
					<path class="st0" d="M1086.34,2913.16c-0.1,0-0.19,0-0.29,0l-105.79-1.02c-15.11-0.14-27.59-10.54-29.02-24.18l-9.3-88.76
						c-0.55-5.21,1.07-10.36,4.56-14.51c3.9-4.64,9.8-7.55,16.18-7.99l0,0c8.91-0.61,21.46-1.68,34.75-2.81
						c27.98-2.38,62.8-5.35,82.39-5.59c0.14,0,0.29,0,0.43,0c13.91,0,25.88,8.47,29.2,20.72c5.51,20.37,5.03,58.94,3.98,100.03
						C1113.09,2902.41,1100.96,2913.16,1086.34,2913.16z M963.24,2784.82c-4.2,0.29-8.04,2.15-10.52,5.11
						c-2.05,2.44-3.01,5.43-2.69,8.43l9.3,88.76c1,9.54,10.04,16.81,21.02,16.91l105.79,1.02c0.07,0,0.14,0,0.21,0
						c10.25,0,18.74-7.22,18.97-16.19c1.03-40.46,1.53-78.38-3.7-97.71c-2.34-8.65-11.48-14.94-21.68-14.72
						c-19.3,0.24-53.96,3.19-81.8,5.56C984.8,2783.13,972.22,2784.2,963.24,2784.82L963.24,2784.82z"/>
					<path class="st10" d="M974.62,2793.98c22.22-1.52,70.52-6.42,93.43-6.71c9.71-0.12,18.22,5.74,20.5,14.16
						c4.42,16.35,3.84,48.93,3.07,79.01c-0.23,9.01-8.5,16.2-18.6,16.1l-84.54-0.81c-10.4-0.1-19.03-7.19-19.99-16.42l-7.43-70.93
						C960.28,2801.04,966.38,2794.54,974.62,2793.98z"/>
					<g class="st9">
						<path class="st0" d="M1179.25,2854.23L1179.25,2854.23c3.06,11.61,13.61,19.67,25.62,19.57l978.78-8.34
							c11.07-0.09,19.93-9.23,19.69-20.3c-0.24-10.76-9-19.38-19.77-19.43l-978.81-4.46
							C1187.49,2821.18,1174.85,2837.52,1179.25,2854.23z"/>
					</g>
				</g>
				<path class="st0" d="M1071.68,2011.11c-0.1,0-0.19,0-0.29,0l-105.79-1.02c-15.11-0.14-27.59-10.54-29.02-24.18l-9.3-88.76
					c-0.55-5.21,1.07-10.36,4.56-14.51c3.9-4.64,9.8-7.55,16.18-7.99l0,0c8.91-0.61,21.46-1.68,34.75-2.81
					c27.98-2.38,62.8-5.35,82.39-5.59c0.14,0,0.29,0,0.43,0c13.91,0,25.88,8.47,29.2,20.72c5.51,20.37,5.03,58.94,3.98,100.03
					C1098.43,2000.36,1086.3,2011.11,1071.68,2011.11z M948.58,1882.77c-4.2,0.29-8.04,2.15-10.52,5.11
					c-2.05,2.44-3.01,5.43-2.7,8.43l9.3,88.76c1,9.54,10.04,16.81,21.02,16.91l105.79,1.02c0.07,0,0.14,0,0.21,0
					c10.25,0,18.74-7.22,18.97-16.19c1.03-40.46,1.53-78.38-3.7-97.71c-2.34-8.65-11.48-14.94-21.68-14.72
					c-19.3,0.24-53.96,3.19-81.8,5.56C970.14,1881.08,957.56,1882.15,948.58,1882.77L948.58,1882.77z"/>
				<path class="st10" d="M959.96,1891.93c22.22-1.52,70.52-6.42,93.43-6.71c9.71-0.12,18.22,5.74,20.5,14.16
					c4.42,16.35,3.84,48.93,3.07,79.01c-0.23,9.01-8.5,16.2-18.6,16.1l-84.54-0.81c-10.4-0.1-19.03-7.19-19.99-16.42l-7.43-70.93
					C945.62,1898.99,951.72,1892.49,959.96,1891.93z"/>
				<g class="st9">
					<path class="st0" d="M1164.59,1952.18L1164.59,1952.18c3.06,11.61,13.61,19.67,25.62,19.57l978.78-8.34
						c11.07-0.09,19.93-9.23,19.69-20.3c-0.24-10.76-9-19.38-19.77-19.43l-978.81-4.46
						C1172.83,1919.13,1160.19,1935.47,1164.59,1952.18z"/>
				</g>
				<path class="st8" d="M964.46,1905.85L964.46,1905.85c7.85-4.61,17.96-1.86,22.4,6.09l20.87,37.4c2.09,3.74,7.55,3.51,9.31-0.4
					l51.75-115.22c2.58-5.75,11.14-3.8,11.05,2.5c-0.53,35.24-9.88,102.23-66.19,158.31c0,0-31.03-12.06-56.02-66.94
					C954.01,1919.66,956.95,1910.25,964.46,1905.85z"/>
			</g>
			<linearGradient id="SVGID_4_" gradientUnits="userSpaceOnUse" x1="1760.8176" y1="248.2701" x2="1078.4835" y2="1145.8646">
				<stop  offset="0" style="stop-color:#09005D"/>
				<stop  offset="1" style="stop-color:#1A0F91"/>
			</linearGradient>
			<path class="st11" d="M1595.31,469.7c-53.58-37.28-100.18-36.54-132.98-26.86c-29.92,8.83-49.31,37.71-46.47,68.78l14.14,154.39
				l168.32,14.94C1598.33,680.95,1700.4,542.81,1595.31,469.7z M1521.29,594.25c-23.18,0-41.97-18.79-41.97-41.97
				c0-23.18,18.79-41.97,41.97-41.97c23.18,0,41.97,18.79,41.97,41.97C1563.26,575.46,1544.47,594.25,1521.29,594.25z"/>
			<path class="st4" d="M1446.83,601.06c-2.08,0-3.85-1.58-4.04-3.69l-2.25-24.59c-0.21-2.23,1.44-4.21,3.67-4.41
				c2.28-0.21,4.21,1.44,4.41,3.68l2.25,24.59c0.21,2.23-1.44,4.21-3.67,4.41C1447.08,601.06,1446.95,601.06,1446.83,601.06z
				 M1442.41,552.88c-2.08,0-3.85-1.58-4.04-3.69l-1.71-18.67c-2.71-29.59,15.91-57.15,44.27-65.52
				c20.09-5.93,40.79-6.78,61.52-2.53c2.2,0.45,3.61,2.6,3.16,4.8c-0.45,2.19-2.58,3.6-4.79,3.16c-19.42-3.97-38.79-3.19-57.59,2.36
				c-24.66,7.28-40.84,31.25-38.48,56.99l1.71,18.67c0.21,2.23-1.44,4.21-3.67,4.41C1442.66,552.88,1442.54,552.88,1442.41,552.88z"
				/>
			<linearGradient id="SVGID_5_" gradientUnits="userSpaceOnUse" x1="1835.6644" y1="305.1653" x2="1153.3296" y2="1202.7607">
				<stop  offset="0" style="stop-color:#09005D"/>
				<stop  offset="1" style="stop-color:#1A0F91"/>
			</linearGradient>
			<path class="st12" d="M1200.29,765.78v-77.62c0-26.79,22.21-48.26,48.99-47.34l535.17,18.34c23.75,0.81,42.98,19.56,44.41,43.28
				l4.47,74.58L1200.29,765.78z"/>
			<path class="st4" d="M1399.84,670.07h-23.01c-2.24,0-4.06-1.82-4.06-4.06c0-2.25,1.82-4.06,4.06-4.06h23.01
				c2.24,0,4.06,1.82,4.06,4.06C1403.91,668.25,1402.09,670.07,1399.84,670.07z"/>
			<path class="st4" d="M1229.26,741.41c-2.24,0-4.06-1.82-4.06-4.06v-31.4c0-24.26,19.74-44,44-44h84.61
				c2.24,0,4.06,1.82,4.06,4.06c0,2.24-1.82,4.06-4.06,4.06h-84.61c-19.78,0-35.88,16.1-35.88,35.88v31.4
				C1233.32,739.59,1231.5,741.41,1229.26,741.41z"/>
			<path class="st13" d="M982.24,785.38c1.29-26.88,23.46-48.01,50.37-48.01l935.84-0.03c33.65,0,62.42,24.21,68.16,57.37l0.79,4.58
				c6.29,36.32-21.67,69.54-58.53,69.54h-960.12c-22.06,0-39.64-18.44-38.58-40.48L982.24,785.38z"/>
		</g>
		<g>
			<g>
				<linearGradient id="SVGID_6_" gradientUnits="userSpaceOnUse" x1="2041.2195" y1="2293.04" x2="3734.0017" y2="1130.4668">
					<stop  offset="0" style="stop-color:#4F52FF"/>
					<stop  offset="1" style="stop-color:#4042E2"/>
				</linearGradient>
				<path class="st14" d="M1521.5,1449.63c12.69-11.88,29.84-17.79,47.16-16.23c185.23,16.66,530.83-72.57,756.7-303.67
					c15.68-16.05,44.27-6.98,62.25,6.46c251.2,187.74,667.59,226.62,812.13,234.57c29.9,1.65,54.16,24.84,57.25,54.63
					c131.45,1269.61-695.18,1729.67-866.63,1810.88c-18.74,8.88-40.8,7.59-58.41-3.37c-854.48-532.24-817.92-1224.4-829.74-1737.26
					C1501.81,1478.25,1508.81,1461.51,1521.5,1449.63z"/>
				<path class="st4" d="M2367.24,3144.88c-3.98,0-7.95-1.12-11.41-3.33c-327.75-209.51-541.37-460-653.06-765.77
					c-99.75-273.08-104.63-551.08-108.93-796.34l-0.58-32.69c-0.11-5.68,2.02-11.04,6-15.08c4.01-4.08,9.39-6.33,15.14-6.33h0.01
					c202.7,0,506.97-89.51,730.15-289.49c7.14-6.4,17.71-7.17,25.72-1.86c245.23,162.72,595.1,210.1,781.84,223.87
					c10.35,0.76,18.52,8.83,19.43,19.19c43.44,495.59-59.65,914.69-306.42,1245.64c-184.31,247.19-402.87,375.98-488.28,419.89l0,0
					C2373.83,3144.11,2370.53,3144.88,2367.24,3144.88z M1614.56,1535.31c-3.22,0-6.07,1.19-8.19,3.34
					c-2.08,2.12-3.2,4.93-3.15,7.91l0.58,32.69c4.29,244.48,9.16,521.59,108.33,793.1c110.91,303.64,323.22,552.49,649.06,760.78
					c3.33,2.13,7.57,2.34,11.06,0.55l0,0c84.79-43.58,301.78-171.46,484.84-416.97c245.26-328.93,347.7-745.72,304.48-1238.8
					c-0.48-5.45-4.78-9.7-10.22-10.1c-187.7-13.84-539.5-61.53-786.62-225.5c-4.21-2.79-9.78-2.39-13.53,0.98
					C2126.07,1445.02,1819.01,1535.31,1614.56,1535.31L1614.56,1535.31z"/>
			</g>
		</g>
		<g>
			<linearGradient id="SVGID_7_" gradientUnits="userSpaceOnUse" x1="699.5376" y1="3645.6365" x2="761.015" y2="3193.0938">
				<stop  offset="0" style="stop-color:#4F52FF"/>
				<stop  offset="1" style="stop-color:#4042E2"/>
			</linearGradient>
			<path class="st15" d="M450.48,2957.59l7.02,218.27c1.22,38.06,32.46,68.35,70.72,68.57l522.69,3.08
				c25.57,0.15,47.35-18.43,51.09-43.61c8.17-55.12,18.59-153.75,6.86-246.32H450.48z"/>
			<path class="st0" d="M1032.39,3234.11L1032.39,3234.11l-3.81-0.02c-0.35,0-0.63-0.29-0.63-0.64c0-0.35,0.29-0.63,0.63-0.63h0
				l3.81,0.02c0.35,0,0.63,0.29,0.63,0.64C1033.02,3233.83,1032.74,3234.11,1032.39,3234.11z M1041.27,3234.05
				c-0.33,0-0.61-0.26-0.63-0.6c-0.02-0.35,0.24-0.65,0.59-0.67c1.24-0.08,2.5-0.2,3.74-0.38c0.34-0.06,0.67,0.19,0.72,0.54
				c0.05,0.35-0.19,0.67-0.54,0.72c-1.27,0.18-2.56,0.31-3.83,0.39C1041.3,3234.05,1041.28,3234.05,1041.27,3234.05z
				 M1019.7,3234.04L1019.7,3234.04l-3.81-0.02c-0.35,0-0.63-0.29-0.63-0.64c0-0.35,0.29-0.63,0.63-0.63h0l3.81,0.02
				c0.35,0,0.63,0.29,0.63,0.64C1020.33,3233.75,1020.05,3234.04,1019.7,3234.04z M1007.01,3233.96L1007.01,3233.96l-3.81-0.02
				c-0.35,0-0.63-0.29-0.63-0.64c0-0.35,0.29-0.63,0.63-0.63h0l3.81,0.02c0.35,0,0.63,0.29,0.63,0.64
				C1007.64,3233.68,1007.36,3233.96,1007.01,3233.96z M994.32,3233.89L994.32,3233.89l-3.81-0.02c-0.35,0-0.63-0.29-0.63-0.64
				c0-0.35,0.34-0.61,0.64-0.63l3.81,0.02c0.35,0,0.63,0.29,0.63,0.64C994.95,3233.6,994.67,3233.89,994.32,3233.89z
				 M981.63,3233.81L981.63,3233.81l-3.81-0.02c-0.35,0-0.63-0.29-0.63-0.64c0-0.35,0.29-0.63,0.63-0.63h0l3.81,0.02
				c0.35,0,0.63,0.29,0.63,0.64C982.26,3233.53,981.97,3233.81,981.63,3233.81z M968.93,3233.74L968.93,3233.74l-3.81-0.02
				c-0.35,0-0.63-0.29-0.63-0.64c0-0.35,0.34-0.64,0.64-0.63l3.81,0.02c0.35,0,0.63,0.29,0.63,0.64
				C969.57,3233.45,969.28,3233.74,968.93,3233.74z M956.24,3233.66L956.24,3233.66l-3.81-0.02c-0.35,0-0.63-0.29-0.63-0.64
				c0-0.35,0.29-0.63,0.63-0.63h0l3.81,0.02c0.35,0,0.63,0.29,0.63,0.64C956.88,3233.38,956.59,3233.66,956.24,3233.66z
				 M943.55,3233.59L943.55,3233.59l-3.81-0.02c-0.35,0-0.63-0.29-0.63-0.64c0-0.35,0.29-0.63,0.63-0.63h0l3.81,0.02
				c0.35,0,0.63,0.29,0.63,0.64C944.18,3233.3,943.9,3233.59,943.55,3233.59z M930.86,3233.51L930.86,3233.51l-3.81-0.02
				c-0.35,0-0.63-0.29-0.63-0.64c0-0.35,0.29-0.63,0.63-0.63h0l3.81,0.02c0.35,0,0.63,0.29,0.63,0.64
				C931.49,3233.23,931.21,3233.51,930.86,3233.51z M918.17,3233.44L918.17,3233.44l-3.81-0.02c-0.35,0-0.63-0.29-0.63-0.64
				c0-0.35,0.29-0.63,0.63-0.63h0l3.81,0.02c0.35,0,0.63,0.29,0.63,0.64C918.8,3233.16,918.52,3233.44,918.17,3233.44z
				 M905.48,3233.36L905.48,3233.36l-3.81-0.02c-0.35,0-0.63-0.29-0.63-0.64c0-0.35,0.29-0.63,0.63-0.63h0l3.81,0.02
				c0.35,0,0.63,0.29,0.63,0.64C906.11,3233.08,905.83,3233.36,905.48,3233.36z M892.79,3233.29L892.79,3233.29l-3.81-0.02
				c-0.35,0-0.63-0.29-0.63-0.64c0-0.35,0.29-0.63,0.63-0.63h0l3.81,0.02c0.35,0,0.63,0.29,0.63,0.64
				C893.42,3233.01,893.14,3233.29,892.79,3233.29z M880.1,3233.21L880.1,3233.21l-3.81-0.02c-0.35,0-0.63-0.29-0.63-0.64
				c0-0.35,0.29-0.63,0.63-0.63h0l3.81,0.02c0.35,0,0.63,0.29,0.63,0.64C880.73,3232.93,880.45,3233.21,880.1,3233.21z
				 M867.41,3233.14L867.41,3233.14l-3.81-0.02c-0.35,0-0.63-0.29-0.63-0.64c0-0.35,0.29-0.63,0.63-0.63h0l3.81,0.02
				c0.35,0,0.63,0.29,0.63,0.64C868.04,3232.86,867.75,3233.14,867.41,3233.14z M854.71,3233.06L854.71,3233.06l-3.81-0.02
				c-0.35,0-0.63-0.29-0.63-0.64c0-0.35,0.29-0.63,0.63-0.63h0l3.81,0.02c0.35,0,0.63,0.29,0.63,0.64
				C855.35,3232.78,855.06,3233.06,854.71,3233.06z M842.02,3232.99L842.02,3232.99l-3.81-0.02c-0.35,0-0.63-0.29-0.63-0.64
				c0-0.35,0.33-0.59,0.64-0.63l3.81,0.02c0.35,0,0.63,0.29,0.63,0.64C842.66,3232.71,842.37,3232.99,842.02,3232.99z
				 M829.33,3232.91L829.33,3232.91l-3.81-0.02c-0.35,0-0.63-0.29-0.63-0.64c0-0.35,0.29-0.63,0.63-0.63h0l3.81,0.02
				c0.35,0,0.63,0.29,0.63,0.64C829.96,3232.63,829.68,3232.91,829.33,3232.91z M816.64,3232.84L816.64,3232.84l-3.81-0.02
				c-0.35,0-0.63-0.29-0.63-0.64s0.33-0.62,0.64-0.63l3.81,0.02c0.35,0,0.63,0.29,0.63,0.64
				C817.27,3232.56,816.99,3232.84,816.64,3232.84z M803.95,3232.76L803.95,3232.76l-3.81-0.02c-0.35,0-0.63-0.29-0.63-0.64
				c0-0.35,0.29-0.63,0.63-0.63h0l3.81,0.02c0.35,0,0.63,0.29,0.63,0.64C804.58,3232.48,804.3,3232.76,803.95,3232.76z
				 M791.26,3232.69L791.26,3232.69l-3.81-0.02c-0.35,0-0.63-0.29-0.63-0.64c0-0.35,0.32-0.64,0.64-0.63l3.81,0.02
				c0.35,0,0.63,0.29,0.63,0.64C791.89,3232.41,791.61,3232.69,791.26,3232.69z M778.57,3232.61L778.57,3232.61l-3.81-0.02
				c-0.35,0-0.63-0.29-0.63-0.64c0-0.35,0.29-0.63,0.63-0.63h0l3.81,0.02c0.35,0,0.63,0.29,0.63,0.64
				C779.2,3232.33,778.92,3232.61,778.57,3232.61z M765.88,3232.54L765.88,3232.54l-3.81-0.02c-0.35,0-0.63-0.29-0.63-0.64
				c0-0.35,0.29-0.63,0.63-0.63h0l3.81,0.02c0.35,0,0.63,0.29,0.63,0.64C766.51,3232.26,766.23,3232.54,765.88,3232.54z
				 M753.18,3232.46L753.18,3232.46l-3.81-0.02c-0.35,0-0.63-0.29-0.63-0.64c0-0.35,0.29-0.63,0.63-0.63h0l3.81,0.02
				c0.35,0,0.63,0.29,0.63,0.64C753.82,3232.18,753.53,3232.46,753.18,3232.46z M740.49,3232.39L740.49,3232.39l-3.81-0.02
				c-0.35,0-0.63-0.29-0.63-0.64c0-0.35,0.29-0.63,0.63-0.63h0l3.81,0.02c0.35,0,0.63,0.29,0.63,0.64
				C741.13,3232.11,740.84,3232.39,740.49,3232.39z M727.8,3232.31L727.8,3232.31l-3.81-0.02c-0.35,0-0.63-0.29-0.63-0.64
				c0-0.35,0.29-0.63,0.63-0.63h0l3.81,0.02c0.35,0,0.63,0.29,0.63,0.64C728.44,3232.03,728.15,3232.31,727.8,3232.31z
				 M715.11,3232.24L715.11,3232.24l-3.81-0.02c-0.35,0-0.63-0.29-0.63-0.64c0-0.35,0.29-0.63,0.63-0.63h0l3.81,0.02
				c0.35,0,0.63,0.29,0.63,0.64C715.74,3231.96,715.46,3232.24,715.11,3232.24z M702.42,3232.17L702.42,3232.17l-3.81-0.02
				c-0.35,0-0.63-0.29-0.63-0.64c0-0.35,0.29-0.63,0.63-0.63h0l3.81,0.02c0.35,0,0.63,0.29,0.63,0.64
				C703.05,3231.88,702.77,3232.17,702.42,3232.17z M689.73,3232.09L689.73,3232.09l-3.81-0.02c-0.35,0-0.63-0.29-0.63-0.64
				c0-0.35,0.29-0.63,0.63-0.63h0l3.81,0.02c0.35,0,0.63,0.29,0.63,0.64C690.36,3231.81,690.08,3232.09,689.73,3232.09z
				 M677.04,3232.02L677.04,3232.02l-3.81-0.02c-0.35,0-0.63-0.29-0.63-0.64c0-0.35,0.29-0.63,0.63-0.63h0l3.81,0.02
				c0.35,0,0.63,0.29,0.63,0.64C677.67,3231.73,677.39,3232.02,677.04,3232.02z M664.35,3231.94L664.35,3231.94l-3.81-0.02
				c-0.35,0-0.63-0.29-0.63-0.64c0-0.35,0.31-0.6,0.64-0.63l3.81,0.02c0.35,0,0.63,0.29,0.63,0.64
				C664.98,3231.66,664.7,3231.94,664.35,3231.94z M651.66,3231.87L651.66,3231.87l-3.81-0.02c-0.35,0-0.63-0.29-0.63-0.64
				c0-0.35,0.29-0.63,0.63-0.63h0l3.81,0.02c0.35,0,0.63,0.29,0.63,0.64C652.29,3231.58,652,3231.87,651.66,3231.87z
				 M638.97,3231.79L638.97,3231.79l-3.81-0.02c-0.35,0-0.63-0.29-0.63-0.64c0-0.35,0.31-0.62,0.64-0.63l3.81,0.02
				c0.35,0,0.63,0.29,0.63,0.64C639.6,3231.51,639.31,3231.79,638.97,3231.79z M626.27,3231.72L626.27,3231.72l-3.81-0.02
				c-0.35,0-0.63-0.29-0.63-0.64c0-0.35,0.29-0.63,0.63-0.63h0l3.81,0.02c0.35,0,0.63,0.29,0.63,0.64
				C626.91,3231.43,626.62,3231.72,626.27,3231.72z M1053.69,3231.65c-0.27,0-0.51-0.17-0.6-0.43c-0.11-0.33,0.07-0.69,0.4-0.8
				c1.18-0.39,2.37-0.84,3.52-1.32c0.32-0.13,0.7,0.02,0.83,0.34c0.14,0.32-0.02,0.7-0.34,0.83c-1.18,0.5-2.39,0.95-3.61,1.36
				C1053.83,3231.64,1053.76,3231.65,1053.69,3231.65z M613.58,3231.64L613.58,3231.64l-3.81-0.02c-0.35,0-0.63-0.29-0.63-0.64
				c0-0.35,0.31-0.65,0.64-0.63l3.81,0.02c0.35,0,0.63,0.29,0.63,0.64C614.22,3231.36,613.93,3231.64,613.58,3231.64z
				 M600.89,3231.57L600.89,3231.57l-3.81-0.02c-0.35,0-0.63-0.29-0.63-0.64c0-0.35,0.29-0.63,0.63-0.63h0l3.81,0.02
				c0.35,0,0.63,0.29,0.63,0.64C601.52,3231.29,601.24,3231.57,600.89,3231.57z M588.2,3231.49L588.2,3231.49l-3.81-0.02
				c-0.35,0-0.63-0.29-0.63-0.64c0-0.35,0.29-0.63,0.63-0.63h0l3.81,0.02c0.35,0,0.63,0.29,0.63,0.64
				C588.83,3231.21,588.55,3231.49,588.2,3231.49z M575.51,3231.42L575.51,3231.42l-3.81-0.02c-0.35,0-0.63-0.29-0.63-0.64
				c0-0.35,0.29-0.63,0.63-0.63h0l3.81,0.02c0.35,0,0.63,0.29,0.63,0.64C576.14,3231.14,575.86,3231.42,575.51,3231.42z
				 M562.82,3231.34L562.82,3231.34l-3.81-0.02c-0.35,0-0.63-0.29-0.63-0.64c0-0.35,0.29-0.63,0.63-0.63h0l3.81,0.02
				c0.35,0,0.63,0.29,0.63,0.64C563.45,3231.06,563.17,3231.34,562.82,3231.34z M550.13,3231.27L550.13,3231.27l-3.81-0.02
				c-0.35,0-0.63-0.29-0.63-0.64c0-0.35,0.29-0.63,0.63-0.63h0l3.81,0.02c0.35,0,0.63,0.29,0.63,0.64
				C550.76,3230.99,550.48,3231.27,550.13,3231.27z M537.44,3231.13c-0.01,0-0.02,0-0.02,0c-1.28-0.06-2.57-0.16-3.84-0.3
				c-0.35-0.04-0.6-0.35-0.56-0.7c0.04-0.35,0.34-0.61,0.7-0.56c1.25,0.13,2.51,0.23,3.76,0.29c0.35,0.02,0.62,0.32,0.6,0.67
				C538.05,3230.86,537.77,3231.13,537.44,3231.13z M524.9,3229.32c-0.05,0-0.1-0.01-0.15-0.02c-1.24-0.3-2.49-0.64-3.71-1.01
				c-0.34-0.1-0.53-0.45-0.42-0.79c0.1-0.34,0.46-0.53,0.79-0.42c1.2,0.36,2.42,0.69,3.64,0.99c0.34,0.08,0.55,0.42,0.47,0.77
				C525.44,3229.12,525.18,3229.32,524.9,3229.32z M1065.09,3226.14c-0.21,0-0.41-0.1-0.53-0.29c-0.19-0.29-0.11-0.69,0.18-0.88
				c1.05-0.69,2.08-1.42,3.06-2.18c0.28-0.21,0.68-0.16,0.89,0.11c0.21,0.28,0.16,0.68-0.11,0.89c-1.01,0.78-2.07,1.53-3.14,2.24
				C1065.33,3226.1,1065.21,3226.14,1065.09,3226.14z M512.91,3225.21c-0.09,0-0.18-0.02-0.26-0.06c-1.16-0.52-2.32-1.09-3.45-1.68
				c-0.31-0.16-0.43-0.55-0.27-0.86c0.16-0.31,0.54-0.43,0.86-0.27c1.11,0.58,2.25,1.13,3.38,1.65c0.32,0.14,0.46,0.52,0.32,0.84
				C513.39,3225.07,513.16,3225.21,512.91,3225.21z M501.91,3218.94c-0.13,0-0.25-0.04-0.36-0.12c-1.04-0.73-2.08-1.5-3.08-2.29
				c-0.28-0.22-0.32-0.62-0.11-0.89c0.22-0.27,0.62-0.32,0.89-0.11c0.98,0.77,2,1.53,3.02,2.25c0.29,0.2,0.36,0.6,0.15,0.88
				C502.31,3218.84,502.11,3218.94,501.91,3218.94z M1074.68,3217.89c-0.15,0-0.3-0.05-0.42-0.16c-0.26-0.23-0.28-0.64-0.05-0.9
				c0.83-0.93,1.64-1.9,2.4-2.89c0.21-0.28,0.61-0.33,0.89-0.12c0.28,0.21,0.33,0.61,0.12,0.89c-0.78,1.02-1.61,2.02-2.46,2.97
				C1075.03,3217.82,1074.86,3217.89,1074.68,3217.89z M492.27,3210.73c-0.16,0-0.33-0.06-0.45-0.19c-0.89-0.91-1.77-1.86-2.6-2.83
				c-0.23-0.26-0.2-0.66,0.06-0.89c0.26-0.23,0.66-0.2,0.89,0.06c0.82,0.94,1.68,1.88,2.56,2.77c0.24,0.25,0.24,0.65-0.01,0.9
				C492.59,3210.67,492.43,3210.73,492.27,3210.73z M1081.83,3207.45c-0.1,0-0.19-0.02-0.29-0.07c-0.31-0.16-0.44-0.54-0.28-0.85
				c0.56-1.11,1.09-2.26,1.56-3.41c0.13-0.32,0.51-0.48,0.83-0.35c0.32,0.13,0.48,0.5,0.35,0.83c-0.49,1.18-1.03,2.36-1.61,3.5
				C1082.29,3207.32,1082.06,3207.45,1081.83,3207.45z M484.31,3200.87c-0.21,0-0.41-0.1-0.53-0.28c-0.71-1.07-1.39-2.16-2.03-3.26
				c-0.18-0.3-0.07-0.69,0.23-0.87c0.3-0.18,0.69-0.07,0.87,0.23c0.63,1.08,1.3,2.16,1.99,3.2c0.19,0.29,0.11,0.69-0.18,0.88
				C484.55,3200.84,484.43,3200.87,484.31,3200.87z M1086.03,3195.52c-0.04,0-0.09,0-0.13-0.01c-0.34-0.07-0.56-0.41-0.49-0.75
				c0.2-0.93,0.37-1.89,0.51-2.84l0.13-0.87c0.05-0.35,0.37-0.59,0.72-0.54c0.35,0.05,0.59,0.37,0.54,0.72l-0.13,0.88
				c-0.15,0.98-0.32,1.96-0.52,2.91C1086.59,3195.31,1086.32,3195.52,1086.03,3195.52z M478.34,3189.69c-0.25,0-0.48-0.15-0.59-0.39
				c-0.49-1.18-0.96-2.38-1.38-3.59c-0.12-0.33,0.06-0.69,0.39-0.81c0.33-0.11,0.69,0.06,0.81,0.39c0.42,1.18,0.87,2.37,1.36,3.52
				c0.14,0.32-0.02,0.69-0.34,0.83C478.5,3189.67,478.42,3189.69,478.34,3189.69z M1087.93,3182.97c-0.03,0-0.06,0-0.09-0.01
				c-0.35-0.05-0.59-0.37-0.54-0.72c0.17-1.24,0.34-2.5,0.52-3.77c0.05-0.35,0.36-0.59,0.71-0.54c0.35,0.05,0.59,0.37,0.54,0.71
				c-0.17,1.28-0.35,2.53-0.52,3.77C1088.52,3182.74,1088.24,3182.97,1087.93,3182.97z M474.58,3177.58c-0.29,0-0.56-0.21-0.62-0.51
				c-0.26-1.25-0.49-2.52-0.68-3.78c-0.05-0.35,0.19-0.67,0.53-0.72c0.35-0.04,0.67,0.19,0.72,0.53c0.18,1.23,0.41,2.48,0.66,3.71
				c0.07,0.34-0.15,0.68-0.49,0.75C474.66,3177.57,474.62,3177.58,474.58,3177.58z M1089.61,3170.39c-0.03,0-0.05,0-0.08,0
				c-0.35-0.04-0.59-0.36-0.55-0.71l0.47-3.78c0.04-0.35,0.36-0.6,0.71-0.55c0.35,0.04,0.59,0.36,0.55,0.71l-0.47,3.78
				C1090.2,3170.15,1089.92,3170.39,1089.61,3170.39z M473.16,3164.99c-0.34,0-0.62-0.27-0.63-0.61l-0.12-3.81
				c-0.01-0.35,0.26-0.64,0.61-0.65c0.35-0.03,0.64,0.26,0.65,0.61l0.12,3.81c0.01,0.35-0.26,0.64-0.61,0.65L473.16,3164.99z
				 M1091.14,3157.79c-0.02,0-0.05,0-0.07,0c-0.35-0.04-0.6-0.35-0.56-0.7c0.15-1.25,0.29-2.51,0.43-3.78
				c0.04-0.35,0.36-0.59,0.7-0.56c0.35,0.04,0.6,0.35,0.56,0.7c-0.14,1.27-0.29,2.54-0.43,3.79
				C1091.73,3157.55,1091.46,3157.79,1091.14,3157.79z M472.75,3152.3c-0.34,0-0.62-0.27-0.63-0.61l-0.12-3.81
				c-0.01-0.35,0.26-0.64,0.61-0.65c0.35-0.02,0.64,0.26,0.65,0.61l0.12,3.81c0.01,0.35-0.26,0.64-0.61,0.65L472.75,3152.3z
				 M1092.53,3145.17c0,0-0.04,0-0.07,0c-0.35-0.04-0.6-0.35-0.57-0.7c0.13-1.25,0.26-2.52,0.39-3.79c0.03-0.35,0.35-0.6,0.7-0.57
				c0.35,0.04,0.6,0.35,0.57,0.7c-0.13,1.27-0.26,2.54-0.39,3.79C1093.13,3144.93,1092.85,3145.17,1092.53,3145.17z M472.34,3139.62
				c-0.34,0-0.62-0.27-0.63-0.61l-0.12-3.81c-0.01-0.35,0.26-0.64,0.61-0.65c0.3-0.05,0.64,0.26,0.65,0.61l0.12,3.81
				c0.01,0.35-0.26,0.64-0.61,0.65L472.34,3139.62z M1093.77,3132.54c-0.02,0-0.04,0-0.06,0c-0.35-0.03-0.61-0.34-0.57-0.69
				c0.12-1.26,0.23-2.52,0.34-3.79c0.03-0.35,0.33-0.61,0.69-0.58c0.35,0.03,0.61,0.34,0.58,0.69c-0.11,1.27-0.23,2.54-0.34,3.79
				C1094.37,3132.29,1094.1,3132.54,1093.77,3132.54z M471.94,3126.93c-0.34,0-0.62-0.27-0.63-0.61l-0.12-3.81
				c-0.01-0.35,0.26-0.64,0.61-0.65c0.3-0.05,0.64,0.26,0.66,0.61l0.12,3.81c0.01,0.35-0.26,0.64-0.61,0.65L471.94,3126.93z
				 M1094.87,3119.89c-0.02,0-0.03,0-0.05,0c-0.35-0.03-0.61-0.33-0.58-0.68l0.3-3.79c0.03-0.35,0.32-0.61,0.68-0.58
				c0.35,0.03,0.61,0.33,0.58,0.68l-0.3,3.8C1095.47,3119.64,1095.2,3119.89,1094.87,3119.89z M471.53,3114.25
				c-0.34,0-0.62-0.27-0.63-0.61l-0.12-3.81c-0.01-0.35,0.26-0.64,0.61-0.65c0.34-0.02,0.64,0.26,0.65,0.61l0.12,3.81
				c0.01,0.35-0.26,0.64-0.61,0.65C471.54,3114.25,471.53,3114.25,471.53,3114.25z M1095.81,3107.23c0,0-0.03,0-0.04,0
				c-0.35-0.02-0.61-0.33-0.59-0.68l0.25-3.8c0.02-0.35,0.32-0.61,0.67-0.59c0.35,0.02,0.61,0.32,0.59,0.67l-0.25,3.8
				C1096.42,3106.98,1096.15,3107.23,1095.81,3107.23z M471.12,3101.56c-0.34,0-0.62-0.27-0.63-0.61l-0.12-3.8
				c-0.01-0.35,0.26-0.64,0.61-0.65c0.34-0.04,0.64,0.26,0.65,0.61l0.12,3.8c0.01,0.35-0.26,0.64-0.61,0.66
				C471.13,3101.56,471.13,3101.56,471.12,3101.56z M1096.6,3094.56c0,0-0.02,0-0.04,0c-0.35-0.02-0.62-0.32-0.6-0.67
				c0.07-1.26,0.14-2.53,0.21-3.8c0.02-0.35,0.32-0.62,0.67-0.6c0.35,0.02,0.62,0.32,0.6,0.67c-0.07,1.27-0.14,2.54-0.21,3.8
				C1097.22,3094.3,1096.94,3094.56,1096.6,3094.56z M470.71,3088.88c-0.34,0-0.62-0.27-0.63-0.61l-0.12-3.81
				c-0.01-0.35,0.26-0.64,0.61-0.65c0.33-0.03,0.64,0.26,0.65,0.61l0.12,3.81c0.01,0.35-0.26,0.64-0.61,0.65
				C470.73,3088.88,470.72,3088.88,470.71,3088.88z M1097.23,3081.89l-0.03,0c-0.35-0.01-0.62-0.31-0.61-0.66
				c0.05-1.26,0.11-2.53,0.16-3.8c0.01-0.35,0.31-0.64,0.66-0.61c0.35,0.01,0.62,0.31,0.61,0.66c-0.05,1.27-0.1,2.54-0.16,3.81
				C1097.85,3081.62,1097.57,3081.89,1097.23,3081.89z M470.3,3076.19c-0.34,0-0.62-0.27-0.63-0.61l-0.12-3.81
				c-0.01-0.35,0.26-0.64,0.61-0.65c0.31-0.04,0.64,0.26,0.65,0.61l0.12,3.81c0.01,0.35-0.26,0.64-0.61,0.65
				C470.32,3076.19,470.31,3076.19,470.3,3076.19z M1097.69,3069.2h-0.02c-0.35-0.01-0.63-0.3-0.62-0.65
				c0.04-1.27,0.07-2.53,0.1-3.8c0.01-0.35,0.29-0.62,0.65-0.62c0.35,0.01,0.63,0.3,0.62,0.65c-0.03,1.27-0.07,2.54-0.1,3.81
				C1098.31,3068.93,1098.03,3069.2,1097.69,3069.2z M469.9,3063.51c-0.34,0-0.62-0.27-0.63-0.61l-0.12-3.81
				c-0.01-0.35,0.26-0.64,0.61-0.65c0.31-0.04,0.64,0.26,0.65,0.61l0.12,3.81c0.01,0.35-0.26,0.64-0.61,0.65L469.9,3063.51z
				 M1097.97,3056.51C1097.97,3056.51,1097.97,3056.51,1097.97,3056.51c-0.36-0.01-0.64-0.29-0.63-0.64
				c0.02-1.27,0.04-2.53,0.05-3.8c0-0.35,0.33-0.62,0.64-0.63c0.35,0,0.63,0.29,0.63,0.64c-0.01,1.27-0.03,2.54-0.05,3.81
				C1098.6,3056.23,1098.32,3056.51,1097.97,3056.51z M469.49,3050.82c-0.34,0-0.62-0.27-0.63-0.61l-0.12-3.81
				c-0.01-0.35,0.26-0.64,0.61-0.65c0.31-0.03,0.64,0.26,0.65,0.61l0.12,3.81c0.01,0.35-0.26,0.64-0.61,0.65L469.49,3050.82z
				 M1098.07,3043.82c-0.35,0-0.63-0.28-0.63-0.63v-0.31c0-1.16,0-2.33-0.01-3.5c0-0.35,0.28-0.64,0.63-0.64h0
				c0.35,0,0.63,0.28,0.64,0.63c0.01,1.17,0.01,2.34,0.01,3.5v0.31C1098.71,3043.53,1098.42,3043.82,1098.07,3043.82z
				 M469.08,3038.14c-0.34,0-0.62-0.27-0.63-0.61l-0.12-3.8c-0.01-0.35,0.26-0.64,0.61-0.65c0.35-0.04,0.64,0.26,0.65,0.61l0.12,3.8
				c0.01,0.35-0.26,0.64-0.61,0.66H469.08z M1097.98,3031.13c-0.35,0-0.63-0.28-0.63-0.63c-0.02-1.27-0.04-2.53-0.07-3.8
				c-0.01-0.35,0.27-0.64,0.62-0.65c0.3-0.02,0.64,0.27,0.65,0.62c0.03,1.27,0.05,2.54,0.07,3.81c0.01,0.35-0.27,0.64-0.62,0.64
				H1097.98z M468.67,3025.45c-0.34,0-0.62-0.27-0.63-0.61l-0.12-3.81c-0.01-0.35,0.26-0.64,0.61-0.65
				c0.31-0.03,0.64,0.26,0.65,0.61l0.12,3.81c0.01,0.35-0.26,0.64-0.61,0.66C468.69,3025.45,468.68,3025.45,468.67,3025.45z
				 M1097.68,3018.45c-0.34,0-0.62-0.27-0.63-0.61c-0.04-1.27-0.08-2.53-0.13-3.8c-0.01-0.35,0.26-0.64,0.61-0.66
				c0.35-0.03,0.65,0.26,0.66,0.61c0.05,1.27,0.09,2.54,0.13,3.81c0.01,0.35-0.26,0.64-0.61,0.65
				C1097.69,3018.45,1097.69,3018.45,1097.68,3018.45z M468.27,3012.77c-0.34,0-0.62-0.27-0.63-0.61l-0.12-3.81
				c-0.01-0.35,0.26-0.64,0.61-0.65c0.35-0.02,0.64,0.26,0.65,0.61l0.12,3.81c0.01,0.35-0.26,0.64-0.61,0.65
				C468.29,3012.77,468.27,3012.77,468.27,3012.77z M1097.17,3005.77c-0.34,0-0.62-0.26-0.63-0.6c-0.06-1.27-0.13-2.53-0.2-3.8
				c-0.02-0.35,0.25-0.65,0.6-0.67c0.34-0.01,0.65,0.25,0.67,0.6c0.07,1.27,0.14,2.54,0.2,3.8c0.02,0.35-0.25,0.65-0.6,0.67
				L1097.17,3005.77z M467.86,3000.08c-0.34,0-0.62-0.27-0.63-0.61l-0.12-3.81c-0.01-0.35,0.26-0.64,0.61-0.66
				c0.37,0,0.64,0.26,0.65,0.61l0.12,3.81c0.01,0.35-0.26,0.64-0.61,0.66C467.88,3000.08,467.86,3000.08,467.86,3000.08z
				 M1096.43,2993.1c-0.33,0-0.61-0.26-0.63-0.59c-0.09-1.26-0.18-2.53-0.27-3.79c-0.03-0.35,0.24-0.65,0.59-0.68
				c0.37-0.02,0.65,0.24,0.68,0.59c0.09,1.27,0.18,2.53,0.27,3.8c0.02,0.35-0.24,0.65-0.59,0.68
				C1096.46,2993.1,1096.44,2993.1,1096.43,2993.1z M467.45,2987.4c-0.34,0-0.62-0.27-0.63-0.61l-0.12-3.81
				c-0.01-0.35,0.26-0.64,0.61-0.65c0.32-0.05,0.64,0.26,0.65,0.61l0.12,3.81c0.01,0.35-0.26,0.64-0.61,0.65
				C467.47,2987.4,467.46,2987.4,467.45,2987.4z M1095.44,2980.45c-0.33,0-0.6-0.25-0.63-0.58c-0.11-1.26-0.23-2.53-0.34-3.79
				c-0.03-0.35,0.22-0.66,0.57-0.69c0.35-0.03,0.66,0.22,0.69,0.57c0.12,1.26,0.23,2.53,0.35,3.8c0.03,0.35-0.23,0.66-0.58,0.69
				C1095.48,2980.45,1095.46,2980.45,1095.44,2980.45z M467.04,2974.72c-0.34,0-0.62-0.27-0.63-0.61l-0.12-3.81
				c-0.01-0.35,0.26-0.64,0.61-0.66c0.32-0.02,0.64,0.26,0.65,0.61l0.12,3.81c0.01,0.35-0.26,0.64-0.61,0.65H467.04z
				 M1094.2,2967.82c-0.32,0-0.59-0.24-0.63-0.57c-0.14-1.26-0.28-2.52-0.43-3.78c-0.04-0.35,0.21-0.66,0.56-0.7
				c0.36-0.04,0.66,0.21,0.7,0.56c0.15,1.26,0.29,2.52,0.43,3.79c0.04,0.35-0.21,0.66-0.56,0.7
				C1094.25,2967.81,1094.22,2967.82,1094.2,2967.82z M466.63,2962.03c-0.34,0-0.62-0.27-0.63-0.61l-0.14-4.46h2.3
				c0.35,0,0.63,0.28,0.63,0.63c0,0.35-0.28,0.63-0.63,0.63h-0.99l0.1,3.15c0.01,0.35-0.26,0.64-0.61,0.66H466.63z M1090.04,2958.23
				h-3.81c-0.35,0-0.63-0.28-0.63-0.63c0-0.35,0.28-0.63,0.63-0.63h3.81c0.35,0,0.63,0.28,0.63,0.63
				C1090.67,2957.94,1090.39,2958.23,1090.04,2958.23z M1077.34,2958.23h-3.81c-0.35,0-0.63-0.28-0.63-0.63
				c0-0.35,0.28-0.63,0.63-0.63h3.81c0.35,0,0.63,0.28,0.63,0.63C1077.98,2957.94,1077.69,2958.23,1077.34,2958.23z
				 M1064.65,2958.23h-3.81c-0.35,0-0.63-0.28-0.63-0.63c0-0.35,0.28-0.63,0.63-0.63h3.81c0.35,0,0.63,0.28,0.63,0.63
				C1065.29,2957.94,1065,2958.23,1064.65,2958.23z M1051.96,2958.23h-3.81c-0.35,0-0.63-0.28-0.63-0.63c0-0.35,0.28-0.63,0.63-0.63
				h3.81c0.35,0,0.63,0.28,0.63,0.63C1052.6,2957.94,1052.31,2958.23,1051.96,2958.23z M1039.27,2958.23h-3.81
				c-0.35,0-0.63-0.28-0.63-0.63c0-0.35,0.28-0.63,0.63-0.63h3.81c0.35,0,0.63,0.28,0.63,0.63
				C1039.9,2957.94,1039.62,2958.23,1039.27,2958.23z M1026.58,2958.23h-3.81c-0.35,0-0.63-0.28-0.63-0.63
				c0-0.35,0.28-0.63,0.63-0.63h3.81c0.35,0,0.63,0.28,0.63,0.63C1027.21,2957.94,1026.93,2958.23,1026.58,2958.23z
				 M1013.89,2958.23h-3.81c-0.35,0-0.63-0.28-0.63-0.63c0-0.35,0.28-0.63,0.63-0.63h3.81c0.35,0,0.63,0.28,0.63,0.63
				C1014.52,2957.94,1014.24,2958.23,1013.89,2958.23z M1001.2,2958.23h-3.81c-0.35,0-0.63-0.28-0.63-0.63
				c0-0.35,0.28-0.63,0.63-0.63h3.81c0.35,0,0.63,0.28,0.63,0.63C1001.83,2957.94,1001.55,2958.23,1001.2,2958.23z M988.5,2958.23
				h-3.81c-0.35,0-0.63-0.28-0.63-0.63c0-0.35,0.28-0.63,0.63-0.63h3.81c0.35,0,0.63,0.28,0.63,0.63
				C989.14,2957.94,988.86,2958.23,988.5,2958.23z M975.81,2958.23h-3.81c-0.35,0-0.63-0.28-0.63-0.63c0-0.35,0.28-0.63,0.63-0.63
				h3.81c0.35,0,0.63,0.28,0.63,0.63C976.45,2957.94,976.16,2958.23,975.81,2958.23z M963.12,2958.23h-3.81
				c-0.35,0-0.63-0.28-0.63-0.63c0-0.35,0.28-0.63,0.63-0.63h3.81c0.35,0,0.63,0.28,0.63,0.63
				C963.76,2957.94,963.47,2958.23,963.12,2958.23z M950.43,2958.23h-3.81c-0.35,0-0.63-0.28-0.63-0.63c0-0.35,0.28-0.63,0.63-0.63
				h3.81c0.35,0,0.63,0.28,0.63,0.63C951.07,2957.94,950.78,2958.23,950.43,2958.23z M937.74,2958.23h-3.81
				c-0.35,0-0.63-0.28-0.63-0.63c0-0.35,0.28-0.63,0.63-0.63h3.81c0.35,0,0.63,0.28,0.63,0.63
				C938.37,2957.94,938.09,2958.23,937.74,2958.23z M925.05,2958.23h-3.81c-0.35,0-0.63-0.28-0.63-0.63c0-0.35,0.28-0.63,0.63-0.63
				h3.81c0.35,0,0.63,0.28,0.63,0.63C925.68,2957.94,925.4,2958.23,925.05,2958.23z M912.36,2958.23h-3.81
				c-0.35,0-0.63-0.28-0.63-0.63c0-0.35,0.28-0.63,0.63-0.63h3.81c0.35,0,0.63,0.28,0.63,0.63
				C912.99,2957.94,912.71,2958.23,912.36,2958.23z M899.67,2958.23h-3.81c-0.35,0-0.63-0.28-0.63-0.63c0-0.35,0.28-0.63,0.63-0.63
				h3.81c0.35,0,0.63,0.28,0.63,0.63C900.3,2957.94,900.02,2958.23,899.67,2958.23z M886.97,2958.23h-3.81
				c-0.35,0-0.63-0.28-0.63-0.63c0-0.35,0.28-0.63,0.63-0.63h3.81c0.35,0,0.63,0.28,0.63,0.63
				C887.61,2957.94,887.32,2958.23,886.97,2958.23z M874.28,2958.23h-3.81c-0.35,0-0.63-0.28-0.63-0.63c0-0.35,0.28-0.63,0.63-0.63
				h3.81c0.35,0,0.63,0.28,0.63,0.63C874.92,2957.94,874.63,2958.23,874.28,2958.23z M861.59,2958.23h-3.81
				c-0.35,0-0.63-0.28-0.63-0.63c0-0.35,0.28-0.63,0.63-0.63h3.81c0.35,0,0.63,0.28,0.63,0.63
				C862.23,2957.94,861.94,2958.23,861.59,2958.23z M848.9,2958.23h-3.81c-0.35,0-0.63-0.28-0.63-0.63c0-0.35,0.28-0.63,0.63-0.63
				h3.81c0.35,0,0.63,0.28,0.63,0.63C849.53,2957.94,849.25,2958.23,848.9,2958.23z M836.21,2958.23h-3.81
				c-0.35,0-0.63-0.28-0.63-0.63c0-0.35,0.28-0.63,0.63-0.63h3.81c0.35,0,0.63,0.28,0.63,0.63
				C836.84,2957.94,836.56,2958.23,836.21,2958.23z M823.52,2958.23h-3.81c-0.35,0-0.63-0.28-0.63-0.63c0-0.35,0.28-0.63,0.63-0.63
				h3.81c0.35,0,0.63,0.28,0.63,0.63C824.15,2957.94,823.87,2958.23,823.52,2958.23z M810.83,2958.23h-3.81
				c-0.35,0-0.63-0.28-0.63-0.63c0-0.35,0.28-0.63,0.63-0.63h3.81c0.35,0,0.63,0.28,0.63,0.63
				C811.46,2957.94,811.18,2958.23,810.83,2958.23z M798.13,2958.23h-3.81c-0.35,0-0.63-0.28-0.63-0.63c0-0.35,0.28-0.63,0.63-0.63
				h3.81c0.35,0,0.63,0.28,0.63,0.63C798.77,2957.94,798.49,2958.23,798.13,2958.23z M785.44,2958.23h-3.81
				c-0.35,0-0.63-0.28-0.63-0.63c0-0.35,0.28-0.63,0.63-0.63h3.81c0.35,0,0.63,0.28,0.63,0.63
				C786.08,2957.94,785.79,2958.23,785.44,2958.23z M772.75,2958.23h-3.81c-0.35,0-0.63-0.28-0.63-0.63c0-0.35,0.28-0.63,0.63-0.63
				h3.81c0.35,0,0.63,0.28,0.63,0.63C773.39,2957.94,773.1,2958.23,772.75,2958.23z M760.06,2958.23h-3.81
				c-0.35,0-0.63-0.28-0.63-0.63c0-0.35,0.28-0.63,0.63-0.63h3.81c0.35,0,0.63,0.28,0.63,0.63
				C760.7,2957.94,760.41,2958.23,760.06,2958.23z M747.37,2958.23h-3.81c-0.35,0-0.63-0.28-0.63-0.63c0-0.35,0.28-0.63,0.63-0.63
				h3.81c0.35,0,0.63,0.28,0.63,0.63C748,2957.94,747.72,2958.23,747.37,2958.23z M734.68,2958.23h-3.81
				c-0.35,0-0.63-0.28-0.63-0.63c0-0.35,0.28-0.63,0.63-0.63h3.81c0.35,0,0.63,0.28,0.63,0.63
				C735.31,2957.94,735.03,2958.23,734.68,2958.23z M721.99,2958.23h-3.81c-0.35,0-0.63-0.28-0.63-0.63c0-0.35,0.28-0.63,0.63-0.63
				h3.81c0.35,0,0.63,0.28,0.63,0.63C722.62,2957.94,722.34,2958.23,721.99,2958.23z M709.3,2958.23h-3.81
				c-0.35,0-0.63-0.28-0.63-0.63c0-0.35,0.28-0.63,0.63-0.63h3.81c0.35,0,0.63,0.28,0.63,0.63
				C709.93,2957.94,709.65,2958.23,709.3,2958.23z M696.6,2958.23h-3.81c-0.35,0-0.63-0.28-0.63-0.63c0-0.35,0.28-0.63,0.63-0.63
				h3.81c0.35,0,0.63,0.28,0.63,0.63C697.24,2957.94,696.95,2958.23,696.6,2958.23z M683.91,2958.23h-3.81
				c-0.35,0-0.63-0.28-0.63-0.63c0-0.35,0.28-0.63,0.63-0.63h3.81c0.35,0,0.63,0.28,0.63,0.63
				C684.55,2957.94,684.26,2958.23,683.91,2958.23z M671.22,2958.23h-3.81c-0.35,0-0.63-0.28-0.63-0.63c0-0.35,0.28-0.63,0.63-0.63
				h3.81c0.35,0,0.63,0.28,0.63,0.63C671.86,2957.94,671.57,2958.23,671.22,2958.23z M658.53,2958.23h-3.81
				c-0.35,0-0.63-0.28-0.63-0.63c0-0.35,0.28-0.63,0.63-0.63h3.81c0.35,0,0.63,0.28,0.63,0.63
				C659.16,2957.94,658.88,2958.23,658.53,2958.23z M645.84,2958.23h-3.81c-0.35,0-0.63-0.28-0.63-0.63c0-0.35,0.28-0.63,0.63-0.63
				h3.81c0.35,0,0.63,0.28,0.63,0.63C646.47,2957.94,646.19,2958.23,645.84,2958.23z M633.15,2958.23h-3.81
				c-0.35,0-0.63-0.28-0.63-0.63c0-0.35,0.28-0.63,0.63-0.63h3.81c0.35,0,0.63,0.28,0.63,0.63
				C633.78,2957.94,633.5,2958.23,633.15,2958.23z M620.46,2958.23h-3.81c-0.35,0-0.63-0.28-0.63-0.63c0-0.35,0.28-0.63,0.63-0.63
				h3.81c0.35,0,0.63,0.28,0.63,0.63C621.09,2957.94,620.81,2958.23,620.46,2958.23z M607.76,2958.23h-3.81
				c-0.35,0-0.63-0.28-0.63-0.63c0-0.35,0.28-0.63,0.63-0.63h3.81c0.35,0,0.63,0.28,0.63,0.63
				C608.4,2957.94,608.12,2958.23,607.76,2958.23z M595.07,2958.23h-3.81c-0.35,0-0.63-0.28-0.63-0.63c0-0.35,0.28-0.63,0.63-0.63
				h3.81c0.35,0,0.63,0.28,0.63,0.63C595.71,2957.94,595.42,2958.23,595.07,2958.23z M582.38,2958.23h-3.81
				c-0.35,0-0.63-0.28-0.63-0.63c0-0.35,0.28-0.63,0.63-0.63h3.81c0.35,0,0.63,0.28,0.63,0.63
				C583.02,2957.94,582.73,2958.23,582.38,2958.23z M569.69,2958.23h-3.81c-0.35,0-0.63-0.28-0.63-0.63c0-0.35,0.28-0.63,0.63-0.63
				h3.81c0.35,0,0.63,0.28,0.63,0.63C570.33,2957.94,570.04,2958.23,569.69,2958.23z M557,2958.23h-3.81
				c-0.35,0-0.63-0.28-0.63-0.63c0-0.35,0.28-0.63,0.63-0.63H557c0.35,0,0.63,0.28,0.63,0.63
				C557.63,2957.94,557.35,2958.23,557,2958.23z M544.31,2958.23h-3.81c-0.35,0-0.63-0.28-0.63-0.63c0-0.35,0.28-0.63,0.63-0.63
				h3.81c0.35,0,0.63,0.28,0.63,0.63C544.94,2957.94,544.66,2958.23,544.31,2958.23z M531.62,2958.23h-3.81
				c-0.35,0-0.63-0.28-0.63-0.63c0-0.35,0.28-0.63,0.63-0.63h3.81c0.35,0,0.63,0.28,0.63,0.63
				C532.25,2957.94,531.97,2958.23,531.62,2958.23z M518.92,2958.23h-3.81c-0.35,0-0.63-0.28-0.63-0.63c0-0.35,0.28-0.63,0.63-0.63
				h3.81c0.35,0,0.63,0.28,0.63,0.63C519.56,2957.94,519.28,2958.23,518.92,2958.23z M506.23,2958.23h-3.81
				c-0.35,0-0.63-0.28-0.63-0.63c0-0.35,0.28-0.63,0.63-0.63h3.81c0.35,0,0.63,0.28,0.63,0.63
				C506.87,2957.94,506.58,2958.23,506.23,2958.23z M493.54,2958.23h-3.81c-0.35,0-0.63-0.28-0.63-0.63c0-0.35,0.28-0.63,0.63-0.63
				h3.81c0.35,0,0.63,0.28,0.63,0.63C494.18,2957.94,493.89,2958.23,493.54,2958.23z M480.85,2958.23h-3.81
				c-0.35,0-0.63-0.28-0.63-0.63c0-0.35,0.28-0.63,0.63-0.63h3.81c0.35,0,0.63,0.28,0.63,0.63
				C481.49,2957.94,481.2,2958.23,480.85,2958.23z"/>
			<linearGradient id="SVGID_8_" gradientUnits="userSpaceOnUse" x1="651.7441" y1="2333.823" x2="650.0363" y2="2610.4722">
				<stop  offset="0" style="stop-color:#4F52FF"/>
				<stop  offset="1" style="stop-color:#4042E2"/>
			</linearGradient>
			<path class="st16" d="M603.66,2799.14l1.57-16.83c1.78-4.02,5.46-6.86,9.82-7.56c16.28-2.59,56.67-7.15,76.12,7.38l2.9,19.56
				L603.66,2799.14z"/>
			<linearGradient id="SVGID_9_" gradientUnits="userSpaceOnUse" x1="651.4571" y1="2333.8206" x2="649.7492" y2="2610.4697">
				<stop  offset="0" style="stop-color:#4F52FF"/>
				<stop  offset="1" style="stop-color:#4042E2"/>
			</linearGradient>
			<path class="st17" d="M654.53,2782.94c-3.75,0.91-7.51,0.91-11.27-0.01c-4.55-1.12-7.76-5.19-7.76-9.86l0-52.71h26.83l0,52.67
				C662.32,2777.71,659.1,2781.82,654.53,2782.94z"/>
			<linearGradient id="SVGID_10_" gradientUnits="userSpaceOnUse" x1="911.5565" y1="2335.4275" x2="909.8487" y2="2612.0764">
				<stop  offset="0" style="stop-color:#4F52FF"/>
				<stop  offset="1" style="stop-color:#4042E2"/>
			</linearGradient>
			<path class="st18" d="M863.48,2799.14l1.57-16.83c1.77-4.02,5.46-6.86,9.82-7.56c16.28-2.59,56.67-7.15,76.12,7.38l2.91,19.56
				L863.48,2799.14z"/>
			<linearGradient id="SVGID_11_" gradientUnits="userSpaceOnUse" x1="911.2522" y1="2335.4241" x2="909.5444" y2="2612.0735">
				<stop  offset="0" style="stop-color:#4F52FF"/>
				<stop  offset="1" style="stop-color:#4042E2"/>
			</linearGradient>
			<path class="st19" d="M914.35,2782.94c-3.75,0.91-7.51,0.91-11.27-0.01c-4.55-1.12-7.76-5.19-7.76-9.86l0-58.27h26.83l0,58.23
				C922.14,2777.71,918.93,2781.82,914.35,2782.94z"/>
			<linearGradient id="SVGID_12_" gradientUnits="userSpaceOnUse" x1="797.8859" y1="2554.4592" x2="771.9708" y2="2744.5022">
				<stop  offset="0" style="stop-color:#4F52FF"/>
				<stop  offset="1" style="stop-color:#4042E2"/>
			</linearGradient>
			<path class="st20" d="M632.77,2733.27l288.49-9.55c6.58-0.22,12.16-4.96,13.29-11.42c1.58-9.03,2.97-22.55,0.9-36.57
				c-2.36-15.94-16.07-27.78-32.25-28.16c-53.82-1.28-190.82-1.24-266.33,28.63c-7.99,3.16-13.91,9.98-15.93,18.3
				c-1.93,7.93-3.21,18.52-0.69,29.29C621.57,2729.52,626.87,2733.47,632.77,2733.27z"/>
			<path class="st4" d="M627.78,2718.28c-0.64,0-1.19-0.49-1.26-1.14c-0.05-0.46-1.1-11.3,1.73-21.74
				c2.15-7.93,8.42-14.31,16.38-16.65c16.07-4.72,46.78-12.73,71.87-13.44c0.7-0.02,1.28,0.53,1.3,1.23c0.02,0.7-0.53,1.28-1.23,1.3
				c-24.81,0.7-55.28,8.65-71.23,13.33c-7.12,2.09-12.73,7.79-14.65,14.87c-2.7,9.97-1.66,20.72-1.65,20.82
				c0.07,0.7-0.44,1.32-1.14,1.39C627.86,2718.28,627.82,2718.28,627.78,2718.28z"/>
			<linearGradient id="SVGID_13_" gradientUnits="userSpaceOnUse" x1="805.7021" y1="2702.4622" x2="710.6813" y2="3589.3235">
				<stop  offset="0" style="stop-color:#4F52FF"/>
				<stop  offset="1" style="stop-color:#4042E2"/>
			</linearGradient>
			<path class="st21" d="M469.81,2792.58c93.2-1.19,496.38-5.43,613.5,8.7c10.08,1.22,18.31,8.59,20.5,18.47
				c6.92,31.29,20.84,103.96,19.19,176.01c-0.22,9.8-7.41,18.08-17.09,19.91l-267.34,50.58h-94.96l-284.85-56.62
				c-10.04-2-17.44-10.5-17.96-20.68c-1.85-36.24-4.75-121.29,5.06-176.03C447.93,2801.28,457.94,2792.73,469.81,2792.58z"/>
			<path class="st0" d="M836.37,3043.83h-3.81c-0.35,0-0.63-0.28-0.63-0.63c0-0.35,0.28-0.63,0.63-0.63h3.81
				c0.35,0,0.63,0.28,0.63,0.63C837.01,3043.55,836.72,3043.83,836.37,3043.83z M823.68,3043.83h-3.81c-0.35,0-0.63-0.28-0.63-0.63
				c0-0.35,0.28-0.63,0.63-0.63h3.81c0.35,0,0.63,0.28,0.63,0.63C824.32,3043.55,824.03,3043.83,823.68,3043.83z M810.99,3043.83
				h-3.81c-0.35,0-0.63-0.28-0.63-0.63c0-0.35,0.28-0.63,0.63-0.63h3.81c0.35,0,0.63,0.28,0.63,0.63
				C811.62,3043.55,811.34,3043.83,810.99,3043.83z M798.3,3043.83h-3.81c-0.35,0-0.63-0.28-0.63-0.63c0-0.35,0.28-0.63,0.63-0.63
				h3.81c0.35,0,0.63,0.28,0.63,0.63C798.93,3043.55,798.65,3043.83,798.3,3043.83z M785.61,3043.83h-3.81
				c-0.35,0-0.63-0.28-0.63-0.63c0-0.35,0.28-0.63,0.63-0.63h3.81c0.35,0,0.63,0.28,0.63,0.63
				C786.24,3043.55,785.96,3043.83,785.61,3043.83z M772.92,3043.83h-3.81c-0.35,0-0.63-0.28-0.63-0.63c0-0.35,0.28-0.63,0.63-0.63
				h3.81c0.35,0,0.63,0.28,0.63,0.63C773.55,3043.55,773.27,3043.83,772.92,3043.83z M760.22,3043.83h-3.81
				c-0.35,0-0.63-0.28-0.63-0.63c0-0.35,0.28-0.63,0.63-0.63h3.81c0.35,0,0.63,0.28,0.63,0.63
				C760.86,3043.55,760.58,3043.83,760.22,3043.83z M747.53,3043.83h-1.66l-3.86-0.75c-0.34-0.07-0.57-0.4-0.5-0.75
				c0.07-0.34,0.4-0.57,0.75-0.5l3.73,0.74l1.53-0.01c0.35,0,0.63,0.28,0.63,0.63C748.17,3043.55,747.88,3043.83,747.53,3043.83z
				 M845.1,3042.19c-0.3,0-0.57-0.21-0.62-0.52c-0.07-0.34,0.16-0.68,0.51-0.74l3.74-0.71c0.34-0.07,0.68,0.16,0.74,0.51
				c0.07,0.34-0.16,0.68-0.51,0.74l-3.74,0.71C845.18,3042.19,845.14,3042.19,845.1,3042.19z M733.43,3041.36
				c-0.04,0-0.08,0-0.12-0.01l-3.73-0.74c-0.34-0.07-0.57-0.4-0.5-0.75c0.07-0.34,0.4-0.57,0.75-0.5l3.73,0.74
				c0.34,0.07,0.57,0.4,0.5,0.75C733.99,3041.15,733.72,3041.36,733.43,3041.36z M857.57,3039.83c-0.3,0-0.57-0.21-0.62-0.52
				c-0.07-0.34,0.16-0.68,0.51-0.74l3.74-0.71c0.34-0.06,0.68,0.16,0.74,0.51c0.07,0.34-0.16,0.68-0.51,0.74l-3.74,0.71
				C857.65,3039.83,857.61,3039.83,857.57,3039.83z M720.98,3038.89c-0.04,0-0.08,0-0.12-0.01l-3.73-0.74
				c-0.34-0.07-0.57-0.4-0.5-0.75c0.07-0.34,0.4-0.57,0.75-0.5l3.73,0.74c0.34,0.07,0.57,0.4,0.5,0.75
				C721.54,3038.68,721.28,3038.89,720.98,3038.89z M870.04,3037.47c-0.3,0-0.57-0.21-0.62-0.52c-0.07-0.34,0.16-0.68,0.51-0.74
				l3.74-0.71c0.34-0.06,0.68,0.16,0.74,0.51c0.07,0.34-0.16,0.68-0.51,0.74l-3.74,0.71
				C870.12,3037.47,870.08,3037.47,870.04,3037.47z M708.53,3036.41c-0.04,0-0.08,0-0.12-0.01l-3.73-0.74
				c-0.34-0.07-0.57-0.4-0.5-0.75c0.07-0.34,0.4-0.57,0.75-0.5l3.73,0.74c0.34,0.07,0.57,0.4,0.5,0.75
				C709.09,3036.2,708.83,3036.41,708.53,3036.41z M882.51,3035.11c-0.3,0-0.57-0.21-0.62-0.52c-0.07-0.34,0.16-0.68,0.51-0.74
				l3.74-0.71c0.35-0.06,0.68,0.16,0.74,0.51c0.07,0.34-0.16,0.68-0.51,0.74l-3.74,0.71
				C882.59,3035.11,882.55,3035.11,882.51,3035.11z M696.08,3033.94c-0.04,0-0.08,0-0.12-0.01l-3.73-0.74
				c-0.34-0.07-0.57-0.4-0.5-0.75c0.07-0.34,0.4-0.57,0.75-0.5l3.73,0.74c0.34,0.07,0.57,0.4,0.5,0.75
				C696.65,3033.73,696.38,3033.94,696.08,3033.94z M894.98,3032.75c-0.3,0-0.57-0.21-0.62-0.52c-0.07-0.34,0.16-0.68,0.51-0.74
				l3.74-0.71c0.35-0.06,0.68,0.16,0.74,0.51c0.07,0.34-0.16,0.68-0.51,0.74l-3.74,0.71
				C895.06,3032.75,895.02,3032.75,894.98,3032.75z M683.64,3031.46c-0.04,0-0.08,0-0.12-0.01l-3.73-0.74
				c-0.34-0.07-0.57-0.4-0.5-0.75c0.07-0.34,0.4-0.57,0.75-0.5l3.73,0.74c0.34,0.07,0.57,0.4,0.5,0.75
				C684.2,3031.25,683.93,3031.46,683.64,3031.46z M907.45,3030.39c-0.3,0-0.57-0.21-0.62-0.52c-0.07-0.34,0.16-0.68,0.51-0.74
				l3.74-0.71c0.35-0.06,0.68,0.16,0.74,0.51c0.07,0.34-0.16,0.68-0.51,0.74l-3.74,0.71
				C907.53,3030.39,907.49,3030.39,907.45,3030.39z M671.19,3028.99c-0.04,0-0.08,0-0.12-0.01l-3.73-0.74
				c-0.34-0.07-0.57-0.4-0.5-0.75c0.07-0.34,0.4-0.57,0.75-0.5l3.73,0.74c0.34,0.07,0.57,0.4,0.5,0.75
				C671.75,3028.78,671.49,3028.99,671.19,3028.99z M919.92,3028.03c-0.3,0-0.57-0.21-0.62-0.52c-0.06-0.34,0.16-0.68,0.51-0.74
				l3.74-0.71c0.35-0.06,0.68,0.16,0.74,0.51c0.07,0.34-0.16,0.68-0.51,0.74l-3.74,0.71C920,3028.03,919.96,3028.03,919.92,3028.03z
				 M658.74,3026.51c-0.04,0-0.08,0-0.12-0.01l-3.73-0.74c-0.34-0.07-0.57-0.4-0.5-0.75c0.07-0.34,0.4-0.57,0.75-0.5l3.73,0.74
				c0.34,0.07,0.57,0.4,0.5,0.75C659.3,3026.31,659.04,3026.51,658.74,3026.51z M932.39,3025.68c-0.3,0-0.57-0.21-0.62-0.52
				c-0.07-0.34,0.16-0.68,0.51-0.74l3.74-0.71c0.35-0.06,0.68,0.16,0.74,0.51c0.07,0.34-0.16,0.68-0.51,0.74l-3.74,0.71
				C932.47,3025.67,932.43,3025.68,932.39,3025.68z M646.29,3024.04c-0.04,0-0.08,0-0.12-0.01l-3.73-0.74
				c-0.34-0.07-0.57-0.4-0.5-0.75c0.07-0.34,0.4-0.57,0.75-0.5l3.73,0.74c0.34,0.07,0.57,0.4,0.5,0.75
				C646.85,3023.83,646.59,3024.04,646.29,3024.04z M944.86,3023.32c-0.3,0-0.57-0.21-0.62-0.52c-0.07-0.34,0.16-0.68,0.51-0.74
				l3.74-0.71c0.35-0.06,0.68,0.16,0.74,0.51c0.07,0.34-0.16,0.68-0.51,0.74l-3.74,0.71
				C944.94,3023.31,944.9,3023.32,944.86,3023.32z M633.85,3021.57c-0.04,0-0.08,0-0.12-0.01l-3.73-0.74
				c-0.34-0.07-0.57-0.4-0.5-0.75c0.07-0.34,0.4-0.57,0.75-0.5l3.73,0.74c0.34,0.07,0.57,0.4,0.5,0.75
				C634.41,3021.36,634.14,3021.57,633.85,3021.57z M957.33,3020.96c-0.3,0-0.57-0.21-0.62-0.52c-0.07-0.34,0.16-0.68,0.51-0.74
				l3.74-0.71c0.34-0.06,0.68,0.16,0.74,0.51c0.07,0.34-0.16,0.68-0.51,0.74l-3.74,0.71
				C957.41,3020.95,957.37,3020.96,957.33,3020.96z M621.4,3019.09c-0.04,0-0.08,0-0.12-0.01l-3.73-0.74
				c-0.34-0.07-0.57-0.4-0.5-0.75c0.07-0.34,0.4-0.57,0.75-0.5l3.73,0.74c0.34,0.07,0.57,0.4,0.5,0.75
				C621.96,3018.88,621.69,3019.09,621.4,3019.09z M969.8,3018.6c-0.3,0-0.57-0.21-0.62-0.52c-0.07-0.34,0.16-0.68,0.51-0.74
				l3.74-0.71c0.34-0.06,0.68,0.16,0.74,0.51c0.07,0.34-0.16,0.68-0.51,0.74l-3.74,0.71C969.88,3018.59,969.84,3018.6,969.8,3018.6z
				 M608.95,3016.62c-0.04,0-0.08,0-0.12-0.01l-3.73-0.74c-0.34-0.07-0.57-0.4-0.5-0.75c0.07-0.34,0.4-0.57,0.75-0.5l3.73,0.74
				c0.34,0.07,0.57,0.4,0.5,0.75C609.51,3016.41,609.25,3016.62,608.95,3016.62z M982.27,3016.24c-0.3,0-0.57-0.21-0.62-0.52
				c-0.07-0.34,0.16-0.68,0.51-0.74l3.74-0.71c0.34-0.07,0.68,0.16,0.74,0.51c0.07,0.34-0.16,0.68-0.51,0.74l-3.74,0.71
				C982.35,3016.24,982.31,3016.24,982.27,3016.24z M596.5,3014.14c-0.04,0-0.08,0-0.12-0.01l-3.73-0.74
				c-0.34-0.07-0.57-0.4-0.5-0.75c0.07-0.34,0.4-0.57,0.75-0.5l3.73,0.74c0.34,0.07,0.57,0.4,0.5,0.75
				C597.06,3013.93,596.8,3014.14,596.5,3014.14z M994.74,3013.88c-0.3,0-0.57-0.21-0.62-0.52c-0.07-0.34,0.16-0.68,0.51-0.74
				l3.74-0.71c0.34-0.06,0.68,0.16,0.74,0.51c0.07,0.34-0.16,0.68-0.51,0.74l-3.74,0.71
				C994.82,3013.88,994.78,3013.88,994.74,3013.88z M584.05,3011.67c-0.04,0-0.08,0-0.12-0.01l-3.73-0.74
				c-0.34-0.07-0.57-0.4-0.5-0.75c0.07-0.34,0.4-0.57,0.75-0.5l3.73,0.74c0.34,0.07,0.57,0.4,0.5,0.75
				C584.62,3011.46,584.35,3011.67,584.05,3011.67z M1007.21,3011.52c-0.3,0-0.57-0.21-0.62-0.52c-0.06-0.34,0.16-0.68,0.51-0.74
				l3.74-0.71c0.35-0.06,0.68,0.16,0.74,0.51c0.07,0.34-0.16,0.68-0.51,0.74l-3.74,0.71
				C1007.29,3011.52,1007.25,3011.52,1007.21,3011.52z M571.61,3009.19c-0.04,0-0.08,0-0.12-0.01l-3.73-0.74
				c-0.34-0.07-0.57-0.4-0.5-0.75c0.07-0.34,0.4-0.57,0.75-0.5l3.73,0.74c0.34,0.07,0.57,0.4,0.5,0.75
				C572.17,3008.99,571.9,3009.19,571.61,3009.19z M1019.68,3009.16c-0.3,0-0.57-0.21-0.62-0.52c-0.07-0.34,0.16-0.68,0.51-0.74
				l3.74-0.71c0.35-0.06,0.68,0.16,0.74,0.51c0.07,0.34-0.16,0.68-0.51,0.74l-3.74,0.71
				C1019.76,3009.16,1019.72,3009.16,1019.68,3009.16z M1032.15,3006.8c-0.3,0-0.57-0.21-0.62-0.52c-0.07-0.34,0.16-0.68,0.51-0.74
				l3.74-0.71c0.35-0.06,0.68,0.16,0.74,0.51c0.07,0.34-0.16,0.68-0.51,0.74l-3.74,0.71
				C1032.23,3006.8,1032.19,3006.8,1032.15,3006.8z M559.16,3006.72c-0.04,0-0.08,0-0.12-0.01l-3.73-0.74
				c-0.34-0.07-0.57-0.4-0.5-0.75c0.07-0.34,0.4-0.57,0.75-0.5l3.73,0.74c0.34,0.07,0.57,0.4,0.5,0.75
				C559.72,3006.51,559.46,3006.72,559.16,3006.72z M1044.62,3004.44c-0.3,0-0.57-0.21-0.62-0.52c-0.07-0.34,0.16-0.68,0.51-0.74
				l3.74-0.71c0.35-0.06,0.68,0.16,0.74,0.51c0.07,0.34-0.16,0.68-0.51,0.74l-3.74,0.71
				C1044.7,3004.44,1044.66,3004.44,1044.62,3004.44z M546.71,3004.25c-0.04,0-0.08,0-0.12-0.01l-3.73-0.74
				c-0.34-0.07-0.57-0.4-0.5-0.75c0.07-0.34,0.4-0.57,0.75-0.5l3.73,0.74c0.34,0.07,0.57,0.4,0.5,0.75
				C547.27,3004.04,547.01,3004.25,546.71,3004.25z M1057.09,3002.08c-0.3,0-0.57-0.21-0.62-0.52c-0.07-0.34,0.16-0.68,0.51-0.74
				l3.74-0.71c0.35-0.06,0.68,0.16,0.74,0.51c0.07,0.34-0.16,0.68-0.51,0.74l-3.74,0.71
				C1057.17,3002.08,1057.13,3002.08,1057.09,3002.08z M534.26,3001.77c-0.04,0-0.08,0-0.12-0.01l-3.73-0.74
				c-0.34-0.07-0.57-0.4-0.5-0.75c0.07-0.34,0.4-0.57,0.75-0.5l3.73,0.74c0.34,0.07,0.57,0.4,0.5,0.75
				C534.82,3001.56,534.56,3001.77,534.26,3001.77z M1069.56,2999.72c-0.3,0-0.57-0.21-0.62-0.52c-0.07-0.34,0.16-0.68,0.51-0.74
				l3.74-0.71c0.34-0.06,0.68,0.16,0.74,0.51c0.07,0.34-0.16,0.68-0.51,0.74l-3.74,0.71
				C1069.64,2999.72,1069.6,2999.72,1069.56,2999.72z M521.82,2999.3c-0.04,0-0.08,0-0.12-0.01l-3.73-0.74
				c-0.34-0.07-0.57-0.4-0.5-0.75c0.07-0.34,0.4-0.57,0.75-0.5l3.73,0.74c0.34,0.07,0.57,0.4,0.5,0.75
				C522.38,2999.09,522.11,2999.3,521.82,2999.3z M1082.03,2997.37c-0.3,0-0.57-0.21-0.62-0.52c-0.07-0.34,0.16-0.68,0.51-0.74
				l3.74-0.71c0.34-0.06,0.68,0.16,0.74,0.51c0.07,0.34-0.16,0.68-0.51,0.74l-3.74,0.71
				C1082.11,2997.36,1082.07,2997.37,1082.03,2997.37z M509.37,2996.82c-0.04,0-0.08,0-0.12-0.01l-3.73-0.74
				c-0.34-0.07-0.57-0.4-0.5-0.75c0.07-0.34,0.4-0.57,0.75-0.5l3.73,0.74c0.34,0.07,0.57,0.4,0.5,0.75
				C509.93,2996.61,509.66,2996.82,509.37,2996.82z M1094.5,2995.01c-0.3,0-0.57-0.21-0.62-0.52c-0.07-0.34,0.16-0.68,0.51-0.74
				l3.74-0.71c0.34-0.06,0.68,0.16,0.74,0.51c0.07,0.34-0.16,0.68-0.51,0.74l-3.74,0.71
				C1094.58,2995,1094.54,2995.01,1094.5,2995.01z M496.92,2994.35c-0.04,0-0.08,0-0.12-0.01l-3.73-0.74
				c-0.34-0.07-0.57-0.4-0.5-0.75c0.07-0.34,0.4-0.57,0.75-0.5l3.73,0.74c0.34,0.07,0.57,0.4,0.5,0.75
				C497.48,2994.14,497.22,2994.35,496.92,2994.35z M484.47,2991.87c-0.04,0-0.08,0-0.12-0.01l-3.73-0.74
				c-0.34-0.07-0.57-0.4-0.5-0.75c0.07-0.34,0.4-0.57,0.75-0.5l3.73,0.74c0.34,0.07,0.57,0.4,0.5,0.75
				C485.03,2991.67,484.77,2991.87,484.47,2991.87z M472.02,2989.4c-0.04,0-0.08,0-0.12-0.01l-3.73-0.74
				c-0.34-0.07-0.57-0.4-0.5-0.75c0.07-0.34,0.4-0.57,0.75-0.5l3.73,0.74c0.34,0.07,0.57,0.4,0.5,0.75
				C472.59,2989.19,472.32,2989.4,472.02,2989.4z M1100.09,2986.88L1100.09,2986.88c-0.35,0-0.64-0.29-0.63-0.64l0.01-2.3l0-1.5
				c0-0.35,0.28-0.64,0.63-0.64h0c0.35,0,0.63,0.28,0.63,0.63l0,1.51l-0.01,2.3C1100.73,2986.59,1100.44,2986.88,1100.09,2986.88z
				 M463.56,2983.49c-0.34,0-0.62-0.26-0.63-0.6c-0.06-1.22-0.12-2.49-0.18-3.81c-0.02-0.35,0.26-0.65,0.61-0.66
				c0.36-0.01,0.65,0.26,0.66,0.61c0.06,1.31,0.12,2.58,0.18,3.8c0.02,0.35-0.25,0.65-0.6,0.66
				C463.58,2983.49,463.57,2983.49,463.56,2983.49z M1100,2974.18c-0.35,0-0.63-0.28-0.63-0.62c-0.02-1.27-0.05-2.53-0.09-3.8
				c-0.01-0.35,0.27-0.64,0.62-0.65c0.38-0.03,0.64,0.27,0.65,0.62c0.03,1.27,0.06,2.54,0.09,3.81c0.01,0.35-0.27,0.64-0.62,0.65
				H1100z M463.01,2970.8c-0.34,0-0.62-0.27-0.63-0.61l-0.14-3.81c-0.01-0.35,0.26-0.64,0.61-0.66c0.33-0.01,0.64,0.26,0.66,0.61
				l0.14,3.8c0.01,0.35-0.26,0.65-0.61,0.66C463.03,2970.8,463.02,2970.8,463.01,2970.8z M1099.61,2961.51
				c-0.34,0-0.62-0.27-0.63-0.61c-0.05-1.27-0.11-2.53-0.17-3.79c-0.02-0.35,0.25-0.65,0.6-0.66c0.35-0.03,0.65,0.25,0.66,0.6
				c0.06,1.26,0.12,2.53,0.17,3.8c0.01,0.35-0.26,0.65-0.61,0.66C1099.64,2961.51,1099.62,2961.51,1099.61,2961.51z M462.58,2958.12
				c-0.34,0-0.62-0.27-0.63-0.62l-0.11-3.81c-0.01-0.35,0.27-0.64,0.62-0.65c0.36,0.01,0.64,0.27,0.65,0.62l0.11,3.81
				c0.01,0.35-0.27,0.64-0.62,0.65H462.58z M1098.96,2948.84c-0.33,0-0.61-0.26-0.63-0.6c-0.08-1.27-0.16-2.53-0.24-3.8
				c-0.02-0.35,0.24-0.65,0.59-0.68c0.36-0.01,0.65,0.24,0.68,0.59c0.08,1.26,0.17,2.53,0.24,3.8c0.02,0.35-0.24,0.65-0.59,0.67
				C1098.98,2948.84,1098.97,2948.84,1098.96,2948.84z M462.25,2945.43c-0.34,0-0.63-0.28-0.63-0.62l-0.08-3.81
				c-0.01-0.35,0.27-0.64,0.62-0.65c0.33-0.03,0.64,0.27,0.65,0.62l0.08,3.81c0.01,0.35-0.27,0.64-0.62,0.65H462.25z
				 M1098.06,2936.18c-0.33,0-0.61-0.25-0.63-0.58c-0.1-1.27-0.21-2.53-0.31-3.79c-0.03-0.35,0.23-0.66,0.58-0.69
				c0.34-0.04,0.66,0.23,0.69,0.58c0.11,1.26,0.21,2.53,0.32,3.8c0.03,0.35-0.23,0.66-0.58,0.68
				C1098.09,2936.18,1098.07,2936.18,1098.06,2936.18z M462.04,2932.74c-0.35,0-0.63-0.28-0.63-0.63l-0.04-3.81
				c0-0.35,0.28-0.64,0.63-0.64H462c0.35,0,0.63,0.28,0.63,0.63l0.04,3.81C462.68,2932.44,462.4,2932.73,462.04,2932.74
				L462.04,2932.74z M1096.93,2923.53c-0.32,0-0.6-0.24-0.63-0.57c-0.12-1.27-0.25-2.53-0.38-3.79c-0.04-0.35,0.22-0.66,0.57-0.7
				c0.35-0.04,0.66,0.22,0.7,0.57c0.13,1.26,0.26,2.52,0.38,3.79c0.03,0.35-0.22,0.66-0.57,0.69
				C1096.97,2923.53,1096.95,2923.53,1096.93,2923.53z M461.95,2920.04c-0.35,0-0.63-0.28-0.63-0.63l0-2.18l0-1.63
				c0-0.35,0.28-0.64,0.63-0.64h0c0.35,0,0.63,0.28,0.63,0.63l0,1.63l0,2.18C462.59,2919.76,462.3,2920.04,461.95,2920.04
				L461.95,2920.04z M1095.59,2910.9c-0.32,0-0.59-0.24-0.63-0.56c-0.15-1.27-0.29-2.53-0.44-3.78c-0.04-0.35,0.21-0.66,0.55-0.71
				c0.36-0.05,0.66,0.21,0.71,0.55c0.15,1.26,0.3,2.52,0.44,3.79c0.04,0.35-0.21,0.66-0.56,0.7
				C1095.64,2910.9,1095.61,2910.9,1095.59,2910.9z M462,2907.35L462,2907.35c-0.36,0-0.64-0.29-0.63-0.64
				c0.01-1.26,0.03-2.53,0.04-3.8c0-0.35,0.29-0.63,0.63-0.63h0c0.35,0,0.63,0.29,0.63,0.64c-0.02,1.27-0.03,2.54-0.04,3.8
				C462.63,2907.07,462.34,2907.35,462,2907.35z M1094.04,2898.3c-0.31,0-0.59-0.23-0.63-0.55c-0.17-1.27-0.33-2.52-0.5-3.77
				c-0.05-0.35,0.2-0.67,0.54-0.71c0.36-0.05,0.67,0.2,0.71,0.54c0.17,1.25,0.34,2.51,0.5,3.78c0.05,0.35-0.2,0.67-0.55,0.71
				C1094.1,2898.3,1094.07,2898.3,1094.04,2898.3z M462.19,2894.67C462.19,2894.67,462.18,2894.67,462.19,2894.67
				c-0.36-0.01-0.64-0.3-0.63-0.65c0.03-1.27,0.06-2.54,0.09-3.81c0.01-0.35,0.29-0.65,0.65-0.62c0.35,0.01,0.63,0.3,0.62,0.65
				c-0.03,1.27-0.06,2.54-0.09,3.8C462.82,2894.39,462.54,2894.67,462.19,2894.67z M1092.3,2885.72c-0.31,0-0.58-0.23-0.63-0.54
				c-0.18-1.27-0.37-2.52-0.56-3.77c-0.05-0.35,0.19-0.67,0.53-0.72c0.35-0.05,0.67,0.19,0.72,0.53c0.19,1.25,0.37,2.5,0.56,3.77
				c0.05,0.35-0.19,0.67-0.54,0.72C1092.37,2885.72,1092.34,2885.72,1092.3,2885.72z M462.56,2881.98l-0.02,0
				c-0.35-0.01-0.62-0.31-0.61-0.66c0.05-1.27,0.09-2.54,0.15-3.81c0.01-0.35,0.34-0.62,0.66-0.61c0.35,0.01,0.62,0.31,0.61,0.66
				c-0.05,1.27-0.1,2.54-0.15,3.81C463.18,2881.71,462.9,2881.98,462.56,2881.98z M1090.38,2873.17c-0.31,0-0.58-0.22-0.63-0.53
				c-0.2-1.27-0.41-2.52-0.61-3.76c-0.06-0.35,0.18-0.67,0.52-0.73c0.35-0.06,0.67,0.18,0.73,0.52c0.21,1.24,0.41,2.49,0.61,3.76
				c0.06,0.35-0.18,0.67-0.53,0.73C1090.45,2873.17,1090.42,2873.17,1090.38,2873.17z M463.12,2869.29c-0.01,0-0.02,0-0.02,0
				c-0.36-0.02-0.63-0.32-0.61-0.67c0.07-1.27,0.14-2.55,0.21-3.81c0.02-0.35,0.31-0.62,0.67-0.6c0.35,0.02,0.62,0.32,0.6,0.67
				c-0.07,1.26-0.14,2.53-0.21,3.81C463.74,2869.03,463.46,2869.29,463.12,2869.29z M1088.28,2860.65c-0.3,0-0.57-0.22-0.62-0.52
				c-0.22-1.27-0.44-2.52-0.67-3.75c-0.06-0.34,0.17-0.67,0.51-0.74c0.35-0.06,0.68,0.17,0.74,0.51c0.22,1.23,0.44,2.48,0.67,3.75
				c0.06,0.35-0.17,0.67-0.52,0.73C1088.35,2860.65,1088.31,2860.65,1088.28,2860.65z M463.92,2856.61c0,0-0.03,0-0.05,0
				c-0.35-0.03-0.61-0.33-0.59-0.68c0.09-1.27,0.19-2.54,0.29-3.8c0.03-0.35,0.33-0.6,0.68-0.58c0.35,0.03,0.61,0.33,0.58,0.68
				c-0.1,1.26-0.2,2.52-0.29,3.79C464.53,2856.36,464.25,2856.61,463.92,2856.61z M1085.99,2848.16c-0.3,0-0.57-0.21-0.62-0.52
				c-0.24-1.28-0.48-2.52-0.72-3.74c-0.07-0.34,0.16-0.68,0.5-0.74c0.34-0.07,0.68,0.16,0.74,0.5c0.24,1.22,0.48,2.47,0.72,3.74
				c0.07,0.34-0.16,0.68-0.5,0.74C1086.07,2848.16,1086.03,2848.16,1085.99,2848.16z M464.99,2843.96c-0.02,0-0.04,0-0.04,0
				c-0.37-0.04-0.62-0.35-0.59-0.7c0.12-1.27,0.25-2.54,0.39-3.79c0.04-0.35,0.34-0.6,0.7-0.56c0.35,0.04,0.6,0.35,0.56,0.7
				c-0.13,1.25-0.26,2.51-0.39,3.78C465.59,2843.72,465.32,2843.96,464.99,2843.96z M1083.52,2835.7c-0.29,0-0.56-0.21-0.62-0.51
				c-0.27-1.29-0.53-2.54-0.78-3.73c-0.07-0.34,0.15-0.68,0.49-0.75c0.35-0.07,0.68,0.15,0.75,0.49c0.25,1.19,0.51,2.44,0.78,3.73
				c0.07,0.34-0.15,0.68-0.49,0.75C1083.61,2835.7,1083.57,2835.7,1083.52,2835.7z M466.42,2831.35c0,0-0.05,0-0.08-0.01
				c-0.35-0.05-0.59-0.36-0.55-0.71c0.17-1.27,0.34-2.53,0.51-3.78c0.05-0.35,0.37-0.58,0.72-0.54c0.35,0.05,0.59,0.37,0.54,0.72
				c-0.18,1.24-0.35,2.5-0.51,3.77C467.01,2831.12,466.74,2831.35,466.42,2831.35z M1079.45,2824.65c0,0-0.05,0-0.07,0
				c-1.22-0.14-2.48-0.29-3.78-0.43c-0.35-0.04-0.6-0.35-0.56-0.7c0.04-0.35,0.34-0.6,0.7-0.56c1.3,0.14,2.56,0.28,3.79,0.43
				c0.35,0.04,0.6,0.36,0.56,0.7C1080.05,2824.41,1079.77,2824.65,1079.45,2824.65z M1066.83,2823.34c-0.02,0-0.04,0-0.06,0
				c-1.24-0.11-2.5-0.23-3.79-0.34c-0.35-0.03-0.61-0.34-0.58-0.69c0.03-0.35,0.34-0.6,0.69-0.58c1.29,0.11,2.56,0.23,3.8,0.34
				c0.35,0.03,0.61,0.34,0.57,0.69C1067.43,2823.09,1067.15,2823.34,1066.83,2823.34z M1054.18,2822.27c0,0-0.03,0-0.05,0
				c-1.25-0.1-2.51-0.19-3.8-0.28c-0.35-0.03-0.61-0.33-0.59-0.68c0.03-0.35,0.34-0.61,0.68-0.59c1.29,0.09,2.55,0.19,3.8,0.28
				c0.35,0.03,0.61,0.33,0.58,0.68C1054.79,2822.02,1054.51,2822.27,1054.18,2822.27z M1041.52,2821.38c-0.01,0-0.03,0-0.04,0
				l-3.8-0.24c-0.35-0.02-0.62-0.32-0.59-0.67c0.02-0.35,0.31-0.61,0.67-0.59l3.8,0.24c0.35,0.02,0.61,0.33,0.59,0.68
				C1042.13,2821.12,1041.85,2821.38,1041.52,2821.38z M1028.85,2820.61c-0.01,0-0.02,0-0.02,0l-3.81-0.21
				c-0.35-0.02-0.62-0.32-0.6-0.67c0.02-0.35,0.32-0.61,0.67-0.6l3.8,0.21c0.35,0.02,0.62,0.32,0.6,0.67
				C1029.47,2820.34,1029.19,2820.61,1028.85,2820.61z M1016.18,2819.93c-0.01,0-0.02,0-0.02,0l-3.81-0.19
				c-0.35-0.02-0.62-0.31-0.6-0.66c0.02-0.35,0.32-0.62,0.66-0.6l3.8,0.19c0.35,0.02,0.62,0.32,0.6,0.67
				C1016.79,2819.67,1016.51,2819.93,1016.18,2819.93z M1003.5,2819.34l-0.03,0l-3.8-0.17c-0.35-0.01-0.62-0.31-0.61-0.66
				c0.01-0.35,0.33-0.62,0.66-0.61l3.8,0.16c0.35,0.02,0.62,0.31,0.61,0.66C1004.12,2819.07,1003.84,2819.34,1003.5,2819.34z
				 M990.82,2818.81c0,0-0.02,0-0.03,0l-3.8-0.15c-0.35-0.01-0.62-0.31-0.61-0.66c0.01-0.35,0.33-0.64,0.66-0.61l3.81,0.15
				c0.35,0.01,0.62,0.31,0.61,0.66C991.44,2818.54,991.16,2818.81,990.82,2818.81z M468.32,2818.8c-0.04,0-0.07,0-0.11-0.01
				c-0.35-0.06-0.58-0.39-0.52-0.73l0.21-1.2c0.19-1.09,1.1-1.87,2.19-1.88l0.33,0c0.39-0.05,0.64,0.27,0.65,0.62
				c0.01,0.35-0.27,0.64-0.62,0.65l-0.33,0c-0.49,0.01-0.88,0.34-0.96,0.84l-0.21,1.19C468.89,2818.58,468.62,2818.8,468.32,2818.8z
				 M978.14,2818.33l-0.02,0l-3.8-0.13c-0.35-0.01-0.62-0.31-0.61-0.66c0.01-0.35,0.31-0.64,0.66-0.61l3.81,0.13
				c0.35,0.01,0.62,0.31,0.61,0.66C978.76,2818.06,978.47,2818.33,978.14,2818.33z M965.45,2817.91c0,0-0.01,0-0.02,0l-3.8-0.12
				c-0.35-0.01-0.63-0.3-0.61-0.65c0.01-0.35,0.3-0.61,0.65-0.61l3.81,0.12c0.35,0.01,0.63,0.3,0.61,0.65
				C966.07,2817.64,965.79,2817.91,965.45,2817.91z M952.76,2817.52c0,0-0.01,0-0.02,0l-3.8-0.11c-0.35-0.01-0.63-0.3-0.62-0.65
				c0.01-0.35,0.3-0.65,0.65-0.62l3.81,0.11c0.35,0.01,0.63,0.3,0.62,0.65C953.39,2817.25,953.11,2817.52,952.76,2817.52z
				 M940.08,2817.18c-0.01,0-0.01,0-0.01,0l-3.81-0.1c-0.35-0.01-0.63-0.3-0.62-0.65c0.01-0.35,0.24-0.61,0.65-0.62l3.81,0.1
				c0.35,0.01,0.63,0.3,0.62,0.65C940.7,2816.9,940.42,2817.18,940.08,2817.18z M927.39,2816.86h-0.01l-3.81-0.09
				c-0.35-0.01-0.63-0.3-0.62-0.65c0.01-0.35,0.25-0.62,0.65-0.62l3.81,0.09c0.35,0.01,0.63,0.3,0.62,0.65
				C928.01,2816.59,927.73,2816.86,927.39,2816.86z M914.7,2816.58C914.69,2816.58,914.69,2816.58,914.7,2816.58l-3.82-0.08
				c-0.35-0.01-0.63-0.3-0.62-0.65c0.01-0.35,0.33-0.63,0.65-0.62l3.81,0.08c0.35,0.01,0.63,0.3,0.62,0.65
				C915.33,2816.3,915.04,2816.58,914.7,2816.58z M902.01,2816.32H902l-3.81-0.07c-0.35-0.01-0.63-0.3-0.62-0.65
				c0.01-0.35,0.27-0.66,0.65-0.62l3.81,0.07c0.35,0.01,0.63,0.3,0.62,0.65C902.64,2816.05,902.35,2816.32,902.01,2816.32z
				 M479.33,2816.13c-0.35,0-0.63-0.28-0.63-0.63c0-0.35,0.28-0.64,0.63-0.64l3.81-0.05c0.3-0.01,0.64,0.28,0.64,0.63
				c0,0.35-0.28,0.64-0.63,0.64L479.33,2816.13L479.33,2816.13z M889.32,2816.09h-0.01l-3.81-0.06c-0.35-0.01-0.63-0.29-0.62-0.65
				c0.01-0.35,0.29-0.62,0.63-0.62h0.01l3.81,0.06c0.35,0.01,0.63,0.3,0.62,0.65C889.95,2815.82,889.67,2816.09,889.32,2816.09z
				 M492.03,2815.98c-0.35,0-0.63-0.28-0.63-0.63c0-0.35,0.28-0.64,0.63-0.64l3.81-0.04c0.36-0.04,0.64,0.28,0.64,0.63
				c0,0.35-0.28,0.64-0.63,0.64L492.03,2815.98L492.03,2815.98z M876.63,2815.89h-0.01l-3.81-0.06c-0.35-0.01-0.63-0.29-0.63-0.64
				c0.01-0.35,0.25-0.65,0.64-0.63l3.81,0.06c0.35,0.01,0.63,0.29,0.62,0.64C877.26,2815.61,876.98,2815.89,876.63,2815.89z
				 M504.72,2815.84c-0.35,0-0.63-0.28-0.63-0.63c0-0.35,0.28-0.64,0.63-0.64l3.81-0.04c0.39,0.01,0.64,0.28,0.64,0.63
				c0,0.35-0.28,0.64-0.63,0.64L504.72,2815.84L504.72,2815.84z M517.42,2815.71c-0.35,0-0.63-0.28-0.63-0.63
				c0-0.35,0.28-0.64,0.63-0.64l3.81-0.04c0.39,0.03,0.64,0.28,0.64,0.63c0,0.35-0.28,0.64-0.63,0.64L517.42,2815.71L517.42,2815.71
				z M863.94,2815.7L863.94,2815.7l-3.82-0.05c-0.35,0-0.63-0.29-0.63-0.64c0-0.35,0.29-0.63,0.63-0.63h0.01l3.81,0.05
				c0.35,0,0.63,0.29,0.63,0.64C864.57,2815.42,864.29,2815.7,863.94,2815.7z M530.12,2815.59c-0.35,0-0.63-0.28-0.63-0.63
				c0-0.35,0.28-0.64,0.63-0.64l3.81-0.04c0.39,0.03,0.64,0.28,0.64,0.63c0,0.35-0.28,0.64-0.63,0.64L530.12,2815.59L530.12,2815.59
				z M851.25,2815.53L851.25,2815.53l-3.82-0.05c-0.35,0-0.63-0.29-0.63-0.64c0-0.35,0.28-0.66,0.64-0.63l3.81,0.05
				c0.35,0,0.63,0.29,0.63,0.64C851.88,2815.25,851.6,2815.53,851.25,2815.53z M542.81,2815.47c-0.35,0-0.63-0.28-0.63-0.63
				c0-0.35,0.28-0.64,0.63-0.64l3.81-0.03h0.01c0.35,0,0.63,0.28,0.63,0.63c0,0.35-0.28,0.64-0.63,0.64L542.81,2815.47
				L542.81,2815.47z M838.56,2815.39L838.56,2815.39l-3.81-0.04c-0.35,0-0.63-0.29-0.63-0.64c0-0.35,0.31-0.65,0.64-0.63l3.81,0.04
				c0.35,0,0.63,0.29,0.63,0.64C839.19,2815.11,838.91,2815.39,838.56,2815.39z M555.51,2815.36c-0.35,0-0.63-0.28-0.63-0.63
				c0-0.35,0.28-0.64,0.63-0.64l3.81-0.03h0c0.35,0,0.63,0.28,0.63,0.63c0,0.35-0.28,0.64-0.63,0.64L555.51,2815.36L555.51,2815.36z
				 M568.2,2815.26c-0.35,0-0.63-0.28-0.63-0.63c0-0.35,0.28-0.64,0.63-0.64l3.81-0.03h0.01c0.35,0,0.63,0.28,0.63,0.63
				c0,0.35-0.28,0.64-0.63,0.64L568.2,2815.26C568.21,2815.26,568.2,2815.26,568.2,2815.26z M825.87,2815.25L825.87,2815.25
				l-3.81-0.04c-0.35,0-0.63-0.29-0.63-0.64c0-0.35,0.29-0.63,0.63-0.63h0l3.81,0.04c0.35,0,0.63,0.29,0.63,0.64
				C826.5,2814.97,826.21,2815.25,825.87,2815.25z M580.9,2815.17c-0.35,0-0.63-0.28-0.63-0.63c0-0.35,0.28-0.64,0.63-0.64
				l3.81-0.03c0.34-0.03,0.64,0.28,0.64,0.63c0,0.35-0.28,0.64-0.63,0.64L580.9,2815.17L580.9,2815.17z M813.18,2815.14
				L813.18,2815.14l-3.81-0.03c-0.35,0-0.63-0.29-0.63-0.64c0-0.35,0.29-0.63,0.63-0.63h0l3.81,0.03c0.35,0,0.63,0.29,0.63,0.64
				C813.81,2814.86,813.52,2815.14,813.18,2815.14z M593.59,2815.09c-0.35,0-0.63-0.28-0.63-0.63c0-0.35,0.28-0.64,0.63-0.64
				l3.81-0.02h0c0.35,0,0.63,0.28,0.64,0.63c0,0.35-0.28,0.64-0.63,0.64L593.59,2815.09L593.59,2815.09z M800.48,2815.04
				L800.48,2815.04l-3.81-0.03c-0.35,0-0.63-0.29-0.63-0.64c0-0.35,0.31-0.68,0.64-0.63l3.81,0.03c0.35,0,0.63,0.29,0.63,0.64
				C801.12,2814.76,800.83,2815.04,800.48,2815.04z M606.29,2815.01c-0.35,0-0.63-0.28-0.63-0.63c0-0.35,0.28-0.64,0.63-0.64
				l3.81-0.02h0c0.35,0,0.63,0.28,0.63,0.63c0,0.35-0.28,0.64-0.63,0.64L606.29,2815.01L606.29,2815.01z M787.79,2814.96
				L787.79,2814.96l-3.81-0.02c-0.35,0-0.63-0.29-0.63-0.64c0-0.35,0.29-0.61,0.64-0.63l3.81,0.02c0.35,0,0.63,0.29,0.63,0.64
				C788.43,2814.68,788.14,2814.96,787.79,2814.96z M618.98,2814.94c-0.35,0-0.63-0.28-0.63-0.63c0-0.35,0.28-0.64,0.63-0.64
				l3.81-0.02h0c0.35,0,0.63,0.28,0.64,0.63c0,0.35-0.28,0.64-0.63,0.64L618.98,2814.94L618.98,2814.94z M775.1,2814.89
				L775.1,2814.89l-3.81-0.02c-0.35,0-0.63-0.29-0.63-0.64c0-0.35,0.29-0.63,0.63-0.63h0l3.81,0.02c0.35,0,0.63,0.29,0.63,0.64
				C775.73,2814.61,775.45,2814.89,775.1,2814.89z M631.68,2814.88c-0.35,0-0.63-0.28-0.63-0.63c0-0.35,0.28-0.64,0.63-0.64
				l3.81-0.02h0c0.35,0,0.63,0.28,0.64,0.63c0,0.35-0.28,0.64-0.63,0.64L631.68,2814.88L631.68,2814.88z M644.37,2814.83
				c-0.35,0-0.63-0.28-0.63-0.63s0.28-0.64,0.63-0.64l3.81-0.01h0c0.35,0,0.63,0.28,0.64,0.63c0,0.35-0.28,0.64-0.63,0.64
				L644.37,2814.83L644.37,2814.83z M762.41,2814.83L762.41,2814.83l-3.81-0.01c-0.35,0-0.63-0.29-0.63-0.64
				c0-0.35,0.29-0.63,0.63-0.63h0l3.81,0.01c0.35,0,0.63,0.29,0.63,0.64C763.04,2814.55,762.76,2814.83,762.41,2814.83z
				 M657.07,2814.79c-0.35,0-0.63-0.28-0.63-0.63c0-0.35,0.28-0.64,0.63-0.64l3.81-0.01h0c0.35,0,0.63,0.28,0.63,0.63
				c0,0.35-0.28,0.64-0.63,0.64L657.07,2814.79L657.07,2814.79z M749.72,2814.79L749.72,2814.79l-3.81-0.01
				c-0.35,0-0.63-0.29-0.63-0.64c0-0.35,0.29-0.63,0.63-0.63h0l3.81,0.01c0.35,0,0.63,0.29,0.63,0.64
				C750.35,2814.5,750.07,2814.79,749.72,2814.79z M669.76,2814.76c-0.35,0-0.63-0.28-0.63-0.63c0-0.35,0.28-0.64,0.63-0.64
				l3.81-0.01h0c0.35,0,0.63,0.28,0.64,0.63c0,0.35-0.28,0.64-0.63,0.64L669.76,2814.76L669.76,2814.76z M737.03,2814.75
				L737.03,2814.75l-3.81-0.01c-0.35,0-0.63-0.29-0.63-0.64c0-0.35,0.28-0.63,0.63-0.63h0l3.81,0.01c0.35,0,0.63,0.28,0.63,0.64
				C737.66,2814.47,737.38,2814.75,737.03,2814.75z M682.46,2814.74c-0.35,0-0.63-0.28-0.63-0.63c0-0.35,0.28-0.63,0.63-0.64l3.81,0
				c0.35,0,0.63,0.28,0.64,0.63c0,0.35-0.28,0.64-0.63,0.64L682.46,2814.74L682.46,2814.74z M724.34,2814.73L724.34,2814.73l-3.81,0
				c-0.35,0-0.63-0.28-0.63-0.64c0-0.35,0.28-0.63,0.63-0.63h0l3.81,0c0.35,0,0.63,0.28,0.63,0.64
				C724.97,2814.45,724.69,2814.73,724.34,2814.73z M695.15,2814.72c-0.35,0-0.64-0.28-0.64-0.63c0-0.35,0.28-0.63,0.63-0.63l3.8,0
				c0.35,0,0.64,0.28,0.64,0.63c0,0.35-0.28,0.63-0.63,0.63L695.15,2814.72z M711.64,2814.72L711.64,2814.72l-3.81,0
				c-0.35,0-0.63-0.28-0.63-0.63c0-0.35,0.28-0.63,0.63-0.63l3.81,0c0.35,0,0.63,0.28,0.63,0.64
				C712.28,2814.44,711.99,2814.72,711.64,2814.72z"/>
			<linearGradient id="SVGID_14_" gradientUnits="userSpaceOnUse" x1="763.9923" y1="2366.1187" x2="775.9462" y2="2700.8298">
				<stop  offset="0" style="stop-color:#09005D"/>
				<stop  offset="1" style="stop-color:#1A0F91"/>
			</linearGradient>
			<path class="st22" d="M829.63,3106.1h-83.19c-10.9,0-20.08-8.11-21.38-18.89l-9.61-80.05c-1.53-12.75,8.47-23.97,21.38-23.97
				h99.94c12.64,0,22.56,10.79,21.45,23.32l-7.14,80.05C850.09,3097.63,840.78,3106.1,829.63,3106.1z"/>
			<defs>
				<filter id="Adobe_OpacityMaskFilter" filterUnits="userSpaceOnUse" x="732.37" y="2997.83" width="108.84" height="93.55">
					<feFlood  style="flood-color:white;flood-opacity:1" result="back"/>
					<feBlend  in="SourceGraphic" in2="back" mode="normal"/>
				</filter>
			</defs>
			<mask maskUnits="userSpaceOnUse" x="732.37" y="2997.83" width="108.84" height="93.55" id="SVGID_15_">
				<g class="st23">
					<defs>
						<filter id="Adobe_OpacityMaskFilter_1_" filterUnits="userSpaceOnUse" x="732.37" y="2997.83" width="108.84" height="93.55">
							<feFlood  style="flood-color:white;flood-opacity:1" result="back"/>
							<feBlend  in="SourceGraphic" in2="back" mode="normal"/>
						</filter>
					</defs>
					<mask maskUnits="userSpaceOnUse" x="732.37" y="2997.83" width="108.84" height="93.55" id="SVGID_15_">
						<g class="st24">
						</g>
					</mask>
					<linearGradient id="SVGID_16_" gradientUnits="userSpaceOnUse" x1="732.3723" y1="3044.6052" x2="841.2169" y2="3044.6052">
						<stop  offset="0" style="stop-color:#FFFFFF"/>
						<stop  offset="1" style="stop-color:#000000"/>
					</linearGradient>
					<path class="st25" d="M819.4,3091.38h-63.32c-8.3,0-15.29-6.17-16.27-14.37l-7.32-60.93c-1.17-9.71,6.45-18.25,16.27-18.25
						h76.07c9.62,0,17.17,8.21,16.32,17.75l-5.43,60.93C834.97,3084.93,827.89,3091.38,819.4,3091.38z"/>
				</g>
			</mask>
			<linearGradient id="SVGID_17_" gradientUnits="userSpaceOnUse" x1="732.3723" y1="3044.6052" x2="841.2169" y2="3044.6052">
				<stop  offset="0" style="stop-color:#4F52FF"/>
				<stop  offset="1" style="stop-color:#4042E2"/>
			</linearGradient>
			<path class="st26" d="M819.4,3091.38h-63.32c-8.3,0-15.29-6.17-16.27-14.37l-7.32-60.93c-1.17-9.71,6.45-18.25,16.27-18.25h76.07
				c9.62,0,17.17,8.21,16.32,17.75l-5.43,60.93C834.97,3084.93,827.89,3091.38,819.4,3091.38z"/>
		</g>
		<polygon class="st8" points="2644.34,1666.57 2842.36,2064.76 3096.91,1499.13 2832.5,1791.87 		"/>
		<g>
			<g>
				
					<linearGradient id="SVGID_18_" gradientUnits="userSpaceOnUse" x1="-1410.777" y1="1661.5732" x2="-1327.1715" y2="1900.4468" gradientTransform="matrix(1 0 0 1 3269.4707 0)">
					<stop  offset="0" style="stop-color:#FEBBBA"/>
					<stop  offset="1" style="stop-color:#FF928E"/>
				</linearGradient>
				<path class="st27" d="M1895.81,1789.71c-1.29,4.09,13.61,10.32,22.38-6.41c0.31-8.02,5.18-42.36,0.39-48.9
					c-25.51-34.79-74.98-78.39-74.98-78.39c-8.36,8.25-1.47,16.35-1.47,16.35l24,25c-5.02,9.07-11.14,16.73-14.01,27.7
					c-2.17,8.31-0.84,17.19,3.35,24.75c4.21,7.59,9.96,17.45,15.39,25.17C1881.14,1789.6,1895.81,1789.71,1895.81,1789.71z"/>
				
					<linearGradient id="SVGID_19_" gradientUnits="userSpaceOnUse" x1="-1346.5498" y1="1814.1892" x2="-1409.526" y2="1687.1509" gradientTransform="matrix(1 0 0 1 3269.4707 0)">
					<stop  offset="0" style="stop-color:#FEBBBA"/>
					<stop  offset="1" style="stop-color:#FF928E"/>
				</linearGradient>
				<path class="st28" d="M1876.62,1713.58l21.87,18.54l6.87,18.46l-19.5,21.63c0,0-6.56-36.62-11.43-44.55
					C1869.56,1719.73,1872.08,1715.9,1876.62,1713.58z"/>
			</g>
			<g>
				
					<linearGradient id="SVGID_20_" gradientUnits="userSpaceOnUse" x1="6088.0103" y1="3111.7568" x2="5554.5361" y2="3692.0276" gradientTransform="matrix(-1 0 0 1 8244.7529 0)">
					<stop  offset="0" style="stop-color:#09005D"/>
					<stop  offset="1" style="stop-color:#1A0F91"/>
				</linearGradient>
				<path class="st29" d="M2325.37,3154.98c0,0,5.53,31.28,8.23,62.24c1.06,12.1-8.27,22.61-20.41,23.11
					c-41.23,1.72-129.42,5.06-161.07,3.64c-4.76-0.21-7.87-5.08-6.11-9.51c1.48-3.71,4.32-6.71,7.95-8.37l145.68-66.95
					L2325.37,3154.98z"/>
				
					<linearGradient id="SVGID_21_" gradientUnits="userSpaceOnUse" x1="5914.8525" y1="3154.854" x2="5962.2383" y2="3154.854" gradientTransform="matrix(-1 0 0 1 8244.7529 0)">
					<stop  offset="0" style="stop-color:#FEBBBA"/>
					<stop  offset="1" style="stop-color:#FF928E"/>
				</linearGradient>
				<path class="st30" d="M2329.9,3136.61l-4.44,37.41c0,0-25.52,11.88-42.95-1.5l10.57-41.69L2329.9,3136.61z"/>
				<linearGradient id="SVGID_22_" gradientUnits="userSpaceOnUse" x1="4295.3672" y1="584.8074" x2="1579.8351" y2="3638.4968">
					<stop  offset="0" style="stop-color:#09005D"/>
					<stop  offset="1" style="stop-color:#1A0F91"/>
				</linearGradient>
				<path class="st31" d="M2326.56,2433.26c1.92,9.77,10.29,487.53-40.78,701.63c-0.83,3.49,0.94,7.09,4.26,8.45
					c7.83,3.2,23.19,7.83,41.59,8.45c5.7,0.19,10.81-3.51,12.42-8.98c14.6-49.67,84.55-298.56,93.67-536.31
					c10.2-265.66,0-9.05,0-9.05l-5.98-164.22L2326.56,2433.26z"/>
				
					<linearGradient id="SVGID_23_" gradientUnits="userSpaceOnUse" x1="5968.3325" y1="3001.7332" x2="5434.8618" y2="3582.0005" gradientTransform="matrix(-1 0 0 1 8244.7529 0)">
					<stop  offset="0" style="stop-color:#09005D"/>
					<stop  offset="1" style="stop-color:#1A0F91"/>
				</linearGradient>
				<path class="st32" d="M2492.95,3171.3c0,0,8.79,15.79,17.31,57.75c1.54,7.58-3.76,14.83-11.45,15.59
					c-13.61,1.34-34.57,3.06-51.36,2.94c-7.74-0.05-13.78-6.79-12.85-14.47c1.86-15.31,7.65-40.44,25.55-60.02L2492.95,3171.3z"/>
				
					<linearGradient id="SVGID_24_" gradientUnits="userSpaceOnUse" x1="5744.0742" y1="3152.4243" x2="5784.9878" y2="3152.4243" gradientTransform="matrix(-1 0 0 1 8244.7529 0)">
					<stop  offset="0" style="stop-color:#FEBBBA"/>
					<stop  offset="1" style="stop-color:#FF928E"/>
				</linearGradient>
				<path class="st33" d="M2500.68,3123.18l-10.37,56.57c0,0-10.26,7.63-30.54,2.1l4.95-60.87L2500.68,3123.18z"/>
				<linearGradient id="SVGID_25_" gradientUnits="userSpaceOnUse" x1="4335.7461" y1="620.7119" x2="1620.2136" y2="3674.4021">
					<stop  offset="0" style="stop-color:#09005D"/>
					<stop  offset="1" style="stop-color:#1A0F91"/>
				</linearGradient>
				<path class="st34" d="M2528.7,2447.93c41.77,252.07-9.06,623.01-26.2,695.62c-1.05,4.44-4.64,7.85-9.14,8.6
					c-7.65,1.27-20.25,2.3-32.67-1.3c-4.28-1.24-7.28-5.1-7.46-9.56c-2.3-58.7,1.84-419.04-37.08-561.45
					c-1.97-7.22-6.38-13.51-12.48-17.85l-75.54-53.7l-5.79-86.8L2528.7,2447.93z"/>
				<g>
					<path class="st8" d="M2262.55,1970.3c125.17-2.07,263.28,32.87,263.28,32.87c37.31,217.71,6.52,468.81,6.52,468.81
						c-96.9,25.41-206.22-15.54-206.22-15.54c-16.11-91-91.25-347.09-91.25-347.09c-61.16-7.59-111.54-25.24-153.03-48.56
						c31.65-36.68,46.57-83.36,53.05-110.95C2179.16,1963.59,2223.95,1970.94,2262.55,1970.3z"/>
					
						<linearGradient id="SVGID_26_" gradientUnits="userSpaceOnUse" x1="-1339.3181" y1="1636.5623" x2="-1255.712" y2="1875.4371" gradientTransform="matrix(1 0 0 1 3269.4707 0)">
						<stop  offset="0" style="stop-color:#FEBBBA"/>
						<stop  offset="1" style="stop-color:#FF928E"/>
					</linearGradient>
					<path class="st35" d="M1892.82,1785.93c12.3-14.85,27.86-7.83,27.86-7.83c18.42,77.81,115,140.9,214.23,171.73
						c-6.48,27.59-21.4,74.27-53.05,110.95C1917.19,1968.2,1892.82,1785.93,1892.82,1785.93z"/>
				</g>
				<path class="st8" d="M2477.82,2124.37l48.01-121.2c0,0,116.92,79.44,136.14,180.16c-22.09,1.63-62.29,7.37-101.64,27.24
					C2551.69,2163.01,2477.82,2124.37,2477.82,2124.37z"/>
				
					<linearGradient id="SVGID_27_" gradientUnits="userSpaceOnUse" x1="5815.3545" y1="1934.0066" x2="5936.4795" y2="1934.0066" gradientTransform="matrix(-1 0 0 1 8244.7529 0)">
					<stop  offset="0" style="stop-color:#FEBBBA"/>
					<stop  offset="1" style="stop-color:#FF928E"/>
				</linearGradient>
				<path class="st36" d="M2389.34,1868.68l39.83,115.18c0.66,1.91-0.13,4.02-1.89,5c-10.86,6-49.97,23.35-97.11-6.53
					c-4.91-3.11-8.25-8.19-9-13.96l-12.9-99.69H2389.34z"/>
				<g>
					
						<linearGradient id="SVGID_28_" gradientUnits="userSpaceOnUse" x1="-1145.5863" y1="2543.2646" x2="-1190.8494" y2="2393.9763" gradientTransform="matrix(-0.746 -0.6659 -0.6659 0.746 3118.4175 -803.1727)">
						<stop  offset="0" style="stop-color:#FEBBBA"/>
						<stop  offset="1" style="stop-color:#FF928E"/>
					</linearGradient>
					<path class="st37" d="M2302.68,1762.02c0,0-43.73,82.33-38.13,115.58c5.61,33.25,59.81,30.87,107.14,3.86l33.07-88.89
						L2302.68,1762.02z"/>
					
						<linearGradient id="SVGID_29_" gradientUnits="userSpaceOnUse" x1="-1186.4229" y1="2283.1511" x2="-1148.5605" y2="2499.1069" gradientTransform="matrix(-0.746 -0.6659 -0.6659 0.746 3118.4175 -803.1727)">
						<stop  offset="0" style="stop-color:#09005D"/>
						<stop  offset="1" style="stop-color:#1A0F91"/>
					</linearGradient>
					<path class="st38" d="M2369.6,1837.81c-1.92-0.85-2.63-3.21-1.48-4.97c3.5-5.35,10.07-16.27,12.17-25.83
						c0,0,7.86-5.04-20.01-11.71c-27.87-6.67-69.44-17.03-78.17-40.75c-8.52-23.13,13.86-81.3,49.57-34.95
						c1.36,1.76,4.02,1.8,5.38,0.04c5.85-7.62,21.24-23.43,42.61-13.84c19.99,8.97,22.25,23.62,21.97,31.01
						c-0.08,2.17,1.86,3.86,4,3.45c10.11-1.93,34.37-3.58,45.69,21.3c9.33,20.5,3.26,32.1-2.26,37.78
						c-1.79,1.84-1.01,4.87,1.45,5.62c6.64,2.03,15.22,7.67,14.36,23.23c-1.19,21.52-25.25,19.62-32.1,18.64
						c-1.12-0.16-2.25,0.22-3.01,1.06c-5.87,6.5-32.33,34.1-60.98,37.42c-2.48,0.29-4.4-2.16-3.59-4.52l12.4-36.03
						c0.58-1.67-0.23-3.51-1.84-4.23L2369.6,1837.81z"/>
					
						<linearGradient id="SVGID_30_" gradientUnits="userSpaceOnUse" x1="-1191.8563" y1="2542.5693" x2="-1232.5802" y2="2408.2522" gradientTransform="matrix(-0.746 -0.6659 -0.6659 0.746 3118.4175 -803.1727)">
						<stop  offset="0" style="stop-color:#FEBBBA"/>
						<stop  offset="1" style="stop-color:#FF928E"/>
					</linearGradient>
					<path class="st39" d="M2364.62,1842.92c0,0,31.14-21.37,33.41-3.37c2.27,17.99-28.04,26.06-43.06,19.35L2364.62,1842.92z"/>
				</g>
				
					<linearGradient id="SVGID_31_" gradientUnits="userSpaceOnUse" x1="-384.7475" y1="2824.6045" x2="-483.2197" y2="2117.3923" gradientTransform="matrix(-1 0 0 1 2146.073 0)">
					<stop  offset="0" style="stop-color:#FEBBBA"/>
					<stop  offset="1" style="stop-color:#FF928E"/>
				</linearGradient>
				<path class="st40" d="M2560.34,2210.56c0,0,40.86,184.35,3.85,288c45.38,21.04,37,17.07,37,17.07s89.78-262.31,60.79-332.31
					C2604.83,2177.26,2576.49,2192.62,2560.34,2210.56z"/>
				
					<linearGradient id="SVGID_32_" gradientUnits="userSpaceOnUse" x1="-396.4735" y1="2756.5737" x2="-475.0545" y2="2192.217" gradientTransform="matrix(-1 0 0 1 2146.073 0)">
					<stop  offset="0" style="stop-color:#FEBBBA"/>
					<stop  offset="1" style="stop-color:#FF928E"/>
				</linearGradient>
				<path class="st41" d="M2564.19,2498.56c0,0-23.38,30.27-21.51,42.32c1.87,12.06,2.32,16.97,2.32,16.97s11.75-8.04,11.01-18.31
					c-1.63,32.59-12.54,69.65-2.62,67.87c9.92-1.79,61.26-49.11,49.66-99.57C2576.69,2489.54,2569.31,2491.53,2564.19,2498.56z"/>
			</g>
		</g>
	</g>
</g>
</svg>
