<?xml version="1.0" encoding="utf-8"?>
<!-- Generator: Adobe Illustrator 24.2.3, SVG Export Plug-In . SVG Version: 6.00 Build 0)  -->
<svg version="1.1" xmlns="http://www.w3.org/2000/svg" xmlns:xlink="http://www.w3.org/1999/xlink" x="0px" y="0px"
	 viewBox="0 0 3710 3710" style="enable-background:new 0 0 3710 3710;" xml:space="preserve">
<style type="text/css">
	.st0{fill:#FFFFFF;}
	.st1{fill:url(#SVGID_1_);}
	.st2{fill:#BDD0FB;}
	.st3{fill:url(#SVGID_2_);}
	.st4{fill:url(#SVGID_3_);}
	.st5{fill:#EF7B14;}
	.st6{fill:url(#SVGID_4_);}
	.st7{fill:url(#SVGID_5_);}
	.st8{fill:#91B3FA;}
	.st9{opacity:0.3;}
	.st10{fill:url(#SVGID_6_);}
	.st11{fill:url(#SVGID_7_);}
	.st12{fill:url(#SVGID_8_);}
	.st13{fill:url(#SVGID_9_);}
	.st14{fill:url(#SVGID_10_);}
	.st15{fill:url(#SVGID_11_);}
	.st16{fill:url(#SVGID_12_);}
	.st17{fill:url(#SVGID_13_);}
	.st18{fill:url(#SVGID_14_);}
	.st19{fill:url(#SVGID_15_);}
	.st20{fill:url(#SVGID_16_);}
	.st21{fill:url(#SVGID_17_);}
	.st22{fill:url(#SVGID_18_);}
	.st23{fill:url(#SVGID_19_);}
	.st24{fill:url(#SVGID_20_);}
	.st25{fill:url(#SVGID_21_);}
	.st26{fill:url(#SVGID_22_);}
	.st27{fill:url(#SVGID_23_);}
	.st28{fill:url(#SVGID_24_);}
	.st29{fill:url(#SVGID_25_);}
	.st30{fill:url(#SVGID_26_);}
	.st31{fill:url(#SVGID_27_);}
	.st32{fill:url(#SVGID_28_);}
	.st33{fill:url(#SVGID_29_);}
	.st34{fill:url(#SVGID_30_);}
	.st35{fill:url(#SVGID_31_);}
	.st36{fill:url(#SVGID_32_);}
	.st37{fill:url(#SVGID_33_);}
	.st38{fill:#7D97F4;}
	.st39{fill:url(#SVGID_34_);}
	.st40{fill:url(#SVGID_35_);}
	.st41{fill:url(#SVGID_36_);}
	.st42{fill:url(#SVGID_37_);}
	.st43{fill:url(#SVGID_38_);}
	.st44{fill:url(#SVGID_39_);}
	.st45{fill:url(#SVGID_40_);}
	.st46{fill:url(#SVGID_41_);}
	.st47{fill:url(#SVGID_42_);}
	.st48{fill:url(#SVGID_43_);}
	.st49{fill:url(#SVGID_44_);}
	.st50{fill:url(#SVGID_45_);}
	.st51{fill:url(#SVGID_46_);}
	.st52{fill:url(#SVGID_47_);}
	.st53{fill:url(#SVGID_48_);}
</style>
<g id="Background">
	<g>
		<g>
			<rect class="st0" width="3710" height="3710"/>
		</g>
	</g>
</g>
<g id="Illustration">
	<g>
		<linearGradient id="SVGID_1_" gradientUnits="userSpaceOnUse" x1="3588.9924" y1="4065.3438" x2="1108.5569" y2="984.7986">
			<stop  offset="0" style="stop-color:#DAE3FE"/>
			<stop  offset="1" style="stop-color:#E9EFFD"/>
		</linearGradient>
		<path class="st1" d="M2906.61,2850.49c-56.97,59.98-110.88,98.66-153.48,129.22c-500.66,359.23-1093.08,254.52-1218.99,228.95
			c-185.92-37.76-545.31-110.76-805.14-416.31C335.91,2330.07,397.12,1601.76,702.03,1121c55.77-87.94,350.39-576.03,949.19-654.3
			c362.39-47.37,784.81,48.17,1090.72,304.46C3384.08,1309.14,3338.36,2395.95,2906.61,2850.49z"/>
		<g>
			<g>
				
					<ellipse transform="matrix(0.7071 -0.7071 0.7071 0.7071 -803.9916 1708.781)" class="st2" cx="1660.69" cy="1824.89" rx="1074.29" ry="1074.29"/>
				<g>
					<linearGradient id="SVGID_2_" gradientUnits="userSpaceOnUse" x1="2459.4434" y1="764.4141" x2="395.0129" y2="3505.2795">
						<stop  offset="0" style="stop-color:#4F52FF"/>
						<stop  offset="1" style="stop-color:#4042E2"/>
					</linearGradient>
					<circle class="st3" cx="1660.69" cy="1824.89" r="916.86"/>
					<path class="st0" d="M1660.68,2787.68c-530.88,0-962.78-431.9-962.78-962.79s431.91-962.79,962.78-962.79
						s962.78,431.9,962.78,962.79S2191.56,2787.68,1660.68,2787.68z M1660.68,908.03c-505.56,0-916.86,411.3-916.86,916.86
						c0,505.56,411.3,916.86,916.86,916.86c505.56,0,916.86-411.3,916.86-916.86C2577.54,1319.33,2166.24,908.03,1660.68,908.03z"/>
				</g>
				<g>
					<linearGradient id="SVGID_3_" gradientUnits="userSpaceOnUse" x1="2459.4429" y1="764.4142" x2="395.0159" y2="3505.2749">
						<stop  offset="0" style="stop-color:#4F52FF"/>
						<stop  offset="1" style="stop-color:#4042E2"/>
					</linearGradient>
					<circle class="st4" cx="1660.69" cy="1824.89" r="558.96"/>
					<path class="st0" d="M1660.68,2429.78c-333.53,0-604.89-271.35-604.89-604.89s271.35-604.88,604.89-604.88
						c333.54,0,604.89,271.35,604.89,604.88S1994.22,2429.78,1660.68,2429.78z M1660.68,1311.85
						c-282.89,0-513.04,230.15-513.04,513.04s230.15,513.05,513.04,513.05c282.89,0,513.04-230.16,513.04-513.05
						S1943.58,1311.85,1660.68,1311.85z"/>
				</g>
				<g>
					
						<ellipse transform="matrix(0.7071 -0.7071 0.7071 0.7071 -803.9916 1708.781)" class="st5" cx="1660.69" cy="1824.89" rx="216.56" ry="216.56"/>
					<path class="st0" d="M1660.68,2087.38c-144.73,0-262.48-117.75-262.48-262.48s117.75-262.48,262.48-262.48
						c144.73,0,262.48,117.75,262.48,262.48S1805.42,2087.38,1660.68,2087.38z M1660.68,1654.25
						c-94.09,0-170.64,76.55-170.64,170.64c0,94.09,76.55,170.64,170.64,170.64c94.09,0,170.64-76.55,170.64-170.64
						C1831.32,1730.8,1754.77,1654.25,1660.68,1654.25z"/>
				</g>
			</g>
			<g>
				
					<linearGradient id="SVGID_4_" gradientUnits="userSpaceOnUse" x1="187.3733" y1="3877.0906" x2="-70.6925" y2="4925.479" gradientTransform="matrix(-0.7071 -0.7071 0.7071 -0.7071 -1192.2574 4633.1733)">
					<stop  offset="0" style="stop-color:#09005D"/>
					<stop  offset="1" style="stop-color:#1A0F91"/>
				</linearGradient>
				<polygon class="st6" points="2685.74,802.6 2708.56,825.41 1844.81,1689.16 1822,1666.35 				"/>
				
					<linearGradient id="SVGID_5_" gradientUnits="userSpaceOnUse" x1="-32.6726" y1="4097.4595" x2="-111.5292" y2="4943.3818" gradientTransform="matrix(-0.7071 -0.7071 0.7071 -0.7071 -1192.2574 4633.1733)">
					<stop  offset="0" style="stop-color:#09005D"/>
					<stop  offset="1" style="stop-color:#1A0F91"/>
				</linearGradient>
				<path class="st7" d="M1838.15,1611.31c13.09-13.09,74.78,48.61,61.69,61.69l-228.81,179.88c-8.45,6.65-19.41-4.31-12.76-12.76
					L1838.15,1611.31z"/>
				<path class="st8" d="M2708.06,825.91l116.2,11.55l-159.52,159.52c-52.27,52.27-125.22,78.33-198.77,71.02l0,0L2708.06,825.91z"
					/>
				<path class="st8" d="M2685.25,803.1l-11.55-116.2l-159.52,159.52c-52.27,52.27-78.33,125.22-71.02,198.77l0,0L2685.25,803.1z"/>
			</g>
		</g>
		<g>
			<g>
				<g class="st9">
					<path class="st8" d="M1090.59,642.25c-3.25,3.25-8.51,3.24-11.76,0c-6.31-6.31-12.98-12.44-19.83-18.22
						c-3.47-2.92-3.95-8.08-1.1-11.59c0.03-0.04,0.07-0.08,0.1-0.13c2.96-3.51,8.2-3.96,11.71-1c7.22,6.08,14.24,12.53,20.88,19.18
						c3.04,3.04,3.23,7.84,0.58,11.1C1090.99,641.82,1090.8,642.04,1090.59,642.25z M1023.7,598.2c-7.58-4.79-15.43-9.3-23.35-13.4
						c-4.07-2.11-5.66-7.13-3.55-11.21c2.14-4.08,7.13-5.66,11.21-3.55c8.33,4.32,16.6,9.07,24.57,14.1
						c3.88,2.45,5.04,7.59,2.59,11.47c-0.18,0.28-0.37,0.55-0.58,0.8C1031.97,599.64,1027.3,600.47,1023.7,598.2z M960.24,567.41
						c-8.43-2.97-17.09-5.62-25.74-7.85c-4.44-1.15-7.12-5.69-5.97-10.13c1.15-4.44,5.68-7.11,10.13-5.97
						c9.12,2.36,18.24,5.14,27.11,8.27c4.33,1.53,6.6,6.28,5.08,10.6c-0.33,0.92-0.8,1.75-1.38,2.47
						C967.31,567.46,963.64,568.61,960.24,567.41z M891.48,551.58c-8.89-1.02-17.93-1.66-26.86-1.91c-4.59-0.13-8.21-3.95-8.08-8.54
						c0.13-4.59,3.96-8.2,8.54-8.08c9.41,0.26,18.92,0.94,28.28,2c4.56,0.52,7.84,4.64,7.32,9.2c-0.19,1.63-0.83,3.1-1.8,4.29
						C897.15,550.69,894.41,551.92,891.48,551.58z M820.91,551.47c-8.87,0.98-17.83,2.36-26.62,4.09c-4.51,0.89-8.88-2.04-9.76-6.55
						c-0.89-4.51,2.04-8.88,6.55-9.76c9.25-1.83,18.67-3.27,28.01-4.31c4.56-0.51,8.67,2.78,9.18,7.35c0.26,2.3-0.45,4.48-1.8,6.15
						C825.13,550.09,823.18,551.22,820.91,551.47z M752.08,566.98c-8.45,2.92-16.87,6.25-25.05,9.88c-4.2,1.86-9.11-0.03-10.97-4.22
						c-1.86-4.2,0.02-9.11,4.22-10.97c8.6-3.82,17.47-7.32,26.36-10.4c4.34-1.5,9.07,0.8,10.57,5.14c0.98,2.82,0.35,5.8-1.4,7.96
						C754.87,565.53,753.6,566.45,752.08,566.98z M540.06,791.31c-4.44-1.16-7.11-5.7-5.95-10.14c2.37-9.1,5.17-18.22,8.33-27.11
						c1.54-4.33,6.29-6.59,10.61-5.05c4.32,1.53,6.59,6.29,5.05,10.61c-2.99,8.44-5.65,17.1-7.9,25.74
						c-0.31,1.19-0.86,2.24-1.58,3.14C546.62,790.95,543.31,792.16,540.06,791.31z M688.44,597.34c-7.58,4.73-15.05,9.84-22.2,15.2
						c-3.67,2.75-8.89,2.01-11.64-1.66c-2.76-3.67-1.99-8.87,1.66-11.64c7.53-5.64,15.39-11.03,23.38-16.01
						c3.9-2.43,9.02-1.24,11.45,2.66c1.93,3.09,1.58,6.95-0.6,9.63C689.94,596.22,689.24,596.83,688.44,597.34z M564.35,723.06
						c-4.07-2.12-5.65-7.14-3.53-11.21c4.35-8.34,9.11-16.6,14.16-24.55c2.44-3.89,7.6-5.02,11.47-2.57
						c3.88,2.46,5.02,7.6,2.57,11.47c-4.8,7.56-9.33,15.41-13.46,23.33c-0.26,0.51-0.57,0.97-0.92,1.4
						C572.21,723.94,567.91,724.92,564.35,723.06z M633.19,641.15c-6.33,6.3-12.47,12.96-18.25,19.79
						c-2.96,3.51-8.21,3.94-11.71,0.98c-3.46-2.93-3.93-8.07-1.09-11.58c0.04-0.05,0.07-0.09,0.11-0.14
						c6.08-7.19,12.55-14.2,19.21-20.84c3.26-3.24,8.52-3.23,11.76,0.03c3.03,3.04,3.21,7.83,0.57,11.09
						C633.6,640.71,633.4,640.93,633.19,641.15z"/>
					<path class="st8" d="M539.07,846.08c1.03-1.27,1.7-2.86,1.83-4.62c0.31-4.27,0.73-8.61,1.21-12.9
						c0.52-4.56-2.75-8.68-7.31-9.21c-4.56-0.53-8.69,2.75-9.21,7.31c-0.52,4.51-0.95,9.07-1.28,13.57c-0.34,4.58,3.1,8.56,7.68,8.9
						C534.82,849.35,537.42,848.13,539.07,846.08z"/>
				</g>
				<g class="st9">
					<path class="st8" d="M620.6,1086.04c2.53-3.12,2.49-7.69-0.27-10.78c-2.86-3.19-5.7-6.5-8.44-9.82
						c-2.92-3.54-8.16-4.05-11.7-1.13c-3.56,2.93-4.05,8.16-1.13,11.7c2.89,3.5,5.88,6.98,8.89,10.34
						c3.06,3.42,8.32,3.71,11.74,0.64C620.03,1086.7,620.33,1086.37,620.6,1086.04z"/>
					<path class="st8" d="M1102.53,1086.77c-3.06,3.42-8.32,3.71-11.74,0.65c-3.42-3.06-3.71-8.31-0.65-11.74
						c5.83-6.51,11.47-13.37,16.84-20.47c2.74-3.65,7.98-4.38,11.65-1.61c3.66,2.77,4.38,7.98,1.61,11.64
						c-2.33,3.07-4.69,6.1-7.1,9.07C1109.71,1078.55,1106.14,1082.74,1102.53,1086.77z M1133.74,1030.52
						c-4-2.25-5.42-7.32-3.17-11.32c4.32-7.68,8.36-15.63,12-23.63c1.89-4.18,6.84-6.02,11.01-4.11c4.17,1.9,6.02,6.84,4.11,11.01
						c-3.84,8.42-8.09,16.79-12.64,24.87c-0.24,0.42-0.5,0.81-0.8,1.17C1141.76,1031.6,1137.33,1032.53,1133.74,1030.52z
						 M1070.07,1118.37c-7.05,5.98-14.46,11.74-22.01,17.12c-3.74,2.66-8.93,1.79-11.59-1.95c-2.66-3.74-1.79-8.92,1.95-11.59
						c7.18-5.11,14.21-10.58,20.9-16.26c3.5-2.97,8.75-2.54,11.72,0.96c2.63,3.1,2.59,7.56,0.12,10.6
						C1070.84,1117.65,1070.48,1118.02,1070.07,1118.37z M1163.29,965.64c-4.4-1.31-6.9-5.95-5.58-10.34
						c2.52-8.43,4.71-17.07,6.51-25.68c0.94-4.5,5.34-7.38,9.84-6.44c4.49,0.94,7.37,5.34,6.44,9.83
						c-1.89,9.06-4.2,18.16-6.85,27.04c-0.32,1.07-0.84,2.03-1.5,2.85C1170.07,965.45,1166.61,966.63,1163.29,965.64z
						 M1009.47,1159.15c-8.19,4.28-16.68,8.27-25.23,11.86c-4.23,1.78-9.1-0.21-10.88-4.44c-1.78-4.23,0.21-9.11,4.45-10.88
						c8.12-3.41,16.19-7.2,23.97-11.27c4.07-2.13,9.09-0.55,11.22,3.52c1.58,3.03,1.11,6.59-0.91,9.09
						C1011.38,1157.88,1010.51,1158.61,1009.47,1159.15z M941.39,1185.65c-8.95,2.39-18.11,4.44-27.21,6.07
						c-4.52,0.81-8.84-2.19-9.65-6.71c-0.81-4.53,2.19-8.84,6.71-9.65c8.65-1.56,17.35-3.5,25.86-5.77
						c4.44-1.19,8.99,1.45,10.18,5.88c0.71,2.67,0.04,5.39-1.58,7.39C944.63,1184.18,943.15,1185.18,941.39,1185.65z
						 M869.16,1196.69c-9.26,0.39-18.65,0.39-27.89,0c-4.59-0.19-8.15-4.07-7.96-8.65c0.19-4.59,4.07-8.15,8.65-7.96
						c8.78,0.37,17.69,0.37,26.5,0c4.59-0.19,8.46,3.37,8.65,7.96c0.09,2.11-0.61,4.06-1.85,5.58
						C873.82,1195.41,871.64,1196.59,869.16,1196.69z M796.23,1191.71c-9.12-1.65-18.28-3.7-27.22-6.11
						c-4.43-1.19-7.06-5.76-5.86-10.19c1.19-4.43,5.76-7.05,10.19-5.86c8.49,2.29,17.18,4.24,25.85,5.8
						c4.52,0.82,7.52,5.14,6.7,9.66c-0.26,1.43-0.86,2.7-1.72,3.75C802.32,1191.04,799.32,1192.27,796.23,1191.71z M726.15,1170.82
						c-8.52-3.61-16.99-7.63-25.19-11.95c-4.06-2.14-5.62-7.17-3.48-11.23c2.14-4.05,7.17-5.62,11.23-3.48
						c7.79,4.11,15.84,7.93,23.92,11.36c4.23,1.79,6.2,6.67,4.41,10.9c-0.31,0.74-0.72,1.4-1.2,2
						C733.57,1171.21,729.64,1172.3,726.15,1170.82z M662.43,1135.08c-5.55-3.96-11.04-8.14-16.32-12.43
						c-1.91-1.55-3.8-3.12-5.67-4.7c-3.5-2.97-4.04-8.23-0.97-11.71c2.97-3.5,8.21-3.94,11.72-0.97c1.78,1.51,3.58,3,5.39,4.47
						c5.02,4.07,10.24,8.05,15.51,11.81c3.74,2.67,4.6,7.86,1.93,11.59c-0.1,0.14-0.2,0.28-0.31,0.41
						C670.96,1136.95,666.02,1137.65,662.43,1135.08z"/>
					<path class="st8" d="M1184.87,892.58c1.04-1.28,1.71-2.89,1.83-4.66c0.31-4.49,0.53-9.07,0.65-13.62
						c0.13-4.59-3.49-8.41-8.08-8.54c-4.59-0.12-8.41,3.49-8.54,8.08c-0.12,4.32-0.33,8.67-0.62,12.93
						c-0.32,4.58,3.14,8.55,7.72,8.86C1180.65,895.83,1183.23,894.61,1184.87,892.58z"/>
				</g>
				<g>
					<path class="st8" d="M1091.37,785.04c-0.34-1.62-1.67-2.85-3.31-3.06l-46.9-5.99c-9.31-20.02-21.88-38.71-37.54-55.17
						l11.61-45.81c0.41-1.61-0.25-3.29-1.64-4.2l-47.43-31.1c-1.39-0.91-3.2-0.84-4.51,0.18l-37.38,28.91
						c-21.34-7.8-43.49-11.87-65.57-12.43l-24.19-40.63c-0.85-1.42-2.51-2.15-4.13-1.82l-55.53,11.55
						c-1.62,0.34-2.85,1.67-3.06,3.31l-5.99,46.9c-20.02,9.31-38.71,21.88-55.17,37.54l-45.81-11.61c-1.61-0.41-3.29,0.25-4.2,1.64
						l-31.1,47.43c-0.91,1.39-0.84,3.2,0.18,4.51l28.91,37.38c-7.8,21.34-11.87,43.49-12.43,65.57l-40.63,24.19
						c-1.42,0.85-2.15,2.51-1.82,4.13l11.55,55.53c0.34,1.62,1.67,2.85,3.31,3.06l46.91,5.99c9.31,20.02,21.88,38.71,37.54,55.17
						l-11.61,45.81c-0.41,1.61,0.25,3.3,1.64,4.2l47.43,31.1c1.39,0.91,3.2,0.84,4.51-0.18l37.38-28.91
						c21.34,7.8,43.49,11.87,65.57,12.43l24.19,40.63c0.85,1.42,2.51,2.15,4.13,1.82l55.53-11.55c1.62-0.34,2.85-1.67,3.06-3.31
						l5.99-46.9c20.02-9.31,38.71-21.88,55.17-37.54l45.81,11.61c1.61,0.41,3.29-0.25,4.2-1.64l31.1-47.43
						c0.91-1.39,0.84-3.2-0.18-4.51l-28.91-37.38c7.8-21.35,11.87-43.49,12.43-65.57l40.63-24.19c1.42-0.85,2.15-2.51,1.82-4.13
						L1091.37,785.04z"/>
					<g>
						<path class="st2" d="M891.91,905.5c-23.15,21.27-59.28,19.75-80.55-3.4c-10.31-11.21-15.63-25.77-14.98-40.98
							c0.64-15.21,7.17-29.27,18.39-39.57c23.15-21.27,59.28-19.75,80.55,3.4c19.35,21.06,19.83,52.87,2.33,74.45
							C895.91,901.54,894,903.58,891.91,905.5z M809.66,861.67c-0.49,11.67,3.59,22.82,11.49,31.42
							c16.31,17.74,44.02,18.92,61.76,2.61c17.76-16.31,18.92-44.02,2.61-61.76c-16.31-17.74-44.02-18.92-61.76-2.61
							c-1.61,1.48-3.09,3.06-4.44,4.72C813.45,843.3,810.06,852.19,809.66,861.67z"/>
					</g>
					<path class="st2" d="M960.87,952.16c3.01-3.71,5.84-7.59,8.5-11.63l0,0c0.84-1.27,1.65-2.56,2.44-3.86
						c3.91-6.41,7.31-13.12,10.14-20.03c0.04-0.09,0.08-0.19,0.12-0.28c0.11-0.27,0.22-0.54,0.32-0.8c0.21-0.52,0.41-1.05,0.62-1.57
						c0.53-1.38,0.08-2.89-1-3.78c-0.26-0.21-0.57-0.39-0.9-0.52c-1.71-0.66-3.63,0.2-4.3,1.91c-3.4,8.82-7.77,17.32-13,25.29
						c-25.94,39.58-69.46,60.84-113.59,60.27c-24.55-0.31-49.28-7.38-71.29-21.81c-3.86-2.53-7.56-5.24-11.1-8.1
						c-23.8-19.3-40.1-45.97-46.42-76.37c-7.26-34.92-0.49-70.58,19.06-100.41c40.4-61.6,123.31-78.83,184.89-38.46
						c3.8,2.49,7.45,5.16,10.96,8c15.18,12.31,27.5,27.81,36.01,45.42c0.22,0.45,0.53,0.84,0.9,1.13c0.97,0.79,2.34,0.99,3.54,0.41
						c1.65-0.8,2.35-2.78,1.55-4.44c-8.94-18.49-21.87-34.76-37.81-47.68c-3.68-2.98-7.51-5.79-11.5-8.4
						c-64.65-42.39-151.73-24.25-194.1,40.37c-20.53,31.31-27.64,68.75-20.01,105.41c6.64,31.92,23.75,59.92,48.73,80.18
						c3.71,3.01,7.6,5.85,11.65,8.51c31.32,20.53,68.75,27.64,105.41,20.01C912.6,994.27,940.61,977.15,960.87,952.16z"/>
				</g>
			</g>
			<g>
				<g class="st9">
					<path class="st8" d="M1439.97,559.22c1.4-1.73,1.56-4.23,0.23-6.15c-2.47-3.59-5.09-7.15-7.78-10.58
						c-1.75-2.23-4.97-2.63-7.21-0.88c-2.24,1.74-2.63,4.97-0.88,7.21c2.56,3.27,5.06,6.67,7.42,10.09
						c1.61,2.33,4.81,2.92,7.14,1.31C1439.32,559.93,1439.67,559.59,1439.97,559.22z"/>
					<path class="st8" d="M1414.3,529.3c-2,2.01-5.25,2.02-7.26,0.02c-5.07-5.05-10.47-9.89-16.02-14.4
						c-1.17-0.95-2.36-1.89-3.56-2.82c-2.24-1.74-2.64-4.96-0.9-7.2c1.73-2.05,4.96-2.64,7.21-0.9c1.26,0.98,2.5,1.96,3.72,2.95
						c5.83,4.72,11.48,9.8,16.8,15.1c1.88,1.87,2.01,4.85,0.37,6.87C1414.55,529.04,1414.43,529.17,1414.3,529.3z M1365.93,497.39
						c-7.45-4.45-15.24-8.48-23.16-11.97c-2.6-1.15-3.77-4.17-2.63-6.77c1.14-2.58,4.17-3.77,6.77-2.63
						c8.3,3.66,16.47,7.88,24.28,12.55c2.43,1.45,3.23,4.61,1.78,7.04c-0.13,0.21-0.27,0.42-0.43,0.6
						C1370.97,498.17,1368.15,498.71,1365.93,497.39z M1318.31,476.41c-8.3-2.48-16.84-4.47-25.39-5.91
						c-2.79-0.47-4.68-3.12-4.21-5.91c0.47-2.8,3.11-4.68,5.91-4.21c8.97,1.51,17.93,3.6,26.63,6.2c2.72,0.81,4.26,3.68,3.45,6.39
						c-0.2,0.66-0.52,1.25-0.93,1.76C1322.5,476.29,1320.36,477.02,1318.31,476.41z M1266.98,467.77
						c-8.67-0.37-17.44-0.21-26.06,0.48c-2.83,0.23-5.3-1.88-5.53-4.71c-0.23-2.82,1.88-5.3,4.7-5.53
						c9.05-0.73,18.24-0.9,27.33-0.51c2.83,0.12,5.03,2.52,4.91,5.35c-0.05,1.14-0.47,2.18-1.14,3.01
						C1270.21,467.09,1268.67,467.84,1266.98,467.77z M1215.11,471.92c-8.5,1.74-16.96,4.03-25.16,6.8c-2.68,0.91-5.6-0.54-6.5-3.23
						c-0.91-2.69,0.53-5.6,3.23-6.5c8.6-2.9,17.47-5.29,26.37-7.13c2.78-0.57,5.49,1.22,6.06,3.99c0.32,1.57-0.11,3.12-1.04,4.27
						C1217.34,471.02,1216.32,471.67,1215.11,471.92z M1165.81,488.54c-7.81,3.75-15.45,8.03-22.72,12.72
						c-2.38,1.54-5.56,0.85-7.1-1.53c-1.53-2.38-0.85-5.55,1.53-7.1c7.62-4.91,15.65-9.4,23.84-13.34c2.56-1.23,5.62-0.15,6.85,2.4
						c0.89,1.85,0.57,3.97-0.64,5.46C1167.11,487.72,1166.52,488.2,1165.81,488.54z M1122.09,516.7
						c-6.63,5.54-12.99,11.57-18.92,17.92c-1.94,2.07-5.18,2.18-7.26,0.25c-2.07-1.93-2.16-5.15-0.25-7.26
						c6.22-6.66,12.89-12.98,19.84-18.79c2.18-1.82,5.42-1.53,7.23,0.65c1.6,1.91,1.57,4.65,0.05,6.52
						C1122.58,516.24,1122.35,516.48,1122.09,516.7z M1065.61,578.75c-2.48-1.37-3.38-4.49-2.01-6.98
						c3.8-6.87,8.04-13.65,12.59-20.13c0.69-0.99,1.38-1.96,2.09-2.93c1.59-2.33,4.88-2.8,7.17-1.13c2.29,1.67,2.8,4.88,1.13,7.17
						c-0.66,0.91-1.32,1.83-1.97,2.77c-4.36,6.2-8.41,12.67-12.03,19.22c-0.15,0.27-0.32,0.52-0.51,0.75
						C1070.54,579.4,1067.82,579.97,1065.61,578.75z"/>
				</g>
				<g class="st9">
					<path class="st8" d="M1427.96,821.09c-5.72,6.88-11.92,13.46-18.41,19.58c-2.06,1.94-5.31,1.85-7.26-0.22
						c-1.95-2.07-1.82-5.31,0.22-7.26c6.19-5.83,12.1-12.11,17.56-18.67c1.81-2.18,5.05-2.47,7.23-0.66c2.16,1.8,2.47,5,0.71,7.18
						C1427.99,821.06,1427.97,821.08,1427.96,821.09z M1436.79,800.95c-2.38-1.54-3.06-4.72-1.52-7.1
						c4.63-7.16,8.88-14.68,12.62-22.34c1.24-2.53,4.32-3.61,6.87-2.36c2.55,1.24,3.6,4.31,2.36,6.86
						c-3.92,8.03-8.37,15.9-13.23,23.41c-0.1,0.16-0.21,0.31-0.33,0.45C1441.93,801.89,1439.01,802.39,1436.79,800.95z
						 M1388.87,857.88c-7.22,5.29-14.83,10.19-22.6,14.55c-2.47,1.39-5.61,0.51-6.99-1.97c-1.39-2.47-0.51-5.59,1.96-6.99
						c7.42-4.16,14.67-8.83,21.57-13.88c2.29-1.68,5.5-1.18,7.17,1.1c1.41,1.92,1.28,4.5-0.15,6.27
						C1389.56,857.31,1389.24,857.61,1388.87,857.88z M1460.88,754.35c-2.68-0.92-4.11-3.84-3.18-6.53
						c2.77-8.06,5.08-16.38,6.85-24.71c0.59-2.77,3.32-4.54,6.09-3.96c2.77,0.59,4.55,3.32,3.96,6.09
						c-1.85,8.74-4.27,17.47-7.18,25.92c-0.2,0.58-0.5,1.11-0.87,1.56C1465.22,754.36,1462.98,755.07,1460.88,754.35z
						 M1342.08,884.12c-8.26,3.39-16.82,6.31-25.44,8.69c-2.73,0.75-5.56-0.86-6.31-3.59c-0.75-2.73,0.85-5.56,3.59-6.31
						c8.22-2.26,16.38-5.05,24.26-8.28c2.62-1.08,5.62,0.18,6.7,2.8c0.74,1.8,0.38,3.77-0.76,5.19
						C1343.59,883.25,1342.9,883.78,1342.08,884.12z M1290.34,898.37c-8.85,1.32-17.86,2.11-26.78,2.35
						c-2.83,0.08-5.19-2.15-5.27-4.99c-0.08-2.83,2.15-5.2,4.99-5.27c8.5-0.23,17.1-0.99,25.55-2.25c2.8-0.42,5.42,1.52,5.83,4.32
						c0.22,1.48-0.22,2.91-1.09,3.99C1292.79,897.49,1291.66,898.18,1290.34,898.37z M1236.68,899.83
						c-8.92-0.84-17.86-2.24-26.58-4.15c-2.77-0.61-4.52-3.34-3.92-6.12c0.61-2.77,3.35-4.52,6.11-3.92
						c8.31,1.82,16.84,3.15,25.34,3.95c2.82,0.27,4.9,2.77,4.63,5.59c-0.1,1.05-0.5,1.99-1.12,2.75
						C1240.11,899.23,1238.46,899.99,1236.68,899.83z"/>
					<path class="st8" d="M1477.47,701.19c0.62-0.77,1.03-1.73,1.12-2.79c0.38-4.38,0.63-8.79,0.75-13.1
						c0.08-2.83-2.16-5.2-4.99-5.27c-2.83-0.07-5.19,2.16-5.27,4.99c-0.11,4.12-0.35,8.32-0.71,12.5c-0.24,2.83,1.85,5.31,4.67,5.56
						C1474.8,703.23,1476.43,702.47,1477.47,701.19z"/>
				</g>
				<g>
					<path class="st8" d="M1415.54,625.58c-0.23-1.09-1.12-1.91-2.22-2.05l-31.39-4.01c-6.23-13.4-14.64-25.9-25.12-36.92
						l7.77-30.65c0.27-1.08-0.17-2.2-1.09-2.81l-31.74-20.81c-0.93-0.61-2.14-0.56-3.02,0.12l-25.01,19.35
						c-14.28-5.22-29.1-7.95-43.87-8.32l-16.19-27.18c-0.57-0.95-1.68-1.44-2.76-1.22l-37.16,7.73c-1.09,0.23-1.91,1.12-2.05,2.22
						l-4.01,31.39c-13.4,6.23-25.9,14.64-36.92,25.12l-30.65-7.77c-1.08-0.27-2.2,0.17-2.81,1.09l-20.81,31.74
						c-0.61,0.93-0.56,2.14,0.12,3.02l19.35,25.01c-5.22,14.28-7.95,29.1-8.31,43.87l-27.19,16.19c-0.95,0.57-1.44,1.68-1.21,2.76
						l7.73,37.16c0.23,1.09,1.12,1.91,2.22,2.05l31.39,4.01c6.23,13.4,14.64,25.9,25.12,36.92l-7.77,30.65
						c-0.27,1.07,0.17,2.2,1.09,2.81l31.74,20.81c0.93,0.61,2.14,0.56,3.02-0.12l25.01-19.35c14.28,5.22,29.1,7.95,43.87,8.31
						l16.19,27.18c0.57,0.95,1.68,1.44,2.76,1.22l37.16-7.73c1.09-0.23,1.91-1.12,2.05-2.22l4.01-31.39
						c13.4-6.23,25.9-14.64,36.92-25.12l30.65,7.77c1.07,0.27,2.2-0.17,2.81-1.09l20.81-31.74c0.61-0.93,0.56-2.14-0.12-3.02
						l-19.35-25.01c5.22-14.28,7.94-29.1,8.31-43.87l27.19-16.19c0.95-0.57,1.44-1.68,1.21-2.76L1415.54,625.58z"/>
					<g>
						<path class="st2" d="M1282.53,706.68c-7.64,7.02-17.55,10.65-27.92,10.21c-10.36-0.44-19.94-4.88-26.95-12.52
							c-14.49-15.76-13.45-40.34,2.32-54.87c15.77-14.49,40.38-13.44,54.87,2.32c7.02,7.64,10.65,17.55,10.21,27.91
							c-0.36,8.42-3.36,16.33-8.58,22.76C1285.28,703.97,1283.96,705.37,1282.53,706.68z M1235.22,697.42
							c5.16,5.62,12.21,8.89,19.83,9.21c7.62,0.32,14.91-2.35,20.53-7.51l0,0c5.61-5.17,8.89-12.21,9.21-19.83
							c0.32-7.62-2.35-14.91-7.51-20.53c-10.66-11.6-28.76-12.36-40.36-1.71c-1.05,0.96-2,1.98-2.87,3.06
							C1225.28,670.93,1225.52,686.87,1235.22,697.42z"/>
					</g>
					<path class="st2" d="M1330.53,739.16c2.05-2.52,3.98-5.17,5.8-7.94c3.61-5.51,6.67-11.38,9.09-17.49
						c0.11-0.28,0.21-0.55,0.32-0.83c0.82-2.13,0.13-4.47-1.55-5.83c-0.41-0.33-0.88-0.61-1.39-0.8c-2.65-1.02-5.61,0.31-6.63,2.94
						c-2.2,5.72-5.04,11.23-8.41,16.37l0,0c-0.18,0.28-0.37,0.56-0.56,0.84c-8.1,12.1-18.91,21.73-31.48,28.31
						c-6.82,3.57-14.17,6.25-21.89,7.93c-0.06,0.01-0.13,0.03-0.19,0.04c-0.19,0.04-0.38,0.08-0.58,0.12
						c-22.61,4.7-45.69,0.32-65-12.34c-2.5-1.64-4.9-3.39-7.19-5.24c-15.4-12.49-25.96-29.76-30.05-49.44
						c-4.7-22.61-0.31-45.69,12.34-65c12.66-19.29,32.08-32.53,54.69-37.24c22.61-4.7,45.69-0.32,65,12.34
						c2.46,1.61,4.82,3.34,7.09,5.18c9.83,7.97,17.8,18,23.31,29.4c0.34,0.7,0.82,1.29,1.39,1.75c1.5,1.21,3.62,1.53,5.47,0.64
						c2.55-1.24,3.62-4.3,2.39-6.86c-6.17-12.76-15.09-23.98-26.08-32.9c-2.54-2.06-5.18-3.99-7.93-5.8
						c-21.61-14.17-47.43-19.07-72.73-13.81c-25.29,5.26-47.03,20.03-61.18,41.66c-14.17,21.6-19.07,47.43-13.81,72.72
						c4.58,22.02,16.38,41.34,33.62,55.32c2.56,2.07,5.24,4.04,8.03,5.87C1244.25,786.49,1299.69,777.2,1330.53,739.16z"/>
				</g>
			</g>
		</g>
		<g>
			
				<linearGradient id="SVGID_6_" gradientUnits="userSpaceOnUse" x1="14746.0068" y1="3046.3032" x2="14216.4102" y2="3622.3569" gradientTransform="matrix(1 9.500000e-03 -9.500000e-03 1 -13735.6787 -63.4747)">
				<stop  offset="0" style="stop-color:#09005D"/>
				<stop  offset="1" style="stop-color:#1A0F91"/>
			</linearGradient>
			<path class="st10" d="M813.57,3164.23c0,0-5.78,31-8.76,61.71c-1.17,12,8,22.52,20.04,23.14c40.92,2.09,128.44,6.25,159.87,5.14
				c4.73-0.17,7.86-4.97,6.15-9.38c-1.43-3.69-4.23-6.7-7.81-8.39l-143.99-67.85L813.57,3164.23z"/>
			
				<linearGradient id="SVGID_7_" gradientUnits="userSpaceOnUse" x1="14574.1084" y1="3089.0823" x2="14621.1494" y2="3089.0823" gradientTransform="matrix(1 9.500000e-03 -9.500000e-03 1 -13735.6787 -63.4747)">
				<stop  offset="0" style="stop-color:#FEBBBA"/>
				<stop  offset="1" style="stop-color:#FF928E"/>
			</linearGradient>
			<path class="st11" d="M809.25,3145.94l4.05,37.18c0,0,25.22,12.04,42.65-1.08l-10.1-41.49L809.25,3145.94z"/>
			
				<linearGradient id="SVGID_8_" gradientUnits="userSpaceOnUse" x1="14787.7363" y1="2394.8047" x2="14337.0693" y2="3005.6257" gradientTransform="matrix(1 9.500000e-03 -9.500000e-03 1 -13735.6787 -63.4747)">
				<stop  offset="0" style="stop-color:#09005D"/>
				<stop  offset="1" style="stop-color:#1A0F91"/>
			</linearGradient>
			<path class="st12" d="M819.23,2447.72c-2,9.68-14.83,483.91,33.84,696.95c0.79,3.48-1,7.03-4.31,8.35
				c-7.81,3.1-23.1,7.56-41.37,8c-5.66,0.14-10.7-3.59-12.24-9.04c-14.02-49.45-81.11-297.2-87.92-533.32
				c-7.61-263.84,0.09-8.98,0.09-8.98l7.49-162.97L819.23,2447.72z"/>
			
				<linearGradient id="SVGID_9_" gradientUnits="userSpaceOnUse" x1="14627.2012" y1="2937.0591" x2="14097.582" y2="3513.1367" gradientTransform="matrix(1 9.500000e-03 -9.500000e-03 1 -13735.6787 -63.4747)">
				<stop  offset="0" style="stop-color:#09005D"/>
				<stop  offset="1" style="stop-color:#1A0F91"/>
			</linearGradient>
			<path class="st13" d="M647.05,3178.84c0,0-8.88,15.59-17.73,57.17c-1.6,7.51,3.59,14.76,11.22,15.58
				c13.5,1.46,34.29,3.37,50.96,3.41c7.68,0.02,13.74-6.61,12.89-14.25c-1.7-15.22-7.21-40.22-24.8-59.83L647.05,3178.84z"/>
			
				<linearGradient id="SVGID_10_" gradientUnits="userSpaceOnUse" x1="14404.5654" y1="3086.6631" x2="14445.1807" y2="3086.6631" gradientTransform="matrix(1 9.500000e-03 -9.500000e-03 1 -13735.6787 -63.4747)">
				<stop  offset="0" style="stop-color:#FEBBBA"/>
				<stop  offset="1" style="stop-color:#FF928E"/>
			</linearGradient>
			<path class="st14" d="M639.84,3131l9.76,56.27c0,0,10.11,7.67,30.3,2.37l-4.34-60.48L639.84,3131z"/>
			
				<linearGradient id="SVGID_11_" gradientUnits="userSpaceOnUse" x1="14707.415" y1="2335.5447" x2="14256.7529" y2="2946.3589" gradientTransform="matrix(1 9.500000e-03 -9.500000e-03 1 -13735.6787 -63.4747)">
				<stop  offset="0" style="stop-color:#09005D"/>
				<stop  offset="1" style="stop-color:#1A0F91"/>
			</linearGradient>
			<path class="st15" d="M618.42,2460.36c-43.85,249.85,3.09,618.6,19.42,690.84c1,4.42,4.53,7.84,8.99,8.62
				c7.58,1.33,20.08,2.48,32.45-0.99c4.26-1.19,7.28-5,7.5-9.42c2.84-58.25,2.14-416.03,42.13-557.04
				c2.03-7.15,6.46-13.35,12.56-17.6l75.5-52.6l6.57-86.12L618.42,2460.36z"/>
			<g>
				<path class="st5" d="M887.16,1988.71c-124.25-3.24-261.69,30.13-261.69,30.13c-39.1,215.78-10.92,465.36-10.92,465.36
					c95.96,26.15,204.87-13.47,204.87-13.47c16.85-90.19,93.88-343.72,93.88-343.72c60.79-6.96,110.97-24,152.38-46.76
					c-31.07-36.72-45.44-83.2-51.61-110.65C970.01,1982.84,925.48,1989.71,887.16,1988.71z"/>
				
					<linearGradient id="SVGID_12_" gradientUnits="userSpaceOnUse" x1="14767.7383" y1="1861.7941" x2="15008.0801" y2="1861.7941" gradientTransform="matrix(1 9.500000e-03 -9.500000e-03 1 -13735.6787 -63.4747)">
					<stop  offset="0" style="stop-color:#FEBBBA"/>
					<stop  offset="1" style="stop-color:#FF928E"/>
				</linearGradient>
				<path class="st16" d="M1255.97,1809.17c-12.07-14.86-27.58-8.03-27.58-8.03c-19.02,77.07-115.5,138.79-214.3,168.46
					c6.17,27.45,20.54,73.94,51.61,110.65C1230.05,1989.9,1255.97,1809.17,1255.97,1809.17z"/>
			</g>
			<g>
				
					<linearGradient id="SVGID_13_" gradientUnits="userSpaceOnUse" x1="-4507.8081" y1="1820.5804" x2="-4346.5366" y2="2187.5093" gradientTransform="matrix(-1 -9.500000e-03 -9.500000e-03 1 -3288.9529 36.7017)">
					<stop  offset="0" style="stop-color:#FEBBBA"/>
					<stop  offset="1" style="stop-color:#FF928E"/>
				</linearGradient>
				<path class="st17" d="M1252.97,1812.89c1.24,4.07-13.61,10.12-22.16-6.58c-0.23-7.96-4.74-42.11,0.07-48.55
					c25.66-34.29,75.18-77.11,75.18-77.11c8.22,8.27,1.31,16.25,1.31,16.25l-24.06,24.59c4.9,9.05,10.9,16.71,13.65,27.63
					c2.08,8.27,0.67,17.07-3.56,24.54c-4.25,7.49-10.05,17.23-15.52,24.85C1267.53,1812.92,1252.97,1812.89,1252.97,1812.89z"/>
				
					<linearGradient id="SVGID_14_" gradientUnits="userSpaceOnUse" x1="15006.9277" y1="1699.3125" x2="15074.2207" y2="1595.8494" gradientTransform="matrix(1 9.500000e-03 -9.500000e-03 1 -13735.6787 -63.4747)">
					<stop  offset="0" style="stop-color:#FEBBBA"/>
					<stop  offset="1" style="stop-color:#FF928E"/>
				</linearGradient>
				<path class="st18" d="M1272.74,1737.5l-21.89,18.2l-6.99,18.26l19.15,21.66c0,0,6.86-36.3,11.77-44.12
					C1279.69,1743.67,1277.22,1739.84,1272.74,1737.5z"/>
			</g>
			<path class="st5" d="M671.99,2139.62l-46.51-120.78c0,0-116.82,77.76-136.87,177.57c21.92,1.82,61.77,7.91,100.64,28.01
				C598.29,2177.28,671.99,2139.62,671.99,2139.62z"/>
			
				<linearGradient id="SVGID_15_" gradientUnits="userSpaceOnUse" x1="14241.8232" y1="2202.1987" x2="14545.9678" y2="2202.1987" gradientTransform="matrix(1 9.500000e-03 -9.500000e-03 1 -13735.6787 -63.4747)">
				<stop  offset="0" style="stop-color:#FEBBBA"/>
				<stop  offset="1" style="stop-color:#FF928E"/>
			</linearGradient>
			<path class="st19" d="M772.34,2253.81c0,0-131.02,72.41-174.39,9.1c-9-13.15-11.06-26.14-8.7-38.49
				c-38.87-20.1-78.73-26.18-100.64-28.01c-6.04,30.09-3.31,62.18,14.1,94.75c75.68,141.63,286.57-5.05,286.57-5.05L772.34,2253.81z
				"/>
			<linearGradient id="SVGID_16_" gradientUnits="userSpaceOnUse" x1="708.8276" y1="2106.0728" x2="823.7451" y2="1882.9974">
				<stop  offset="0" style="stop-color:#FEBBBA"/>
				<stop  offset="1" style="stop-color:#FF928E"/>
			</linearGradient>
			<path class="st20" d="M762.25,1886.62l-40.63,113.97c-0.67,1.89,0.09,3.99,1.83,4.98c10.72,6.06,49.39,23.66,96.47-5.57
				c4.9-3.04,8.27-8.05,9.07-13.77l13.75-98.84L762.25,1886.62z"/>
			<g>
				
					<linearGradient id="SVGID_17_" gradientUnits="userSpaceOnUse" x1="5352.3086" y1="8268.3379" x2="5307.3711" y2="8120.1245" gradientTransform="matrix(0.7523 -0.6588 0.6588 0.7523 -8602.2764 -818.1582)">
					<stop  offset="0" style="stop-color:#FEBBBA"/>
					<stop  offset="1" style="stop-color:#FF928E"/>
				</linearGradient>
				<path class="st21" d="M849.3,1781.56c0,0,42.64,82.14,36.76,115.11c-5.88,32.96-59.67,30.08-106.4,2.82l-31.99-88.56
					L849.3,1781.56z"/>
				
					<linearGradient id="SVGID_18_" gradientUnits="userSpaceOnUse" x1="5311.769" y1="8010.0981" x2="5349.3584" y2="8224.4951" gradientTransform="matrix(0.7523 -0.6588 0.6588 0.7523 -8602.2764 -818.1582)">
					<stop  offset="0" style="stop-color:#09005D"/>
					<stop  offset="1" style="stop-color:#1A0F91"/>
				</linearGradient>
				<path class="st22" d="M782.14,1856.16c1.92-0.83,2.64-3.16,1.52-4.92c-3.43-5.35-9.85-16.25-11.84-25.76
					c0,0-7.76-5.07,19.98-11.43c27.73-6.36,69.1-16.25,78-39.72c8.68-22.88-12.99-80.85-48.88-35.17c-1.36,1.74-4.01,1.75-5.34-0.01
					c-5.74-7.62-20.87-23.46-42.17-14.15c-19.93,8.72-22.31,23.24-22.11,30.58c0.06,2.16-1.88,3.82-4,3.39
					c-10.02-2.01-34.08-3.88-45.56,20.71c-9.45,20.26-3.54,31.84,1.88,37.52c1.76,1.84,0.95,4.84-1.49,5.56
					c-6.62,1.96-15.18,7.47-14.48,22.93c0.98,21.37,24.88,19.72,31.69,18.81c1.12-0.15,2.24,0.24,2.98,1.09
					c5.77,6.51,31.78,34.16,60.18,37.73c2.46,0.31,4.39-2.1,3.61-4.45l-11.96-35.89c-0.56-1.67,0.26-3.48,1.87-4.18L782.14,1856.16z
					"/>
				
					<linearGradient id="SVGID_19_" gradientUnits="userSpaceOnUse" x1="5306.3726" y1="8267.6455" x2="5265.9419" y2="8134.2959" gradientTransform="matrix(0.7523 -0.6588 0.6588 0.7523 -8602.2764 -818.1582)">
					<stop  offset="0" style="stop-color:#FEBBBA"/>
					<stop  offset="1" style="stop-color:#FF928E"/>
				</linearGradient>
				<path class="st23" d="M787.04,1861.28c0,0-30.71-21.5-33.14-3.66c-2.43,17.84,27.59,26.14,42.56,19.62L787.04,1861.28z"/>
			</g>
			<g>
				<g>
					
						<linearGradient id="SVGID_20_" gradientUnits="userSpaceOnUse" x1="14338.3135" y1="2080.7671" x2="14506.1396" y2="2780.0459" gradientTransform="matrix(1 0 0 1 -13467.3896 0)">
						<stop  offset="0" style="stop-color:#09005D"/>
						<stop  offset="1" style="stop-color:#1A0F91"/>
					</linearGradient>
					<path class="st24" d="M745.56,2368.24l71.37-249.25c0.81-2.83,3.22-4.89,6.15-5.23c12.93-1.51,50.4-5.74,93.67-9.4
						c52.11-4.41,112.63-7.98,148.79-4.94c5.14,0.43,8.25,5.87,5.96,10.49c-20.56,41.6-105.15,210.84-147.51,266.28
						c-1.4,1.84-3.57,2.91-5.89,2.89l-165.6-1.54C747.69,2377.5,744.24,2372.87,745.56,2368.24z"/>
					
						<linearGradient id="SVGID_21_" gradientUnits="userSpaceOnUse" x1="14223.3135" y1="2265.7634" x2="14318.4004" y2="2265.7634" gradientTransform="matrix(1 0 0 1 -13467.3896 0)">
						<stop  offset="0" style="stop-color:#FEBBBA"/>
						<stop  offset="1" style="stop-color:#FF928E"/>
					</linearGradient>
					<path class="st25" d="M762.81,2308.02c0,0-9.94-40.88-5.93-55.39c4.01-14.5,11.78-33.15,37.68-29.01
						c25.9,4.14,56.45,15.05,56.45,15.05s-1.54,18.89-21.23,12.8l12.21,9.45c0,0-1.75,15.13-18.37,7.05l11.35,12.53
						c0,0-7.14,12.42-19.37,4.46C803.36,2276.98,797.5,2312.94,762.81,2308.02z"/>
				</g>
				<path class="st8" d="M911.99,2178.76c0,11.57,9.38,20.95,20.95,20.95c11.57,0,20.95-9.38,20.95-20.95
					c0-11.57-9.38-20.95-20.95-20.95C921.37,2157.81,911.99,2167.19,911.99,2178.76z"/>
				<path class="st2" d="M825.01,2192.57l14.53-49.29c1.78-6.05,6.65-10.6,12.7-11.86c45.55-9.5,170.21-11.52,171.46-11.54
					l-0.08-5.57c-5.14,0.08-126.45,2.05-172.52,11.66c-8.06,1.68-14.54,7.71-16.91,15.74l-14.53,49.29L825.01,2192.57z"/>
			</g>
		</g>
		<g>
			<g>
				
					<linearGradient id="SVGID_22_" gradientUnits="userSpaceOnUse" x1="5444.9082" y1="1692.7965" x2="5140.7891" y2="2066.668" gradientTransform="matrix(-0.9922 -0.1247 -0.1247 0.9922 8264.5254 715.4178)">
					<stop  offset="0" style="stop-color:#FEBBBA"/>
					<stop  offset="1" style="stop-color:#FF928E"/>
				</linearGradient>
				<path class="st26" d="M2679.97,1821.89c1.98-3.78,7.58-3.19,8.72,0.93c4.23,15.23,14.48,41.82,35.97,51.26
					c1.08,0.48,2.11,0.96,3.1,1.44c0.98-2.92,0.99-6.32-1.35-9.89c-6.68-10.21,5.38-24.16,5.38-24.16s0.8,12.29,10.14,20.02
					c8.04,6.66,11.9,21.49,6.41,33.65c-11.63,45.19-29.06,104.96,38.81,148.62c67.86,43.66,163.43-82.4,163.43-82.4l-47.43,150.37
					c0,0-73.21,54.03-158.37-21.94c-85.16-75.97-28.71-186.52-28.71-186.52S2651.12,1877.07,2679.97,1821.89z"/>
				
					<linearGradient id="SVGID_23_" gradientUnits="userSpaceOnUse" x1="-5076.7422" y1="2394.4644" x2="-5276.1675" y2="2631.429" gradientTransform="matrix(0.9602 0.2794 -0.2794 0.9602 8902.9297 797.6744)">
					<stop  offset="0" style="stop-color:#09005D"/>
					<stop  offset="1" style="stop-color:#1A0F91"/>
				</linearGradient>
				<path class="st27" d="M2962.47,1740.43c0,0-19.66-88.19,81.36-64.84c0,0,49.04-8.01,51.53,38.27c0,0,31.61,20.83,8.47,60.88
					c0,0,93.94-36.28,134.87,46.05c40.93,82.34,3.31,127.64-36.13,139.44c0,0,31.95,16.04,16.83,52.27
					c-15.12,36.23-91.72,61.76-136.97,17.71c0,0-128.75,17.01-126.17-73.93c0,0-59.88-38.67,3.01-113.82
					C3022.16,1767.3,2962.47,1740.43,2962.47,1740.43z"/>
				<path class="st5" d="M2956.92,1944.84c20.3-6.09,79.4-17.32,135.62,34.56c9.53,8.8,13.43,22.17,10.03,34.69
					c-15.1,55.59-54.94,219.84-20.01,290.9c0,0-61.56,67.86-128.72,13.17c0,0-30.13-131.33-69.6-188.98
					c-27.25-39.8,43.45-149.47,61.34-175.96C2948.29,1949.2,2952.29,1946.24,2956.92,1944.84z"/>
				
					<linearGradient id="SVGID_24_" gradientUnits="userSpaceOnUse" x1="-5365.522" y1="2812.25" x2="-5349.2744" y2="2696.8923" gradientTransform="matrix(0.9602 0.2794 -0.2794 0.9602 8902.9297 797.6744)">
					<stop  offset="0" style="stop-color:#FEBBBA"/>
					<stop  offset="1" style="stop-color:#FF928E"/>
				</linearGradient>
				<path class="st28" d="M3012.97,1834.4c0,0,30.02,84.92,32.28,122.38c0,0-33.18,15.09-64.44-10.38c0,0-3.28-84.82-8.02-100.01
					L3012.97,1834.4z"/>
				
					<linearGradient id="SVGID_25_" gradientUnits="userSpaceOnUse" x1="-5440.0103" y1="2565.071" x2="-5288.0913" y2="2739.7371" gradientTransform="matrix(0.9602 0.2794 -0.2794 0.9602 8902.9297 797.6744)">
					<stop  offset="0" style="stop-color:#FEBBBA"/>
					<stop  offset="1" style="stop-color:#FF928E"/>
				</linearGradient>
				<path class="st29" d="M2971.27,1718.62c0,0-78.52,109.89-31.58,141.81c46.94,31.92,102.84-46.17,102.84-46.17
					s18.22-60.15-0.83-80.55C3022.64,1713.29,2971.27,1718.62,2971.27,1718.62z"/>
				
					<linearGradient id="SVGID_26_" gradientUnits="userSpaceOnUse" x1="-5172.2563" y1="2314.083" x2="-5371.6865" y2="2551.053" gradientTransform="matrix(0.9602 0.2794 -0.2794 0.9602 8902.9297 797.6744)">
					<stop  offset="0" style="stop-color:#09005D"/>
					<stop  offset="1" style="stop-color:#1A0F91"/>
				</linearGradient>
				<path class="st30" d="M3007.61,1692.35c0,0-36.07,8.55-41.13,24.87c-5.06,16.32,51.16,31.46,66.91,32.2l12.69,65.86
					c0,0,37.52-61.96,22.66-97.74C3053.88,1681.76,3007.61,1692.35,3007.61,1692.35z"/>
				
					<linearGradient id="SVGID_27_" gradientUnits="userSpaceOnUse" x1="-5402.0542" y1="2532.0557" x2="-5250.1377" y2="2706.7188" gradientTransform="matrix(0.9602 0.2794 -0.2794 0.9602 8902.9297 797.6744)">
					<stop  offset="0" style="stop-color:#FEBBBA"/>
					<stop  offset="1" style="stop-color:#FF928E"/>
				</linearGradient>
				<path class="st31" d="M3027.3,1806.16c0,0,30.56-35.4,42.72-12.32c12.16,23.08-27.51,40.4-41.24,29.07L3027.3,1806.16z"/>
				
					<linearGradient id="SVGID_28_" gradientUnits="userSpaceOnUse" x1="4743.356" y1="3309.8564" x2="5105.8003" y2="2670.0637" gradientTransform="matrix(-1 -9.500000e-03 -9.500000e-03 1 8008.4194 56.9446)">
					<stop  offset="0" style="stop-color:#FEBBBA"/>
					<stop  offset="1" style="stop-color:#FF928E"/>
				</linearGradient>
				<path class="st32" d="M2875.45,2593.9c0.23,5.96-10.24,53.25-15.93,78.48c-2.29,10.15-0.7,20.77,4.47,29.8l197.29,332.06
					c2.39,4.02,4.12,8.37,5.18,12.92c3.62,15.58,11.11,53.77,7.2,88.51l-10.21,21.2l44.14-10.02l9.6-118.54l-12.5-7.62
					c-10.8-6.58-19.2-16.42-24.01-28.11c-17.84-43.33-62.14-153.64-73.56-207.4c-12.98-61.1-80.82-110.72-80.82-110.72l11.92-28.18
					L2875.45,2593.9z"/>
				
					<linearGradient id="SVGID_29_" gradientUnits="userSpaceOnUse" x1="4822.3662" y1="3083.6531" x2="4928.3101" y2="3083.6531" gradientTransform="matrix(-1 -9.500000e-03 -9.500000e-03 1 8008.4194 56.9446)">
					<stop  offset="0" style="stop-color:#09005D"/>
					<stop  offset="1" style="stop-color:#1A0F91"/>
				</linearGradient>
				<path class="st33" d="M3156.65,3106.06c0,0-23.84-37.79-26.64-52.5c-2.8-14.71-10.61-40.69-25.31-32.87
					c0,0-6.93,71.46-4.54,99.38c2.39,27.92-31.56,27.02-31.56,27.02s-9.36,1.32-16.21,8.17c-4.73,4.73-1.35,12.94,5.33,13.37
					c11.11,0.72,28.76,0.9,47.29-2.68c6.48-1.25,11.28-6.76,11.67-13.35l4.89-82.24l30.07,37.97L3156.65,3106.06z"/>
				
					<linearGradient id="SVGID_30_" gradientUnits="userSpaceOnUse" x1="5154.0947" y1="2836.5537" x2="4612.0439" y2="3009.884" gradientTransform="matrix(-1 -9.500000e-03 -9.500000e-03 1 8008.4194 56.9446)">
					<stop  offset="0" style="stop-color:#FEBBBA"/>
					<stop  offset="1" style="stop-color:#FF928E"/>
				</linearGradient>
				<path class="st34" d="M2993.31,2646.79c0,0,6.96,297.02,7.9,339.21c0.94,42.19-6.66,135.67-48.95,163.61l18.4,13.62
					c0,0,23-19.55,45.46-57.16c25.24-42.26,32.87-49.98,32.87-49.98l-8.38-17.15c-3.67-7.51-4.74-16-3.06-24.19
					c9.13-44.23,39.61-191.35,47.93-223.03c9.82-37.4,10.51-87.34-23.64-129.15C3027.7,2620.78,2993.31,2646.79,2993.31,2646.79z"/>
				
					<linearGradient id="SVGID_31_" gradientUnits="userSpaceOnUse" x1="4920.5898" y1="3102.7869" x2="5046.8848" y2="3102.7869" gradientTransform="matrix(-1 -9.500000e-03 -9.500000e-03 1 8008.4194 56.9446)">
					<stop  offset="0" style="stop-color:#09005D"/>
					<stop  offset="1" style="stop-color:#1A0F91"/>
				</linearGradient>
				<path class="st35" d="M3032.36,3176.63c1.31,0.01,2.43-0.93,2.61-2.23c1.41-9.9,7.27-49.6,12.06-59.88
					c5.49-11.77,23.43-61.32-0.01-65.53c0,0-58.27,85.14-69.46,96.62c-11.19,11.48-25.3,4.01-25.3,4.01s-10.9,3.22-19.12,13.72
					c-3.91,5-0.27,12.34,6.08,12.4l39.25,0.37c11.4,0.11,21.65-6.82,25.89-17.4c6.91-17.26,18.78-42.57,32.61-53.8l-7.19,68.82
					C3029.62,3175.27,3030.82,3176.61,3032.36,3176.63L3032.36,3176.63z"/>
				<linearGradient id="SVGID_32_" gradientUnits="userSpaceOnUse" x1="3434.7551" y1="2168.0034" x2="3130.5615" y2="2401.219">
					<stop  offset="0" style="stop-color:#09005D"/>
					<stop  offset="1" style="stop-color:#1A0F91"/>
				</linearGradient>
				<path class="st36" d="M2944.56,2286.14c0,0,8.84,28.19-4.74,74.63l-84.29,294.36c-1.32,4.63,1.17,9.47,5.7,11.09
					c25.21,9.05,108.1,34.63,221.25,26.83c5.7-0.39,10.47-4.43,11.71-10c7.46-33.56,32.89-148.05,38.13-171.58
					c19.96-89.64,42.24-186.31-55.79-244.77C3031.35,2286.04,2989.21,2297.45,2944.56,2286.14z"/>
				
					<linearGradient id="SVGID_33_" gradientUnits="userSpaceOnUse" x1="4824.3096" y1="2232.9512" x2="5425.5625" y2="1545.2068" gradientTransform="matrix(-0.9922 -0.1247 -0.1247 0.9922 8264.5254 715.4178)">
					<stop  offset="0" style="stop-color:#FEBBBA"/>
					<stop  offset="1" style="stop-color:#FF928E"/>
				</linearGradient>
				<path class="st37" d="M3100.59,1990.5c0,0,95.91,79.7,119.71,188.62c23.8,108.91-140.15,120.49-140.15,120.49
					s-22.26-24.85-48.68-15.99c-26.42,8.86-2.05-43.38,28.87-43.24c30.92,0.14,16.59,24.58,60.33,4.77
					c42.6-19.3,68.94-78.98-39.76-169.45c-6.3-5.24-11.33-11.93-14.36-19.55C3045.44,2002.99,3062.18,1968.15,3100.59,1990.5z"/>
			</g>
			<g>
				<g>
					<g>
						<rect x="2466.23" y="2804.24" class="st38" width="34.21" height="369.96"/>
					</g>
					<g>
						<path class="st38" d="M2633.15,3181.33h-299.63v-19.8c0-1.37,1.11-2.47,2.47-2.47h294.68c1.37,0,2.47,1.11,2.47,2.47V3181.33z
							"/>
					</g>
					<path class="st38" d="M2689.81,2790.6c0,21.5-17.59,39.1-39.1,39.1h-322.17c-21.5,0-39.1-17.59-39.1-39.1v-35.35
						c0-21.5,17.59-39.1,39.1-39.1h322.17c21.5,0,39.1,17.59,39.1,39.1V2790.6z"/>
				</g>
				<g>
					
						<linearGradient id="SVGID_34_" gradientUnits="userSpaceOnUse" x1="660.5943" y1="2897.1655" x2="600.2089" y2="3015.9233" gradientTransform="matrix(-0.9764 -0.2161 -0.2161 0.9764 3385.2073 288.5267)">
						<stop  offset="0" style="stop-color:#09005D"/>
						<stop  offset="1" style="stop-color:#1A0F91"/>
					</linearGradient>
					<path class="st39" d="M2180.08,3061.85c0,0-110.6,47.64-104.26,97.49c0,0,114.32-21.92,134.78-54.6
						c20.46-32.68,9.19-51.6,9.19-51.6L2180.08,3061.85z"/>
					
						<linearGradient id="SVGID_35_" gradientUnits="userSpaceOnUse" x1="545.7622" y1="2944.4241" x2="605.919" y2="2944.4241" gradientTransform="matrix(-0.9764 -0.2161 -0.2161 0.9764 3385.2073 288.5267)">
						<stop  offset="0" style="stop-color:#FEBBBA"/>
						<stop  offset="1" style="stop-color:#FF928E"/>
					</linearGradient>
					<path class="st40" d="M2207.17,3007.4l5.61,48.54c0.85,7.32-3.22,14.55-10.16,17.05c-3.47,1.25-8.03,2.11-14.01,2.14
						c-8.44,0.04-15.91-5.5-18.16-13.64l-10.88-39.26L2207.17,3007.4z"/>
					
						<linearGradient id="SVGID_36_" gradientUnits="userSpaceOnUse" x1="462.5092" y1="2785.248" x2="718.1486" y2="2426.95" gradientTransform="matrix(-0.9764 -0.2161 -0.2161 0.9764 3385.2073 288.5267)">
						<stop  offset="0" style="stop-color:#09005D"/>
						<stop  offset="1" style="stop-color:#1A0F91"/>
					</linearGradient>
					<path class="st41" d="M2448.77,2635.19c0,0-203.42-9.41-304.64,49.61c-101.22,59.03,5.13,342.33,5.13,342.33
						s26.44,5.68,64.51-14.66c0,0-54.33-207.39,40.04-243.47c106.1-40.56,215.85-30.7,215.85-30.7l-20.33-96.71L2448.77,2635.19z"/>
					
						<linearGradient id="SVGID_37_" gradientUnits="userSpaceOnUse" x1="625.5546" y1="3017.2356" x2="416.1996" y2="3291.0071" gradientTransform="matrix(-0.9764 -0.2161 -0.2161 0.9764 3385.2073 288.5267)">
						<stop  offset="0" style="stop-color:#09005D"/>
						<stop  offset="1" style="stop-color:#1A0F91"/>
					</linearGradient>
					<path class="st42" d="M2098.05,3137.46c23.13-5.07,91.72-33.49,102.14-33.11c10.42,0.38,25.18,15.99,25.18,15.99
						s2.54,8.53-4.91,20.78c-17.67,13.78-55.74,39.08-100.01,41.85c-32.56,2.04-52.15-10.92-63.35-23.48
						C2066.91,3149.95,2082.65,3140.83,2098.05,3137.46z"/>
					
						<linearGradient id="SVGID_38_" gradientUnits="userSpaceOnUse" x1="520.7844" y1="3076.5288" x2="682.5482" y2="3076.5288" gradientTransform="matrix(-0.9764 -0.2161 -0.2161 0.9764 3385.2073 288.5267)">
						<stop  offset="0" style="stop-color:#4F52FF"/>
						<stop  offset="1" style="stop-color:#4042E2"/>
					</linearGradient>
					<path class="st43" d="M2120.45,3182.98c44.26-2.77,82.33-28.07,100.01-41.85c-5.04,8.28-14.63,18.25-32.66,28.44
						c-44.73,25.27-118.66,21.59-133.31,15.9c-11.74-4.56-8.11-15.53,2.62-25.97C2068.31,3172.06,2087.9,3185.02,2120.45,3182.98z"
						/>
					
						<linearGradient id="SVGID_39_" gradientUnits="userSpaceOnUse" x1="502.2623" y1="2999.9412" x2="558.7227" y2="2999.9412" gradientTransform="matrix(-0.9764 -0.2161 -0.2161 0.9764 3385.2073 288.5267)">
						<stop  offset="0" style="stop-color:#FEBBBA"/>
						<stop  offset="1" style="stop-color:#FF928E"/>
					</linearGradient>
					<path class="st44" d="M2249.65,3094.94c-1.51,5.73-17.72,22.93-27.08,32.53c-4.45,4.56-10.91,6.51-17.14,5.16
						c-3.95-0.86-8.41-2.21-12.26-4.3c-5.79-3.14-7.8-10.5-4.63-16.27l23.69-43.08L2249.65,3094.94z"/>
					
						<linearGradient id="SVGID_40_" gradientUnits="userSpaceOnUse" x1="370.3637" y1="2963.7996" x2="384.4541" y2="2484.7302" gradientTransform="matrix(-0.9764 -0.2161 -0.2161 0.9764 3385.2073 288.5267)">
						<stop  offset="0" style="stop-color:#09005D"/>
						<stop  offset="1" style="stop-color:#1A0F91"/>
					</linearGradient>
					<path class="st45" d="M2650.37,2618.13c0,0,17.76,125.97-33.58,151.71c-51.34,25.75-163.94,42.6-202.73,107.94
						c-38.78,65.33-108.44,193.57-171.83,230.41c0,0-36.2-11.77-46.78-29.58c0,0,75.24-197.8,106.63-245.88
						c27.18-41.64,66.93-101.62,123.41-127.56c16.17-7.43,17.43-24.58,14.59-42.14l-5.18-31.98L2650.37,2618.13z"/>
					<path class="st5" d="M2174.55,2475.33c71.98,20.55,104.19-182.02,103.9-186.94l110.35,129.03c0,0-65.75,115.7-165.04,128.02
						c-25.12,3.12-46.49-1.23-64.41-9.44C2172.56,2514.36,2175.57,2493,2174.55,2475.33z"/>
					
						<linearGradient id="SVGID_41_" gradientUnits="userSpaceOnUse" x1="705.4555" y1="2405.6726" x2="902.4054" y2="2405.6726" gradientTransform="matrix(-0.9764 -0.2161 -0.2161 0.9764 3385.2073 288.5267)">
						<stop  offset="0" style="stop-color:#FEBBBA"/>
						<stop  offset="1" style="stop-color:#FF928E"/>
					</linearGradient>
					<path class="st46" d="M2041.26,2409.03c31.37-12.89,57.98,12.83,57.98,12.83c31.08,31.82,55.74,47.88,75.31,53.47
						c1.03,17.67-1.99,39.03-15.2,60.66c-38.78-17.77-61.39-53.68-70.7-71.61c-3.35-6.45-11.21-9.18-17.76-6.02
						c-6.65,3.22-13.5,8.12-13.93,14.78c-0.85,13.14-16.48,13.91-16.57,9.06c-0.09-4.85,12.11-30.8,12.11-30.8
						s-36.04,23.12-50.07,31.96c-14.03,8.84-25.98-5.75-25.98-5.75S2009.89,2421.92,2041.26,2409.03z"/>
					<path class="st5" d="M2622.64,2205.04c0,0-96.72-65.99-330.32,53.35c0,0-24.06,30.5-12.79,64.87
						c11.27,34.38,149.97,220.44,155.36,307.78c0,0,94.81,55.81,217.89,0.48C2652.78,2631.53,2694.05,2400.89,2622.64,2205.04z"/>
					
						<linearGradient id="SVGID_42_" gradientUnits="userSpaceOnUse" x1="486.8256" y1="2058.2131" x2="617.4973" y2="2058.2131" gradientTransform="matrix(-0.9764 -0.2161 -0.2161 0.9764 3385.2073 288.5267)">
						<stop  offset="0" style="stop-color:#FEBBBA"/>
						<stop  offset="1" style="stop-color:#FF928E"/>
					</linearGradient>
					<path class="st47" d="M2421.23,2120.67l38.22,74.9c3.8,7.44,3,16.44-2.21,22.96c-10.53,13.19-32.5,30.91-70,19.49
						c-11.16-3.4-19.69-12.47-22.38-23.82l-19.81-83.6L2421.23,2120.67z"/>
					<path class="st5" d="M2694.27,2466.58c6.55-45.53-113.76-133.77-113.76-133.77l42.14-127.77c0,0,229.58,163.84,181.3,297.63
						c-6.92,19.18-17.24,33.15-29.83,43.06C2749.79,2495.87,2716.82,2475.15,2694.27,2466.58z"/>
					
						<linearGradient id="SVGID_43_" gradientUnits="userSpaceOnUse" x1="781.5383" y1="2553.126" x2="346.6538" y2="3308.8269" gradientTransform="matrix(-0.9952 0.0978 0.0978 0.9952 3094.5051 -105.42)">
						<stop  offset="0" style="stop-color:#FEBBBA"/>
						<stop  offset="1" style="stop-color:#FF928E"/>
					</linearGradient>
					<path class="st48" d="M2526.42,2479.21c0,0,136.1,38.01,164.33-3.42c1.91-2.81,3.04-5.91,3.52-9.22
						c22.56,8.57,55.53,29.29,79.84,79.15c-64.62,50.83-189.21-6.15-223.06-23.23c-5.57-2.81-11.97-3.36-17.93-1.5
						c-12.04,3.76-32.9,9.59-44.53,8.95c-17.01-0.93-35.26,60.52-64.2,44.96C2424.39,2574.91,2437.54,2469.91,2526.42,2479.21z"/>
					<g>
						
							<linearGradient id="SVGID_44_" gradientUnits="userSpaceOnUse" x1="680.5164" y1="-52.6605" x2="495.1288" y2="192.5921" gradientTransform="matrix(-0.6545 -0.7561 -0.7561 0.6545 2800.0559 2578.439)">
							<stop  offset="0" style="stop-color:#FEBBBA"/>
							<stop  offset="1" style="stop-color:#FF928E"/>
						</linearGradient>
						<path class="st49" d="M2372.24,1998.27c-1.21,1.05-51.63,89.11-77.3,134c-7.84,13.7-1.97,31.15,12.54,37.37l11.12,4.76
							c15.19,6.51,47.86,11.96,60.72,1.58l81.05-85.56C2460.38,2090.43,2399.5,1974.67,2372.24,1998.27z"/>
						
							<linearGradient id="SVGID_45_" gradientUnits="userSpaceOnUse" x1="561.8113" y1="-67.1436" x2="756.9477" y2="-67.1436" gradientTransform="matrix(-0.6545 -0.7561 -0.7561 0.6545 2800.0559 2578.439)">
							<stop  offset="0" style="stop-color:#09005D"/>
							<stop  offset="1" style="stop-color:#1A0F91"/>
						</linearGradient>
						<path class="st50" d="M2483.21,2067.08c9.94-5.58,21.89-16.89,12.59-36.9c-9.46-20.33-28.15-22.1-40.19-20.8
							c-4.87,0.52-9.27-2.57-10.69-7.26c-0.81-2.67-2.78-5.03-7.05-5.7c-5.75-0.91-9.32-6.78-7.82-12.41
							c2.88-10.81,2.39-25.49-14.99-36.01c-30.85-18.68-59.69,8.45-67.72,32.03c-8.03,23.58,26.57,41.93,48.66,45.68
							c16.79,2.85,24.99,22.22,27.95,31.34c0.94,2.89,0.49,6.04-1.18,8.57l-24.64,37.44c6.78,8.53,12.78,17.54,18.7,26.65
							c2.22-2.39,4.16-4.38,5.67-5.77c10.7-9.81,29.74-4.74,37.58-2.05c2.57,0.88,5.36,0.68,7.78-0.57
							c8.53-4.41,25.77-16.8,11.64-40.24C2476.54,2076.21,2478.22,2069.89,2483.21,2067.08z"/>
						
							<linearGradient id="SVGID_46_" gradientUnits="userSpaceOnUse" x1="447.3169" y1="115.8499" x2="578.3444" y2="-18.5808" gradientTransform="matrix(-0.6545 -0.7561 -0.7561 0.6545 2800.0559 2578.439)">
							<stop  offset="0" style="stop-color:#FEBBBA"/>
							<stop  offset="1" style="stop-color:#FF928E"/>
						</linearGradient>
						<path class="st51" d="M2407.86,2145.74c0,0,15.75-40.49,33.66-38.23c17.91,2.26,31.31,20.75,8.19,39.95
							C2420.97,2171.33,2407.86,2145.74,2407.86,2145.74z"/>
					</g>
				</g>
				<g>
					
						<linearGradient id="SVGID_47_" gradientUnits="userSpaceOnUse" x1="12793.8164" y1="3172.2419" x2="12537.6426" y2="3242.4521" gradientTransform="matrix(0.9988 -0.0494 0.0494 0.9988 -10528.5889 -55.0328)">
						<stop  offset="0" style="stop-color:#09005D"/>
						<stop  offset="1" style="stop-color:#1A0F91"/>
					</linearGradient>
					<path class="st52" d="M2352.64,2565.87c-0.24,0.01-0.49,0.02-0.73,0.02l-317.95-0.35c-7.86-0.01-14.22-6.39-14.22-14.25
						c0.01-7.86,6.41-14.36,14.25-14.22l317.95,0.35c7.86,0.01,14.22,6.39,14.22,14.24
						C2366.15,2559.28,2360.16,2565.49,2352.64,2565.87z"/>
					
						<linearGradient id="SVGID_48_" gradientUnits="userSpaceOnUse" x1="12546.9854" y1="2315.8977" x2="12365.2188" y2="2508.0137" gradientTransform="matrix(1 0 0 1 -10487.1201 0)">
						<stop  offset="0" style="stop-color:#09005D"/>
						<stop  offset="1" style="stop-color:#1A0F91"/>
					</linearGradient>
					<path class="st53" d="M1748.14,2277.19h264.79c19.53,0,37.31,11.27,45.65,28.94l122.41,259.57h-329.06
						c-12.59,0-23.9-7.69-28.52-19.4l-94.93-240.19C1722.99,2292.23,1733.21,2277.19,1748.14,2277.19z"/>
					<path class="st8" d="M1934.68,2410.28c5.74,17.83,1.5,35.14-9.47,38.67c-10.97,3.53-24.51-8.06-30.25-25.89
						c-5.74-17.83-1.5-35.14,9.47-38.67C1915.4,2380.86,1928.95,2392.45,1934.68,2410.28z"/>
				</g>
				<g>
					<g>
						<path class="st8" d="M1791.06,3247.81c-1.76,0-3.55-0.34-5.27-1.06c-6.78-2.82-9.91-10.43-6.99-16.99l280.21-630.65
							c2.91-6.56,10.77-9.59,17.55-6.77c6.78,2.82,9.91,10.43,6.99,16.99l-280.21,630.65
							C1801.17,3244.87,1796.24,3247.81,1791.06,3247.81z"/>
						<path class="st8" d="M2106.74,3247.81c-5.18,0-10.11-2.93-12.28-7.83l-280.21-630.65c-2.92-6.56,0.22-14.17,6.99-16.99
							c6.77-2.82,14.64,0.21,17.55,6.77l280.21,630.65c2.92,6.56-0.22,14.17-6.99,16.99
							C2110.29,3247.47,2108.5,3247.81,2106.74,3247.81z"/>
						<path class="st8" d="M2658.45,3247.81c-1.76,0-3.55-0.34-5.27-1.06c-6.78-2.82-9.91-10.43-6.99-16.99l280.21-630.65
							c2.92-6.56,10.77-9.59,17.55-6.77c6.78,2.82,9.91,10.43,6.99,16.99l-280.21,630.65
							C2668.55,3244.87,2663.63,3247.81,2658.45,3247.81z"/>
						<path class="st8" d="M2974.12,3247.81c-5.18,0-10.1-2.93-12.28-7.83l-280.21-630.65c-2.92-6.56,0.22-14.17,6.99-16.99
							c6.77-2.82,14.64,0.21,17.55,6.77l280.21,630.65c2.92,6.56-0.22,14.17-6.99,16.99
							C2977.67,3247.47,2975.88,3247.81,2974.12,3247.81z"/>
					</g>
					<path class="st8" d="M3006.99,2579.64c0.71-4.14-0.26-8.41-2.65-11.66c-2.39-3.25-5.96-5.13-9.72-5.13H1719.84
						c-4.95,0-9.56,2.82-12.22,7.49c-2.67,4.67-3.02,10.53-0.95,15.56l13.81,33.47c3.16,7.67,10.02,12.57,17.56,12.57h1247.82
						c7.02,0,13.05-5.57,14.38-13.28L3006.99,2579.64z"/>
				</g>
			</g>
		</g>
	</g>
</g>
</svg>
